<svg width="52" height="52" viewBox="0 0 52 52" fill="none" xmlns="http://www.w3.org/2000/svg">
<path fill-rule="evenodd" clip-rule="evenodd" d="M39.2026 3.65625C43.9704 3.65625 47.8354 7.52131 47.8354 12.2891C47.8354 17.0568 43.9704 20.9219 39.2026 20.9219C37.5509 20.9219 36.0077 20.4577 34.6958 19.6531C33.7715 19.9011 32.8472 20.149 31.9228 20.3967C31.4294 20.5359 30.957 20.0845 31.0921 19.5772C31.3408 18.6493 31.5895 17.7224 31.8382 16.7953C31.0337 15.4836 30.5698 13.9405 30.5698 12.289C30.5698 7.52131 34.4349 3.65625 39.2026 3.65625ZM5.58594 34.9375H27.4219V39.4062H5.58594V34.9375Z" class="blue"/>
<path d="M5.58594 25.4922L6.60156 3.65625H11.6798L12.6954 25.4922M6.60156 8.73438H11.6798M17.7735 25.4922L18.7892 3.65625H23.8673L24.883 25.4922M18.7892 8.73438H23.8673M5.58594 43.875H27.4219M31.9919 39.4062H46.4133M33.0075 39.9141V47.8359M45.3976 39.9141V47.8359M39.2026 39.9141V47.8359M31.9919 30.4689H46.4133M31.9919 34.9375H46.4133M42.2495 10.2578L38.187 14.3203L36.1557 12.2891M1.01562 26H50.9844V48.3438H1.01562V26Z" class="accent" stroke-width="2" stroke-miterlimit="22.9256" stroke-linecap="round" stroke-linejoin="round"/>
</svg>
