<svg width="52" height="52" viewBox="0 0 52 52" fill="none" xmlns="http://www.w3.org/2000/svg">
<path d="M34.6681 4.0752V7.13446H17.332V4.0752H11.2134V46.9055H40.7868V4.0752H34.6681Z" class="blue"/>
<path d="M34.6681 4.07489H41.8065C43.4963 4.07489 44.8658 5.44446 44.8658 7.13426V47.9251C44.8658 49.6149 43.4962 50.9844 41.8065 50.9844H10.1935C8.50375 50.9844 7.13428 49.6148 7.13428 47.9251V7.13426C7.13428 5.44446 8.50385 4.07489 10.1935 4.07489H17.332M15.2924 16.3997L16.7346 17.8418L20.3912 13.7627M24.4704 13.7627H36.7077M24.4704 17.8418H36.7077M15.2924 27.6172L16.7346 29.0593L20.3912 24.9802M24.4704 24.9802H36.7077M24.4704 29.0593H36.7077M15.2924 38.8347L16.7346 40.2767L20.3912 36.1977M24.4704 36.1977H36.7077M24.4704 40.2767H36.7077M17.332 1.01562H34.6681V7.13426H17.332V1.01562Z" class="accent" stroke-width="2" stroke-miterlimit="10" stroke-linecap="round" stroke-linejoin="round"/>
</svg>
