<svg width="52" height="52" viewBox="0 0 52 52" fill="none" xmlns="http://www.w3.org/2000/svg">
<path d="M36.1319 16.3193L48.9562 16.3376C50.0764 16.3386 50.9844 17.2476 50.9844 18.3689V44.8604C50.9844 45.9827 50.0754 46.8917 48.9531 46.8917H3.04688C1.92461 46.8917 1.01562 45.9827 1.01562 44.8604V18.3506C1.01562 17.2283 1.92461 16.3193 3.04688 16.3193H15.8674M50.8138 21.4147H34.1463M1.11313 21.4142H17.853H17.817M1.01562 25.4907H50.9119M6.10705 33.6436H18.3265M12.2169 38.739H18.3265" class="accent" stroke-width="2" stroke-miterlimit="10" stroke-linecap="round" stroke-linejoin="round"/>
<path d="M31.5643 30.586H46.8387V36.7004H31.5643V30.586ZM25.9999 26.506C19.825 26.506 14.8013 21.4787 14.8013 15.2995C14.8013 9.12012 19.825 4.09277 25.9999 4.09277C32.1748 4.09277 37.1984 9.12012 37.1984 15.2995C37.1984 21.4787 32.1748 26.506 25.9999 26.506Z" class="blue"/>
<path d="M20.9595 16.02L23.8397 18.9025L31.0402 11.6963" class="accent" stroke-width="2" stroke-miterlimit="10" stroke-linecap="round" stroke-linejoin="round"/>
</svg>
