<svg width="52" height="52" viewBox="0 0 52 52" fill="none" xmlns="http://www.w3.org/2000/svg">
<path d="M23.4507 22.4502C27.6857 22.4502 31.1188 19.0171 31.1188 14.7822C31.1188 10.5472 27.6857 7.11414 23.4507 7.11414C19.2158 7.11414 15.7827 10.5472 15.7827 14.7822C15.7827 19.0171 19.2158 22.4502 23.4507 22.4502Z" class="blue" class="accent" stroke-width="2"/>
<path d="M42.3162 6.1146H40.2766V42.8262C40.2766 44.5158 38.907 45.8855 37.2174 45.8855H11.7231V47.925C11.7231 49.6147 13.0929 50.9844 14.7824 50.9844H42.3162C44.0058 50.9844 45.3755 49.6147 45.3755 47.925V9.17396C45.3755 7.48427 44.0058 6.1146 42.3162 6.1146Z" class="accent" stroke-width="2" stroke-miterlimit="10" stroke-linecap="round" stroke-linejoin="round"/>
<path d="M42.3162 6.1146H40.2766V42.8262C40.2766 44.5158 38.907 45.8855 37.2174 45.8855H11.7231V47.925C11.7231 49.6147 13.0929 50.9844 14.7824 50.9844H42.3162C44.0058 50.9844 45.3755 49.6147 45.3755 47.925V9.17396C45.3755 7.48427 44.0058 6.1146 42.3162 6.1146Z" class="accent" stroke-width="2" stroke-miterlimit="10" stroke-linecap="round" stroke-linejoin="round"/>
<path d="M19.0146 14.4128L21.9465 17.3447L27.0709 12.2204" class="accent" stroke-width="2" stroke-miterlimit="10" stroke-linecap="round" stroke-linejoin="round"/>
<path d="M11.7231 30.5889H24.9801" class="accent" stroke-width="2" stroke-miterlimit="10" stroke-linecap="round" stroke-linejoin="round"/>
<path d="M11.7231 35.6875H35.1777" class="accent" stroke-width="2" stroke-miterlimit="10" stroke-linecap="round" stroke-linejoin="round"/>
<path d="M11.7231 40.7871H35.1777" class="accent" stroke-width="2" stroke-miterlimit="10" stroke-linecap="round" stroke-linejoin="round"/>
<path d="M37.2176 1.01597H9.68377C7.99428 1.01597 6.62451 2.38564 6.62451 4.07533V42.8264C6.62451 44.5161 7.99428 45.8857 9.68377 45.8857H37.2176C38.9072 45.8857 40.2768 44.5161 40.2768 42.8264V4.07533C40.2768 2.38564 38.9072 1.01597 37.2176 1.01597Z" class="accent" stroke-width="2" stroke-miterlimit="10" stroke-linecap="round" stroke-linejoin="round"/>
</svg>
