<svg width="52" height="52" viewBox="0 0 52 52" fill="none" xmlns="http://www.w3.org/2000/svg">
<path d="M36.309 36.8495C35.7928 33.8957 33.2547 31.728 30.2652 31.6883L24.3533 31.5681C21.5625 29.7811 17.8829 30.3809 15.7908 32.9551C15.1281 33.7703 14.5268 34.6236 14.1178 35.4357H11.0537V43.0893L26.2348 46.4224C29.289 47.107 32.5081 46.6035 35.1571 44.932C35.2376 44.8812 50.9843 34.2049 50.9843 34.2049C48.979 31.9875 45.686 31.5116 43.1381 33.071L36.3837 37.2775H22.8316" class="accent" stroke-width="2" stroke-miterlimit="10" stroke-linecap="round" stroke-linejoin="round"/>
<path d="M11.0536 45.6514H1.01562V33.6547H11.0536V45.6514Z" class="accent" stroke-width="2" stroke-miterlimit="10" stroke-linecap="round" stroke-linejoin="round"/>
<path d="M6.92676 40.8505V41.5967" class="accent" stroke-width="2" stroke-miterlimit="10" stroke-linecap="round" stroke-linejoin="round"/>
<path d="M49.2284 26.6289H20.8363C19.8667 26.6289 19.0806 25.8428 19.0806 24.8732V7.03715C19.0806 6.06743 19.8667 5.28145 20.8363 5.28145H49.2284C50.198 5.28145 50.9841 6.06743 50.9841 7.03715V24.8732C50.9841 25.8428 50.198 26.6289 49.2284 26.6289Z" class="accent" stroke-width="2" stroke-miterlimit="10" stroke-linecap="round" stroke-linejoin="round"/>
<path d="M45.5154 18.5441V13.5227C44.1959 13.1587 43.1681 12.0918 42.8598 10.7502H27.2049C26.8966 12.0918 25.8688 13.1587 24.5493 13.5227V18.5441C25.817 18.8939 26.8156 19.8925 27.1654 21.1602H42.8993C43.2491 19.8925 44.2477 18.8939 45.5154 18.5441Z" class="blue" class="accent" stroke-width="2"/>
<path d="M37.2109 15.9556C37.2109 17.1586 36.2357 18.1338 35.0327 18.1338C33.8297 18.1338 32.8545 17.1586 32.8545 15.9556C32.8545 14.7526 33.8297 13.7774 35.0327 13.7774C36.2357 13.7774 37.2109 14.7526 37.2109 15.9556Z" class="accent" stroke-width="2" stroke-miterlimit="10" stroke-linecap="round" stroke-linejoin="round"/>
</svg>
