<svg width="1320" height="728" viewBox="0 0 1320 728" fill="none" xmlns="http://www.w3.org/2000/svg" xmlns:xlink="http://www.w3.org/1999/xlink">
    <rect width="1320" height="728" fill="url(#pattern0_319_15349)"/>
    <path data-tooltip-id="1" d="M748 211.5L803.5 178L850.5 195L797.5 229.5L748 211.5Z" fill="#01AFD2" fill-opacity="0.4" stroke="#01AFD2" stroke-width="2"/>
    <path data-tooltip-id="2" d="M965 250.5V257.5L999.5 268.5L1024.5 253V247L1010.5 225.5L1003 224L979 240L965 250.5Z" fill="#01AFD2" fill-opacity="0.4" stroke="#01AFD2" stroke-width="2"/>
    <path data-tooltip-id="3" d="M957.129 456.338V469.988L968 463.163V450L957.129 456.338Z" fill="#01AFD2" fill-opacity="0.4"/>
    <path data-tooltip-id="5" d="M926 475.35V489L936.871 482.175V469.013L926 475.35Z" fill="#01AFD2" fill-opacity="0.4"/>
    <path data-tooltip-id="12" d="M957.129 456.338V469.988L968 463.163V450L957.129 456.338Z" stroke="#01AFD2" stroke-width="2"/>
    <path data-tooltip-id="12" d="M926 475.35V489L936.871 482.175V469.013L926 475.35Z" stroke="#01AFD2" stroke-width="2"/>
    <path data-tooltip-id="7" d="M611.348 315.001L581.069 305.16C578.808 304.425 576.337 304.734 574.327 306.003L531.356 333.12C529.216 334.471 529.607 337.702 532.009 338.503L561.445 348.315C563.698 349.066 566.167 348.777 568.186 347.528L612 320.405C614.172 319.06 613.777 315.79 611.348 315.001Z" fill="#01AFD2" fill-opacity="0.4" stroke="#01AFD2" stroke-width="2"/>
    <path data-tooltip-id="8" fill-rule="evenodd" clip-rule="evenodd" d="M614.5 535.5V573V573.5L641 582.5L641.5 581L661 570L664.5 565.5L677 569.5V573.657L678.5 574L679 547.5L679.5 546V541L676.5 518.5L653 511L614.5 535.5Z" fill="#01AFD2" fill-opacity="0.4" stroke="#01AFD2" stroke-width="2"/>
    <path data-tooltip-id="9" d="M329.5 518V566L337 567.5L359.5 552.5V512.5L344.5 508L329.5 518Z" fill="#01AFD2" fill-opacity="0.4" stroke="#01AFD2" stroke-width="2"/>
    <path data-tooltip-id="10" d="M752.526 567.8L755.5 569.5L804.5 538L762.5 525.5L754.5 530.5L755.5 532L756 537.5V541L754 542.5V547L757.5 548.5V551L755.5 552L753 556L751.5 556.5L748.5 560.5L751.729 566.958C751.906 567.312 752.183 567.605 752.526 567.8Z" fill="#01AFD2" fill-opacity="0.4" stroke="#01AFD2" stroke-width="2"/>
    <path data-tooltip-id="11" d="M185 441.5V398L200 403V447L185 441.5Z" fill="#01AFD2" fill-opacity="0.4" stroke="#01AFD2" stroke-width="2"/>
    <path data-tooltip-id="4" d="M723 609L709 617.5V638L718 642L733 633V612.5L723 609Z" fill="#01AFD2" fill-opacity="0.4" stroke="#01AFD2" stroke-width="2"/>
    <path data-tooltip-id="13" d="M513.5 229V187.5L576.5 208V249.5L513.5 229Z" fill="#01AFD2" fill-opacity="0.4" stroke="#01AFD2" stroke-width="2"/>
    <path data-tooltip-id="14" d="M277.97 413.233L281.88 417.664C282.749 418.649 282.582 420.168 281.52 420.94C280.05 422.009 280.408 424.292 282.134 424.86L350.714 447.413C351.845 447.785 353.084 447.633 354.092 446.999L403.305 416.066C404.01 415.622 403.914 414.566 403.141 414.256C402.754 414.102 402.5 413.727 402.5 413.31V410.81C402.5 410.287 402.684 409.78 403.019 409.378C403.995 408.206 403.539 406.423 402.121 405.864L389.62 400.929C387.91 400.254 387.452 398.048 388.752 396.748L388.971 396.529C389.31 396.19 389.5 395.731 389.5 395.252C389.5 394.499 389.033 393.825 388.328 393.56L380.096 390.473C378.534 389.888 377.5 388.395 377.5 386.728V355.108C377.5 354.383 377.317 353.659 376.848 353.106C375.372 351.364 372.216 349 367.5 349C363.497 349 360.448 349.511 358.608 349.985C357.561 350.255 356.437 350.265 355.44 349.85L351.764 348.318C351.279 348.116 350.905 347.714 350.738 347.215C350.586 346.757 350.258 346.379 349.826 346.163L349.697 346.099C348.964 345.732 348.5 344.982 348.5 344.161V344.053C348.5 343.689 348.415 343.331 348.253 343.006L347.842 342.183C347.632 341.765 347.204 341.5 346.736 341.5C346.053 341.5 345.5 342.053 345.5 342.736V343.596C345.5 343.863 345.449 344.127 345.35 344.375L344.942 345.396C344.653 346.116 344.581 346.905 344.733 347.666L345.5 351.5L346.438 356.191C346.479 356.396 346.5 356.606 346.5 356.815V357.369C346.5 358.822 345.322 360 343.869 360C343.624 360 343.381 360.034 343.146 360.101L340 361C338.61 361.556 337.029 360.902 336.439 359.525L336.261 359.108C336.089 358.707 336 358.275 336 357.838V348.969C336 346.979 334.537 345.271 332.555 345.091C331.95 345.036 331.397 345 331 345C330.047 345 328.611 346.051 327.642 346.901C327.219 347.272 327 347.816 327 348.379V348.477C327 349.594 326.094 350.5 324.977 350.5C324.663 350.5 324.354 350.427 324.073 350.286L323.72 350.11C322.377 349.439 320.762 349.646 319.632 350.634L317.5 352.5L312.069 358.349C311.382 359.089 311 360.061 311 361.071V373.835C311 374.788 309.961 375.376 309.144 374.886C308.749 374.649 308.254 374.654 307.863 374.898L293.286 384.009C292.769 384.332 292.332 384.769 292.01 385.287L277.574 408.472C276.64 409.972 276.801 411.908 277.97 413.233Z" fill="#01AFD2" fill-opacity="0.4" stroke="#01AFD2" stroke-width="2"/>
    <path data-tooltip-id="15" d="M401 375.191V302.915L466.267 259L515 274.553V345L449.733 388L401 375.191Z" fill="#01AFD2" fill-opacity="0.4" stroke="#01AFD2" stroke-width="2"/>
    
    <defs>
        <pattern id="pattern0_319_15349" patternContentUnits="objectBoundingBox" width="1" height="1">
        <use xlink:href="#image0_319_15349" transform="matrix(0.000594548 0 0 0.00107915 -0.0820867 -0.150685)"/>
        </pattern>
        <image id="image0_319_15349" width="1920" height="1178" xlink:href="/img/common/111.png"/>
    </defs>
</svg>
