<svg width="308" height="61" viewBox="0 0 308 61" fill="none" xmlns="http://www.w3.org/2000/svg">
<path d="M210.976 0.229504C210.763 0.272181 210.144 0.357484 210.144 0.357484C208.993 0.549455 208.225 0.848059 208.225 0.848059C208.033 0.933395 207.674 1.12537 207.337 1.24053C205.989 1.70126 203.891 3.08345 202.542 4.39738C200.938 5.96727 199.727 8.01495 198.891 10.6599C198.362 12.298 198.345 12.4857 198.328 15.1818C198.328 17.6732 198.379 18.151 198.72 19.2772C200.119 23.6797 203.191 27.0072 207.184 28.4406C209.368 29.2085 213.156 29.4986 215.562 29.0549C217.832 28.6454 220.579 27.1267 222.234 25.4032C223.855 23.6968 225.084 21.8368 224.606 21.8368C224.555 21.8368 223.736 22.6218 222.78 23.5944C220.016 26.3417 218.446 27.0925 215.136 27.2461C211.057 27.4338 208.532 26.5294 206.126 24.0039C203.583 21.3249 202.542 16.7347 203.344 11.6837C203.873 8.30504 204.658 6.35974 206.16 4.61921C208.139 2.33263 210.392 1.35998 213.771 1.35998C216.757 1.35998 218.651 2.1108 220.596 4.07316C221.637 5.11407 222.047 5.69424 222.678 6.99111C223.105 7.87844 223.514 8.83402 223.565 9.08998C223.634 9.36301 223.719 9.52511 223.838 9.47392C223.838 9.06438 223.838 6.59436 223.838 3.01092C223.838 1.61595 223.838 1.76095 223.838 0.259343C223.838 -0.15538 223.429 -0.0563343 222.968 0.438523C222.746 0.677419 222.268 1.0187 221.927 1.2064L221.313 1.53062L219.453 1.00163C216.996 0.284945 216.142 0.148434 213.412 0.04605C211.936 0.04605 211.488 0.165514 210.976 0.229504Z" fill="white"/>
<path d="M105.986 1.51776C105.815 1.80785 104.535 4.58929 103.153 7.71201C101.771 10.8347 100.559 13.3943 100.491 13.4285C100.406 13.4626 100.337 13.6332 100.337 13.7868C100.337 13.9574 99.8255 15.2031 99.2112 16.5512C97.556 20.1517 97.3683 20.5783 96.6686 22.1652C96.3274 22.9672 95.8154 24.0935 95.5424 24.6907C95.2694 25.288 95.0476 25.7999 95.0476 25.834C95.0476 25.8852 94.7745 26.5166 94.4333 27.2332C94.092 27.967 93.6312 29.025 93.3924 29.5881C93.1535 30.1512 92.7439 31.0727 92.488 31.6358C92.0614 32.5402 90.9863 34.895 89.843 37.4375C89.6383 37.8983 89.0922 39.1269 88.6486 40.1678C88.2049 41.1916 87.6076 42.5397 87.3176 43.154C87.0445 43.7683 86.6521 44.6386 86.4302 45.1163C84.8262 48.7339 82.6761 53.0511 82.0618 53.9384C81.8741 54.1773 81.7376 54.4504 81.7376 54.5528C81.7376 54.6381 81.1233 55.2865 80.3896 56.0032C79.2463 57.0782 78.8197 57.3513 77.7276 57.7437C76.6014 58.1533 76.2771 58.2045 75.1168 58.1191C73.7175 58.0168 73.2227 57.829 72.3012 57.0441C71.2944 56.1738 70.8678 55.3206 70.7313 53.9384C70.5607 52.1126 70.5095 12.4046 70.6801 9.7085C70.7484 8.44576 70.9361 7.04651 71.0897 6.60284C71.3798 5.73258 72.2671 4.79406 73.2227 4.36746C74.0076 4.00911 75.7823 3.73609 77.2839 3.73609C78.4613 3.73609 78.5125 3.71902 78.6832 3.27536C79.0244 2.3539 79.2633 2.37097 66.8237 2.37097H55.3737L55.1689 2.83169C55.0666 3.10472 54.4352 4.65755 53.7697 6.29569C53.1213 7.93384 52.1827 10.2375 51.6879 11.4149C50.5617 14.1451 50.1692 15.0837 49.4354 16.8754C48.3092 19.5886 46.7222 23.445 45.9885 25.2368C45.596 26.2265 44.8281 28.0694 44.2821 29.3321C42.9682 32.4548 41.0229 37.1816 40.4598 38.5979C40.1697 39.3828 39.9308 39.7412 39.7601 39.7071C39.5042 39.6559 39.1117 38.8197 36.7739 33.2568C36.2279 31.9941 35.6648 30.6461 35.4941 30.2706C35.3235 29.8952 34.8969 28.8885 34.5556 28.0523C34.2143 27.1991 33.8389 26.2777 33.7024 26.0046C33.5829 25.7146 32.8492 24.0252 32.0984 22.2506C30.136 17.6945 29.9312 17.2337 29.5388 16.3293C29.334 15.8857 29.1804 15.4761 29.1804 15.4249C29.1804 15.3738 28.8733 14.6229 28.4808 13.7697C27.4058 11.3466 27.1157 10.6811 26.9621 10.3057C26.7744 9.8962 24.5219 4.50397 24.01 3.25829L23.6346 2.3539L12.0993 2.40509C-0.101436 2.45629 0.000948001 2.45629 0.000948001 3.22417C0.000948001 3.59958 0.461677 3.73609 1.75854 3.73609C3.70384 3.73609 5.08603 4.07737 6.21225 4.82819C7.67976 5.8179 7.98691 6.50046 8.19168 9.11126C8.41351 11.8415 8.39645 50.7133 8.19168 52.3515C8.00397 53.7678 7.40673 55.1841 6.53647 56.2421C5.87097 57.0782 4.35227 57.8632 2.8677 58.1533C-0.135564 58.7334 0.000948001 58.6822 0.000948001 59.1088C0.000948001 59.3648 0.120396 59.5354 0.393421 59.6037C0.888277 59.7402 18.3277 59.7402 19.1468 59.6037C19.5904 59.5184 19.8293 59.3819 19.8976 59.143C20.0682 58.614 19.4881 58.3068 18.2083 58.2386C16.8602 58.1533 14.8296 57.6413 14.7272 57.3683C14.676 57.2489 14.5224 57.1465 14.3859 57.1465C13.9081 57.1465 12.3382 55.3206 11.9116 54.2968L11.5192 53.3071L11.468 30.8167C11.4338 14.5376 11.468 8.32631 11.6045 8.3775C11.7069 8.41163 12.014 8.94062 12.27 9.53786C12.5259 10.1522 13.4133 12.2169 14.2323 14.1451C15.0514 16.0734 15.8364 17.8651 15.9558 18.1552C16.0923 18.4282 16.7066 19.8616 17.3209 21.312C17.9523 22.7625 18.669 24.4518 18.942 25.0661C19.198 25.6804 19.6246 26.6701 19.8805 27.2844C20.1536 27.8987 20.546 28.8031 20.7508 29.3151C20.9726 29.8099 21.1603 30.373 21.1603 30.5437C21.1603 30.7314 21.2286 30.8679 21.3139 30.8679C21.3992 30.8679 21.5528 31.0727 21.6381 31.3286C21.7405 31.6016 22.0818 32.4207 22.406 33.1715C22.7302 33.9223 23.3104 35.3045 23.7029 36.2431C24.1124 37.1816 24.6926 38.5296 24.9997 39.2293C25.3069 39.9289 25.87 41.2428 26.2625 42.1301C26.6379 43.0175 27.6959 45.4747 28.6003 47.5906C29.5046 49.7066 30.8186 52.7781 31.5182 54.4162C33.7877 59.7743 33.9242 60.0132 34.5385 59.7743C34.8116 59.672 34.8628 59.5525 36.2961 56.0544C36.8934 54.5528 37.5589 52.9829 37.7466 52.5563C38.7022 50.4062 39.726 48.0172 40.2891 46.5668C40.5792 45.8672 40.9034 45.0993 41.0399 44.8604C41.1594 44.6215 41.7737 43.171 42.405 41.6182C43.0364 40.0654 43.7019 38.4614 43.8896 38.0348C44.3503 37.028 47.8143 28.8031 48.5822 26.9432C48.9064 26.1412 49.2477 25.4586 49.333 25.4415C49.4184 25.4074 49.4866 25.2709 49.4866 25.1173C49.4866 24.9808 49.7085 24.3494 49.9815 23.7351C50.2545 23.1038 50.8688 21.6363 51.3637 20.4588C51.8585 19.2814 52.3704 18.0869 52.4899 17.8139C53.0871 16.4659 54.0427 14.1622 55.0154 11.7562C56.244 8.73585 56.4317 8.34337 56.6706 8.34337C56.773 8.34337 56.8241 16.2611 56.79 31.4993L56.7388 54.6722L56.3805 55.4571C56.1757 55.9008 55.7321 56.5663 55.3908 56.9417C54.8618 57.5219 54.5717 57.6755 53.4455 57.9656C52.7288 58.1533 51.3807 58.358 50.4763 58.4263C49.0088 58.5287 48.8041 58.5799 48.7017 58.887C48.4286 59.7402 47.4219 59.7061 71.6187 59.7061C84.0242 59.7061 94.2967 59.6549 94.4333 59.6037C94.6039 59.5354 94.7063 59.2966 94.7063 58.9382C94.7063 58.4092 94.6722 58.3751 93.9896 58.2898C89.8089 57.829 89.2629 57.6755 88.2902 56.6858C87.3176 55.7131 87.1469 55.15 87.2493 53.1706C87.3517 51.1229 87.4711 50.7475 89.297 46.5156L90.6962 43.3246L100.764 43.3588L110.815 43.4099L111.6 44.9798C112.026 45.833 112.555 46.9934 112.777 47.5394C113.016 48.0855 113.46 49.1093 113.784 49.809C115.524 53.6484 115.883 55.5083 115.149 56.8223C114.842 57.3683 114.62 57.539 113.75 57.829C113.187 58.0168 112.402 58.1703 111.992 58.1703C110.712 58.1703 108.733 58.5287 108.631 58.7846C108.511 59.1088 108.665 59.4843 108.972 59.6037C109.415 59.7743 154.652 59.7232 154.823 59.5525C154.908 59.4672 154.942 59.1942 154.908 58.9211C154.857 58.4263 154.857 58.4263 153.321 58.2898C150.164 58.0168 148.697 57.3854 147.707 55.8667C146.871 54.6039 147.195 53.0682 148.816 50.628C149.175 50.082 149.55 49.553 149.652 49.4335C149.738 49.3141 150.233 48.6657 150.71 48.0172C151.205 47.3517 151.683 46.7374 151.785 46.6521C151.905 46.5497 152.605 45.6965 153.372 44.758C154.14 43.8024 154.857 42.9151 154.993 42.7956C155.113 42.6591 156.051 41.5158 157.075 40.2531C159.294 37.5229 159.737 37.0109 159.891 37.0109C159.959 37.0109 160.232 37.3352 160.505 37.7276C160.778 38.1372 161.034 38.4955 161.085 38.5467C161.137 38.5979 162.348 40.3725 163.764 42.5056C166.87 47.1299 167.45 47.9831 167.57 48.1026C167.621 48.1537 167.877 48.5292 168.15 48.9558C168.423 49.3824 168.935 50.1502 169.276 50.6622C170.829 52.9658 171.563 54.5186 171.529 55.406C171.46 57.1465 170.692 57.7096 167.706 58.1703C166.512 58.358 166.392 58.4263 166.324 58.8188C166.136 59.7573 165.351 59.7061 180.112 59.7061C187.654 59.7061 193.934 59.6549 194.087 59.6037C194.446 59.4672 194.428 58.6822 194.07 58.4092C193.899 58.2898 193.592 58.1703 193.37 58.1703C193.166 58.1703 192.859 58.1021 192.688 58.0168C192.534 57.9314 191.971 57.6584 191.442 57.4195C190.572 57.01 189.736 56.2933 188.388 54.7746C188.115 54.4504 187.876 54.1262 187.876 54.0579C187.876 53.9896 187.773 53.819 187.654 53.6996C187.535 53.5801 186.937 52.744 186.323 51.8566C185.726 50.9693 185.197 50.2014 185.146 50.1502C185.094 50.099 183.746 48.1026 182.159 45.7136C180.572 43.3246 179.224 41.3281 179.173 41.2769C179.088 41.1916 173.644 33.1033 170.965 29.0591C170.249 27.9841 169.532 26.9602 169.378 26.8066C168.969 26.3459 169.054 25.7316 169.583 25.1344C170.334 24.2641 170.692 23.8375 171.324 23.0184C171.648 22.6089 172.126 22.0287 172.382 21.7386C172.638 21.4656 173.303 20.6465 173.883 19.9469C174.464 19.2473 175.248 18.2917 175.641 17.831C176.033 17.3532 176.887 16.3293 177.535 15.5273C179.105 13.582 180.043 12.4729 180.453 12.0121C180.641 11.8074 180.914 11.4832 181.05 11.2955C181.187 11.1077 181.733 10.4593 182.245 9.86207C182.757 9.26483 183.644 8.24099 184.224 7.57549C186.323 5.13534 188.61 3.90673 191.033 3.90673C192.176 3.90673 192.483 3.71902 192.483 3.03646C192.483 2.71225 192.381 2.55867 192.108 2.47335C191.886 2.42216 187.21 2.37097 181.716 2.37097C171.153 2.37097 171.034 2.38803 171.17 3.13885C171.238 3.49719 171.529 3.58251 173.542 3.92379C175.777 4.2992 177.006 5.1524 177.484 6.63697C177.859 7.83145 177.757 8.78704 177.126 10.1351C176.562 11.3125 175.3 13.3773 174.873 13.8209C174.737 13.9574 174.054 14.8277 173.337 15.7662C172.604 16.7047 171.819 17.6945 171.563 17.9845C171.324 18.2576 170.914 18.7695 170.658 19.0937C170.419 19.4179 170.18 19.7251 170.129 19.7763C170.061 19.8275 169.617 20.3564 169.122 20.9708C168.611 21.5851 168.15 22.114 168.082 22.1652C168.013 22.2164 167.877 22.4212 167.757 22.626C167.382 23.3427 166.989 23.0867 165.863 21.4315C163.252 17.6262 162.962 17.1996 162.962 17.1313C162.962 17.0802 162.57 16.5 162.092 15.8174C161.614 15.1349 160.42 13.3431 159.43 11.8415C158.44 10.3399 157.502 8.90649 157.331 8.66759C156.461 7.40485 156.58 5.54487 157.587 4.65755C158.184 4.12856 158.884 3.94086 161.512 3.65077C162.911 3.49719 163.235 2.67812 161.973 2.47335C161.631 2.42216 155.284 2.37097 147.861 2.37097C135.199 2.3539 134.38 2.37097 134.175 2.64399C133.698 3.29242 134.141 3.80434 135.319 3.99205C136.172 4.12856 137.162 4.58929 138.015 5.22066C138.766 5.78377 140.711 8.41163 143.049 12.0121C143.714 13.036 144.294 13.9233 144.346 13.9745C144.516 14.1281 145.199 15.1178 147.878 19.0937C149.294 21.2096 151.103 23.8887 151.905 25.0661C152.707 26.2435 153.765 27.8134 154.277 28.5642C156.359 31.6187 157.57 33.3592 157.792 33.6152C157.911 33.7517 158.014 33.9735 158.014 34.093C158.014 34.2807 156.188 36.6526 155.113 37.8641C154.908 38.103 154.533 38.5638 154.277 38.888C154.038 39.2122 153.765 39.5705 153.662 39.6729C153.577 39.7753 153.219 40.1848 152.895 40.5944C152.246 41.4135 151.325 42.5056 151.188 42.6421C151.137 42.6933 150.83 43.0687 150.506 43.4953C150.181 43.9219 149.806 44.3826 149.652 44.5191C149.516 44.6556 148.867 45.4235 148.219 46.2255C147.588 47.0275 146.82 47.949 146.513 48.2732C146.223 48.5974 145.642 49.297 145.216 49.809C143.851 51.4812 143.458 51.9078 141.632 53.7507C139.841 55.5595 138.458 56.6004 137.025 57.2659C134.756 58.3068 133.885 58.1533 132.162 56.3786C131.121 55.3036 130.78 54.7746 129.568 52.3515C128.8 50.8157 127.862 48.8534 127.486 48.0172C126.872 46.5839 126.565 45.9184 125.524 43.6147C125.302 43.1369 124.927 42.2667 124.688 41.7035C123.63 39.1781 121.173 33.564 119.534 29.9294C119.33 29.4516 118.937 28.5813 118.681 27.967C117.828 25.9876 117.026 24.1617 116.446 22.8307C116.122 22.114 115.866 21.4827 115.866 21.4315C115.866 21.3803 115.507 20.5953 115.081 19.6739C114.176 17.7115 114.347 18.0869 112.794 14.4864C112.129 12.9336 111.429 11.3637 111.275 10.9883C111.105 10.6129 110.252 8.68466 109.398 6.72229C106.651 0.442731 106.651 0.442731 105.986 1.51776ZM101.464 21.2608C101.6 21.6192 101.788 22.0629 101.873 22.2506C101.958 22.4383 102.266 23.172 102.556 23.8716C102.846 24.5713 103.187 25.3733 103.307 25.6634C103.443 25.9364 103.87 26.9432 104.262 27.8817C104.672 28.8202 105.286 30.2706 105.644 31.1068C106.02 31.9429 106.31 32.7449 106.31 32.8644C106.31 32.9838 106.395 33.0862 106.48 33.0862C106.583 33.0862 106.651 33.1715 106.651 33.2568C106.651 33.4787 108.033 36.7038 108.596 37.83C108.818 38.2737 109.057 38.9392 109.125 39.2805L109.245 39.9118H100.866C91.4641 39.9118 92.1979 40.0313 92.8463 38.5808C93.034 38.1372 93.4947 37.1304 93.8531 36.3284C94.2114 35.5264 95.0476 33.6323 95.7131 32.0965C96.3956 30.5607 97.1635 28.8373 97.4195 28.2571C97.8973 27.2332 100.099 22.3188 100.593 21.1755C100.918 20.4588 101.156 20.4759 101.464 21.2608Z" fill="white"/>
<path d="M273.23 6.82477C273.094 7.02954 272.582 8.12164 272.087 9.26493C269.135 15.9711 265.261 24.4349 264.63 25.5269C263.862 26.8579 263.384 27.3187 262.531 27.5234C261.917 27.677 261.558 27.95 261.695 28.1548C261.814 28.3596 268.759 28.3596 268.759 28.1548C268.759 28.0695 268.145 27.7965 267.377 27.5405C266.626 27.2845 265.961 26.9774 265.927 26.8579C265.807 26.5679 266.2 25.2881 266.933 23.5987C267.957 21.2268 267.309 21.4828 272.445 21.4828C275.807 21.4828 276.95 21.534 277.087 21.6875C277.172 21.807 277.598 22.7284 278.042 23.7182C279.254 26.5337 279.134 27.1651 277.274 27.6429C276.814 27.7623 276.438 27.9671 276.438 28.0866C276.438 28.2743 277.974 28.3084 284.526 28.3084C292.291 28.3084 293.809 28.206 292.188 27.8306C291.83 27.7453 291.164 27.5917 290.687 27.4722C289.236 27.1139 289.321 27.6941 289.27 19.2474C289.236 14.5207 289.287 11.7392 289.39 11.7904C289.475 11.8075 290.499 12.9166 291.659 14.2476C296.215 19.4522 298.092 21.6193 299.065 22.7626C300.584 24.5884 304.287 28.735 304.457 28.7862C304.525 28.8203 304.594 24.469 304.594 19.0938C304.594 10.7324 304.628 9.28199 304.85 8.85539C305.174 8.22402 305.481 8.07045 306.659 7.91687C307.187 7.84862 307.716 7.72917 307.853 7.64385C308.433 7.26844 307.443 7.14899 303.775 7.14899C300.242 7.14899 299.969 7.16605 300.021 7.43908C300.055 7.66091 300.311 7.78036 300.925 7.86568C302.751 8.12164 302.836 8.15577 303.075 8.73594C303.263 9.16255 303.314 10.7666 303.314 16.0223C303.314 22.08 303.28 22.7626 303.041 22.8138C302.87 22.8479 302.137 22.1141 300.993 20.7661C300.021 19.6057 298.69 18.0529 298.024 17.3021C297.359 16.5513 296.335 15.3568 295.755 14.6572C295.174 13.9575 293.536 11.9952 292.103 10.3058L289.475 7.23431L287.018 7.18312C284.424 7.13193 283.025 7.23431 283.178 7.49027C283.23 7.57559 283.81 7.7633 284.475 7.91687C285.926 8.24109 286.369 8.46292 287.24 9.26493L287.905 9.86217L287.837 18.1212C287.786 27.3357 287.82 27.0456 286.574 27.4552C285.806 27.7111 284.356 27.5917 283.622 27.1992C282.53 26.6361 282.223 26.0218 277.65 15.2544C276.131 11.688 274.681 8.27522 274.407 7.66091C273.896 6.46643 273.588 6.2446 273.23 6.82477ZM272.94 11.7563C273.23 12.3023 276.779 20.6125 276.779 20.732C276.779 20.7661 274.868 20.8002 272.513 20.8002C270.056 20.8002 268.247 20.732 268.247 20.6466C268.247 20.5613 268.623 19.6911 269.084 18.7184C270.022 16.7219 271.66 13.019 271.66 12.8996C271.66 12.6436 272.377 11.2444 272.513 11.2444C272.599 11.2444 272.786 11.4662 272.94 11.7563Z" fill="white"/>
<path d="M224.29 7.42198C224.342 7.57556 224.393 7.72913 224.393 7.76326C224.393 7.79739 224.751 7.83152 225.212 7.84858C226.321 7.84858 227.157 8.1728 227.413 8.68472C227.584 9.00894 227.635 11.159 227.635 17.831V26.5678L227.038 27.0968C226.577 27.4893 226.253 27.6258 225.707 27.6429C225.314 27.6599 224.922 27.677 224.819 27.7111C224.734 27.7282 224.546 27.7623 224.444 27.7623C224.325 27.7794 224.222 27.9159 224.222 28.0524C224.222 28.2742 225.331 28.3083 233.181 28.3083H242.139L242.242 27.8306C242.293 27.5746 242.651 26.4313 243.044 25.288C243.419 24.1447 243.692 23.155 243.624 23.0868C243.385 22.8479 243.01 23.2233 242.6 24.1106C242.344 24.6737 241.73 25.5098 241.081 26.1583C240.058 27.1821 239.938 27.2504 238.88 27.4381C237.413 27.677 232.225 27.677 231.679 27.4381C230.792 27.0285 230.792 27.0115 230.792 17.9164C230.792 13.2579 230.843 9.24783 230.928 8.99187C231.099 8.37757 231.491 8.18986 233.232 7.89977C234.785 7.64381 234.904 7.60969 234.717 7.33666C234.648 7.20015 232.908 7.14896 229.393 7.14896C224.717 7.14896 224.188 7.18309 224.29 7.42198Z" fill="white"/>
<path d="M243.539 7.43905C243.59 7.67794 243.829 7.76326 244.733 7.84858C245.348 7.89977 246.064 8.07042 246.303 8.22399L246.747 8.51408V17.4898C246.747 23.5816 246.696 26.5678 246.559 26.8067C246.32 27.2674 245.399 27.6258 244.477 27.6258C243.761 27.6258 243.197 27.95 243.453 28.1889C243.505 28.2572 247.498 28.3083 252.327 28.3083C259.186 28.3083 261.098 28.2572 261.149 28.0865C261.234 27.8306 262.719 23.7181 262.872 23.3086C262.958 23.0868 262.906 23.0185 262.65 23.0185C262.395 23.0185 262.139 23.3086 261.729 24.0765C261.422 24.6566 260.722 25.6122 260.176 26.1924C259.255 27.1821 259.135 27.2674 258.111 27.4381C257.531 27.5405 255.62 27.6258 253.862 27.6258C249.579 27.6258 249.818 27.9329 249.818 22.5066C249.818 20.6466 249.87 18.889 249.921 18.5989L250.04 18.0699H253.265C256.098 18.0699 256.559 18.1041 257.122 18.3942C257.787 18.7354 258.18 19.3327 258.18 19.9982C258.18 20.4077 258.453 20.9196 258.589 20.7831C258.726 20.6637 258.811 14.6742 258.675 14.7424C258.623 14.7936 258.402 15.2714 258.214 15.8175C257.873 16.7389 257.787 16.8243 257.019 17.0973C256.337 17.3532 255.688 17.3874 253.06 17.3532L249.904 17.3021L249.852 13.292C249.818 11.0907 249.852 8.95774 249.904 8.54821L250.006 7.83152H253.811C256.746 7.83152 257.804 7.89977 258.504 8.10454C259.357 8.34344 259.425 8.4117 259.903 9.41847C260.21 10.0669 260.398 10.7495 260.398 11.1931C260.398 11.8757 260.432 11.9269 260.842 11.9269C261.234 11.9269 261.268 11.8757 261.183 11.4491C261.132 11.1931 261.046 10.1181 260.978 9.06013L260.859 7.14896H252.173C243.982 7.14896 243.488 7.16602 243.539 7.43905Z" fill="white"/>
<path d="M197.039 34.5709C196.783 34.8268 197.346 35.134 198.097 35.134C198.524 35.151 199.258 35.2876 199.718 35.4411C201.135 35.936 201.083 35.5264 201.083 47.1641C201.1 56.4128 201.066 57.2831 200.793 57.7779C200.401 58.5117 199.633 58.8871 198.285 59.0066C197.415 59.0919 197.176 59.1772 197.125 59.399C197.073 59.6891 197.432 59.7062 202.96 59.7062C206.936 59.7062 208.882 59.655 208.95 59.5185C209.138 59.2454 209.001 59.1943 207.772 59.0748C206.459 58.9554 205.742 58.5629 205.213 57.6756C204.906 57.1636 204.872 56.6858 204.803 53.3754C204.752 51.3448 204.786 49.3142 204.837 48.8876L204.957 48.1026H206.527H208.097L209.667 50.0991C211.492 52.454 214.735 56.4981 216.304 58.3752L217.397 59.7062H220.98C223.045 59.7062 224.581 59.6379 224.649 59.5526C224.785 59.3137 224.205 59.0407 223.113 58.8359C222.601 58.7506 221.816 58.5117 221.373 58.3069C220.451 57.9145 218.455 56.0545 217.362 54.587C216.97 54.075 216.253 53.1877 215.776 52.6246C215.298 52.0615 214.496 51.0547 213.984 50.4063C213.472 49.7408 212.721 48.8364 212.329 48.3586C211.919 47.8979 211.595 47.4201 211.595 47.3177C211.595 47.2153 212.038 47.0617 212.585 46.9593C213.847 46.7205 215.673 45.8331 216.629 44.997C217.038 44.6386 217.618 43.9049 217.926 43.3759C218.42 42.5056 218.472 42.2838 218.489 40.9528C218.489 39.1952 218.182 38.4103 216.902 37.0451C215.827 35.9019 213.898 34.9463 212.482 34.878C211.953 34.8439 211.236 34.7415 210.912 34.6391C210.264 34.4344 197.227 34.3661 197.039 34.5709ZM211.066 36.2943C212.312 36.9428 213.114 37.7106 213.591 38.7004C214.001 39.5194 214.069 39.8436 214.052 41.1917C214.052 42.9322 213.864 43.41 212.738 44.6557C211.458 46.0379 208.967 46.8228 206.22 46.7034L204.855 46.6522V41.6695C204.855 38.0519 204.906 36.6356 205.059 36.482C205.469 36.0725 206.902 35.8165 208.609 35.8677C209.991 35.9019 210.452 35.9872 211.066 36.2943Z" fill="white"/>
<path d="M232.003 38.1201C231.628 38.2566 231.27 38.3249 231.184 38.2737C230.98 38.1542 228.659 39.2634 227.533 40.0313C224.802 41.8913 223.181 44.8775 222.908 48.5462C222.669 51.959 224.512 56.1909 227.089 58.085C228.881 59.416 231.73 60.3887 233.829 60.3887C236.065 60.3887 238.675 59.5184 240.433 58.1703C241.576 57.3001 243.129 55.4913 243.692 54.3821C244.153 53.4777 244.307 52.9317 244.904 50.1673C245.279 48.3756 244.563 45.1846 243.3 43.1028C241.883 40.7309 239.955 39.2975 237.02 38.3761C235.194 37.7959 233.181 37.6935 232.003 38.1201ZM236.815 39.144C238.727 40.0142 239.904 41.6524 240.74 44.6556C241.15 46.1573 241.184 46.5668 241.184 49.2971C241.184 51.8737 241.133 52.488 240.791 53.7337C240.058 56.4639 238.744 58.2045 236.713 59.1601C235.843 59.5696 235.536 59.6208 233.863 59.6208C232.157 59.6208 231.901 59.5696 231.031 59.1601C229.256 58.2898 227.976 56.5322 227.157 53.8361C226.799 52.6757 226.731 52.0102 226.662 49.553C226.594 46.9934 226.628 46.4644 226.935 45.1164C227.584 42.3861 228.676 40.5432 230.212 39.5535C231.44 38.7686 232.396 38.5467 234.205 38.5979C235.467 38.6491 235.945 38.7344 236.815 39.144Z" fill="white"/>
<path d="M254.852 37.9836C254.664 38.0348 254.426 38.1543 254.306 38.2396C254.187 38.3249 253.965 38.359 253.777 38.3078C253.351 38.1713 250.654 39.5023 249.409 40.492C246.883 42.4715 245.552 45.4406 245.552 49.1606C245.552 54.6552 248.675 58.7335 253.862 60.0474C258.709 61.276 263.913 58.8359 266.285 54.2456C266.882 53.0853 267.394 50.6793 267.394 48.9387C267.394 43.6659 264.254 39.5876 259.135 38.2055C257.924 37.8812 255.739 37.7618 254.852 37.9836ZM259.425 39.1269C260.534 39.6559 261.729 40.8845 262.343 42.1131C262.599 42.5909 263.009 43.7342 263.265 44.6557C263.674 46.1573 263.708 46.5668 263.708 49.2971C263.708 51.8737 263.657 52.4881 263.316 53.7337C262.582 56.464 261.268 58.2045 259.238 59.1601C258.367 59.5696 258.06 59.6208 256.303 59.6208C254.408 59.6208 254.306 59.6038 253.402 59.0748C251.627 58.0509 250.381 56.2763 249.631 53.7337C249.102 51.9079 248.965 47.3347 249.392 45.4235C249.955 42.8469 251.2 40.6286 252.634 39.5876C253.709 38.8198 254.886 38.5297 256.849 38.5979C258.214 38.6491 258.657 38.7344 259.425 39.1269Z" fill="white"/>
<path d="M267.411 38.7004C267.019 38.9563 267.343 39.1782 268.23 39.2976C269.63 39.4853 270.09 39.7071 270.278 40.3044C270.398 40.6627 270.483 43.922 270.5 49.2118C270.517 56.6517 270.483 57.6244 270.244 58.1022C269.937 58.6994 269.237 59.0236 268.265 59.0236C267.514 59.0236 267.07 59.2796 267.326 59.5355C267.582 59.7915 275.107 59.6891 275.193 59.4332C275.227 59.3137 274.749 59.1601 273.964 59.0407C272.548 58.8018 272.104 58.5117 271.933 57.6244C271.746 56.7029 271.814 42.0961 272.002 42.1644C272.138 42.1985 278.281 54.5187 280.482 59.1601C280.636 59.4673 280.841 59.6891 280.943 59.672C281.233 59.5867 288.912 44.0585 289.475 42.4203C289.526 42.2497 289.646 42.1644 289.748 42.2156C289.987 42.3521 289.97 57.1807 289.748 58.0339C289.543 58.7165 289.475 58.7677 287.888 59.0066C286.711 59.1943 286.591 59.2454 286.762 59.5185C286.83 59.6379 288.434 59.7062 291.642 59.7062C295.584 59.7062 296.403 59.672 296.403 59.4673C296.403 59.1943 295.891 59.0236 295.072 59.0236C294.202 59.0236 293.383 58.5629 293.178 57.9656C292.905 57.1978 292.922 41.0552 293.195 40.3214C293.417 39.673 293.792 39.4682 295.072 39.3147C296.096 39.1782 296.557 38.9904 296.335 38.7686C296.267 38.7004 294.867 38.615 293.229 38.5809L290.26 38.5127L287.171 44.8093C285.465 48.2562 283.622 52.0274 283.076 53.1707C282.53 54.331 282.018 55.2695 281.95 55.2695C281.865 55.2695 280.056 51.669 277.906 47.2836C275.756 42.8981 273.896 39.144 273.759 38.9222C273.537 38.5638 273.452 38.5468 270.585 38.5468C268.981 38.5468 267.548 38.615 267.411 38.7004Z" fill="white"/>
</svg>
