<svg width="24" height="24" viewBox="0 0 24 24" fill="none" xmlns="http://www.w3.org/2000/svg">
<path d="M11.3614 15.3725C11.6985 15.3725 12.0215 15.076 12.0059 14.728C11.9902 14.3787 11.7227 14.0834 11.3614 14.0834C11.0242 14.0834 10.7012 14.3799 10.7168 14.728C10.7325 15.0772 11 15.3725 11.3614 15.3725ZM9.29366 13.5375C9.63079 13.5375 9.95379 13.2411 9.93819 12.893C9.92255 12.5438 9.65498 12.2485 9.29366 12.2485C8.95652 12.2485 8.63353 12.5449 8.64913 12.893C8.66477 13.2422 8.93229 13.5375 9.29366 13.5375ZM13.5626 10.2226C13.8998 10.2226 14.2228 9.92616 14.2072 9.57807C14.1915 9.22886 13.924 8.93354 13.5626 8.93354C13.2255 8.93354 12.9025 9.22998 12.9181 9.57807C12.9338 9.92727 13.2013 10.2226 13.5626 10.2226Z" fill="#01AFD2"/>
<path d="M19.7782 4.2218C17.7005 2.14421 14.9382 1 12 1C9.0618 1 6.29947 2.14421 4.2218 4.2218C2.14421 6.29947 1 9.0618 1 12C1 14.9382 2.14421 17.7005 4.2218 19.7782C6.29947 21.8558 9.0618 23 12 23C14.9382 23 17.7005 21.8558 19.7782 19.7782C21.8558 17.7005 23 14.9382 23 12C23 9.0618 21.8558 6.29947 19.7782 4.2218ZM2.28906 12C2.28906 9.55413 3.19837 7.31688 4.69617 5.60763L7.24753 8.15898C6.52423 9.05217 6.04707 10.1523 5.92039 11.3555H4.59541C4.23946 11.3555 3.95088 11.644 3.95088 12C3.95088 12.356 4.23946 12.6445 4.59541 12.6445H5.92039C6.04707 13.8477 6.52423 14.9478 7.24753 15.841L6.30845 16.7801C6.05673 17.0318 6.05673 17.4399 6.30845 17.6916C6.4343 17.8175 6.59926 17.8804 6.76417 17.8804C6.92909 17.8804 7.09409 17.8175 7.2199 17.6916L8.15898 16.7525C9.05217 17.4758 10.1523 17.953 11.3554 18.0796V19.4046C11.3554 19.7605 11.644 20.0491 12 20.0491C12.3559 20.0491 12.6445 19.7605 12.6445 19.4046V18.0796C13.8477 17.9529 14.9478 17.4758 15.841 16.7525L18.3923 19.3038C16.6831 20.8016 14.4459 21.7109 12 21.7109C6.64536 21.7109 2.28906 17.3546 2.28906 12ZM12 7.17551C14.6602 7.17551 16.8245 9.33976 16.8245 12C16.8245 13.0982 16.4553 14.1117 15.835 14.9236L9.07645 8.16495C9.88826 7.54461 10.9018 7.17551 12 7.17551ZM14.9236 15.835C14.1117 16.4554 13.0982 16.8245 12 16.8245C9.33976 16.8245 7.17551 14.6603 7.17551 12C7.17551 10.9018 7.54466 9.8883 8.165 9.07649L14.9236 15.835ZM19.3038 18.3924L16.7525 15.841C17.4758 14.9478 17.9529 13.8477 18.0796 12.6446H19.4046C19.7605 12.6446 20.0491 12.356 20.0491 12C20.0491 11.6441 19.7605 11.3555 19.4046 11.3555H18.0796C17.9529 10.1523 17.4758 9.05222 16.7525 8.15902L17.6916 7.21994C17.9433 6.96827 17.9433 6.56016 17.6916 6.30845C17.4399 6.05678 17.0318 6.05678 16.7801 6.30845L15.841 7.24753C14.9478 6.52423 13.8477 6.04707 12.6445 5.92044V4.59541C12.6445 4.23946 12.356 3.95088 12 3.95088C11.644 3.95088 11.3555 4.23946 11.3555 4.59541V5.92039C10.1523 6.04702 9.05222 6.52423 8.15902 7.24748L5.60767 4.69613C7.31692 3.19832 9.55413 2.28906 12 2.28906C17.3546 2.28906 21.7109 6.64536 21.7109 12C21.7109 14.4459 20.8016 16.6831 19.3038 18.3924Z" fill="#01AFD2"/>
</svg>
