<svg width="24" height="24" viewBox="0 0 24 24" fill="none" xmlns="http://www.w3.org/2000/svg">
<path d="M12.25 13.5703H11.5V12.7847C11.5 12.5763 11.421 12.3765 11.2803 12.2291C11.1397 12.0818 10.9489 11.999 10.75 11.999C10.5511 11.999 10.3603 12.0818 10.2197 12.2291C10.079 12.3765 10 12.5763 10 12.7847V13.5703H9.25C9.05109 13.5703 8.86032 13.6531 8.71967 13.8004C8.57902 13.9477 8.5 14.1476 8.5 14.3559C8.5 14.5643 8.57902 14.7641 8.71967 14.9115C8.86032 15.0588 9.05109 15.1416 9.25 15.1416H10V15.9272C10 16.1356 10.079 16.3354 10.2197 16.4828C10.3603 16.6301 10.5511 16.7129 10.75 16.7129C10.9489 16.7129 11.1397 16.6301 11.2803 16.4828C11.421 16.3354 11.5 16.1356 11.5 15.9272V15.1416H12.25C12.4489 15.1416 12.6397 15.0588 12.7803 14.9115C12.921 14.7641 13 14.5643 13 14.3559C13 14.1476 12.921 13.9477 12.7803 13.8004C12.6397 13.6531 12.4489 13.5703 12.25 13.5703Z" fill="#01AFD2"/>
<path d="M11.5 21.4267H7C6.60217 21.4267 6.22064 21.2612 5.93934 20.9665C5.65804 20.6718 5.5 20.2722 5.5 19.8554H10.75C10.9489 19.8554 11.1397 19.7727 11.2803 19.6253C11.421 19.478 11.5 19.2782 11.5 19.0698C11.5 18.8614 11.421 18.6616 11.2803 18.5143C11.1397 18.3669 10.9489 18.2842 10.75 18.2842H5.5V10.4277H16V11.999C16 12.2074 16.079 12.4072 16.2197 12.5545C16.3603 12.7019 16.5511 12.7847 16.75 12.7847C16.9489 12.7847 17.1397 12.7019 17.2803 12.5545C17.421 12.4072 17.5 12.2074 17.5 11.999V9.64208C17.4981 9.09232 17.3586 8.55269 17.0954 8.07707C16.8322 7.60145 16.4545 7.20649 16 6.93161V6.49951C16.3978 6.49951 16.7794 6.33396 17.0607 6.03929C17.342 5.74461 17.5 5.34495 17.5 4.92822V2.57129C17.5 2.15456 17.342 1.75489 17.0607 1.46022C16.7794 1.16555 16.3978 1 16 1H5.5C5.10218 1 4.72064 1.16555 4.43934 1.46022C4.15804 1.75489 4 2.15456 4 2.57129V4.92822C4 5.34495 4.15804 5.74461 4.43934 6.03929C4.72064 6.33396 5.10218 6.49951 5.5 6.49951V6.93161C5.04549 7.20649 4.66777 7.60145 4.40456 8.07707C4.14135 8.55269 4.00185 9.09232 4 9.64208V19.8554C4 20.6889 4.31607 21.4882 4.87868 22.0776C5.44129 22.6669 6.20435 22.998 7 22.998H11.5C11.6989 22.998 11.8897 22.9152 12.0303 22.7679C12.171 22.6206 12.25 22.4207 12.25 22.2124C12.25 22.004 12.171 21.8042 12.0303 21.6568C11.8897 21.5095 11.6989 21.4267 11.5 21.4267ZM5.5 2.57129H16V4.92822H5.5V2.57129ZM14.5 6.49951V7.42657C14.491 7.59691 14.5351 7.76572 14.6258 7.90746C14.7164 8.0492 14.8487 8.15617 15.0025 8.21221C15.3194 8.34412 15.5839 8.5852 15.7525 8.89572H5.725C5.89356 8.5852 6.1581 8.34412 6.475 8.21221C6.62884 8.15617 6.76108 8.0492 6.85173 7.90746C6.94239 7.76572 6.98654 7.59691 6.9775 7.42657V6.49951H14.5Z" fill="#01AFD2"/>
<path d="M22 16.5793C22.0005 15.9838 21.8323 15.4015 21.5167 14.9061C21.2011 14.4108 20.7523 14.0247 20.2271 13.7967C19.7019 13.5687 19.1239 13.5091 18.5664 13.6255C18.0088 13.7418 17.4967 14.0288 17.095 14.4502L13.84 17.8599C13.3009 18.4246 12.9981 19.1904 12.9981 19.989C12.9981 20.7876 13.3009 21.5534 13.84 22.1181C14.3791 22.6828 15.1102 23 15.8725 23C16.6348 23 17.3659 22.6828 17.905 22.1181L21.16 18.7084C21.6978 18.143 21.9999 17.3775 22 16.5793ZM16.84 21.0025C16.6495 21.2062 16.4052 21.3455 16.1385 21.4027C15.8719 21.4599 15.5949 21.4322 15.3434 21.3232C15.0918 21.2143 14.8771 21.029 14.7268 20.7913C14.5765 20.5535 14.4976 20.2741 14.5 19.989C14.4987 19.8002 14.5339 19.613 14.6035 19.4389C14.6731 19.2647 14.7757 19.1071 14.905 18.9755L16 17.8206L17.9425 19.8554L16.84 21.0025ZM20.095 17.5928L19 18.7477L17.0575 16.7129L18.16 15.5658C18.3505 15.3621 18.5948 15.2228 18.8615 15.1656C19.1281 15.1085 19.4051 15.1361 19.6566 15.2451C19.9082 15.354 20.1229 15.5393 20.2732 15.777C20.4234 16.0148 20.5024 16.2942 20.5 16.5793C20.5013 16.7681 20.4661 16.9553 20.3965 17.1295C20.3269 17.3036 20.2243 17.4613 20.095 17.5928Z" fill="#01AFD2"/>
</svg>
