<svg width="52" height="52" viewBox="0 0 52 52" fill="none" xmlns="http://www.w3.org/2000/svg">
<g clip-path="url(#clip0_3025_11921)">
<path d="M26 35.7852C20.6042 35.7852 16.2144 31.3953 16.2144 25.9995C16.2144 20.6037 20.6042 16.2139 26 16.2139C31.3958 16.2139 35.7857 20.6037 35.7857 25.9995C35.7857 31.3953 31.3958 35.7852 26 35.7852Z" class="blue"/>
<path d="M1.81299 39.2277L5.67277 40.5472L6.99237 36.6875" class="accent" stroke-width="2" stroke-miterlimit="10" stroke-linecap="round" stroke-linejoin="round"/>
<path d="M5.68516 40.547C2.74615 36.4496 1.01562 31.4272 1.01562 26C1.01562 12.2015 12.2015 1.01562 26 1.01562C31.4272 1.01562 36.4496 2.74615 40.547 5.68516M50.1872 12.7725L46.3274 11.453L45.0078 15.3127" class="accent" stroke-width="2" stroke-miterlimit="10" stroke-linecap="round" stroke-linejoin="round"/>
<path d="M46.315 11.4531C49.254 15.5506 50.9845 20.5729 50.9845 26.0001C50.9845 39.7986 39.7986 50.9845 26.0001 50.9845C20.5729 50.9845 15.5506 49.254 11.4531 46.315" class="accent" stroke-width="2" stroke-miterlimit="10" stroke-linecap="round" stroke-linejoin="round"/>
<path d="M43.3363 29.587V22.4134H38.6565C38.3777 21.4291 37.9843 20.4809 37.4845 19.5883L40.7949 16.2779L35.7224 11.2055L32.412 14.5159C31.5195 14.016 30.5713 13.6226 29.5871 13.3439V8.66406H22.4135V13.3439C21.4292 13.6226 20.4811 14.016 19.5885 14.5159L16.2781 11.2055L11.2057 16.2779L14.5161 19.5883C14.0162 20.4809 13.6228 21.4291 13.3441 22.4134H8.66406V29.587H13.3439C13.6226 30.5712 14.016 31.5194 14.5159 32.4119L11.2055 35.7223L16.2779 40.7948L19.5883 37.4844C20.4809 37.9843 21.4291 38.3776 22.4134 38.6564V43.3362H29.587V38.6564C30.5712 38.3776 31.5194 37.9843 32.4119 37.4844L35.7223 40.7948L40.7948 35.7223L37.4844 32.4119C37.9842 31.5194 38.3776 30.5712 38.6564 29.587H43.3363Z" class="accent" stroke-width="2" stroke-miterlimit="10" stroke-linecap="round" stroke-linejoin="round"/>
<path d="M26 21.4111V26.0001H29.5692" class="accent" stroke-width="2" stroke-miterlimit="10" stroke-linecap="round" stroke-linejoin="round"/>
</g>
<defs>
<clipPath id="clip0_3025_11921">
<rect width="52" height="52" fill="white"/>
</clipPath>
</defs>
</svg>
