<svg width="52" height="52" viewBox="0 0 52 52" fill="none" xmlns="http://www.w3.org/2000/svg">
<path fill-rule="evenodd" clip-rule="evenodd" d="M16 41H24V32H16V41Z" fill="#E6EEFF"/>
<path d="M6 2.0001H40.1107C42.2535 1.98476 44 3.76605 44 5.9345L43.9999 44" class="accent" stroke-width="2" stroke-miterlimit="22.926" stroke-linecap="round" stroke-linejoin="round"/>
<path d="M13.7073 50H46.0976C48.2529 50 50 48.2528 50 46.0976V44.1464H17.6097V46.0976C17.6097 48.2528 15.8625 50 13.7073 50ZM13.7073 50C11.552 50 9.80486 48.2528 9.80486 46.0976V5.90243C9.80486 3.74712 8.05774 2 5.90243 2C3.74722 2 2 3.74712 2 5.90243V7.85355H9.31706" class="accent" stroke-width="2" stroke-miterlimit="22.926" stroke-linecap="round" stroke-linejoin="round"/>
<path d="M20 36C21.8121 36 21.938 34 23.75 34C25.562 34 25.688 36 27.5 36C29.3121 36 29.438 34 31.25 34C33.062 34 33.188 36 35 36" class="accent" stroke-width="2" stroke-miterlimit="22.926" stroke-linecap="round" stroke-linejoin="round"/>
<path d="M23 8H31" class="accent" stroke-width="2" stroke-miterlimit="22.926" stroke-linecap="round" stroke-linejoin="round"/>
<path d="M16 13H39" class="accent" stroke-width="2" stroke-miterlimit="22.926" stroke-linecap="round" stroke-linejoin="round"/>
<path d="M16 18H39" class="accent" stroke-width="2" stroke-miterlimit="22.926" stroke-linecap="round" stroke-linejoin="round"/>
<path d="M16 22H39" class="accent" stroke-width="2" stroke-miterlimit="22.926" stroke-linecap="round" stroke-linejoin="round"/>
<path d="M16 25H27" class="accent" stroke-width="2" stroke-miterlimit="22.926" stroke-linecap="round" stroke-linejoin="round"/>
<path fill-rule="evenodd" clip-rule="evenodd" d="M49.9279 9.73217L44.0572 32.3696L40.9415 36L40 31.2463L45.8705 8.60889C46.1708 7.45128 47.3225 6.76431 48.4428 7.07447C49.5633 7.38464 50.2282 8.57456 49.9279 9.73217Z" fill="#E6EEFF" class="accent" stroke-width="2"/>
</svg>
