<svg width="52" height="52" viewBox="0 0 52 52" fill="none" xmlns="http://www.w3.org/2000/svg">
<g clip-path="url(#clip0_3025_1869)">
<path d="M39.7666 18.332V28.5297H50.9841L46.905 18.332H39.7666Z" class="blue"/>
<path d="M17.3318 27.5102C21.2742 27.5102 24.4702 24.3143 24.4702 20.3718C24.4702 16.4294 21.2742 13.2334 17.3318 13.2334C13.3893 13.2334 10.1934 16.4294 10.1934 20.3718C10.1934 24.3143 13.3893 27.5102 17.3318 27.5102Z" class="blue"/>
<path d="M9.68408 41.2725C10.245 41.2725 10.6997 40.8178 10.6997 40.2568C10.6997 39.6959 10.245 39.2412 9.68408 39.2412C9.12317 39.2412 8.66846 39.6959 8.66846 40.2568C8.66846 40.8178 9.12317 41.2725 9.68408 41.2725Z" class="accent-fill"/>
<path d="M17.332 21.3875H20.3913C20.9521 21.3875 21.4069 20.9328 21.4069 20.3719C21.4069 19.8109 20.9521 19.3562 20.3913 19.3562H18.3477V17.3125C18.3477 16.7516 17.8929 16.2969 17.332 16.2969C16.7712 16.2969 16.3164 16.7516 16.3164 17.3125V20.3719C16.3164 20.9328 16.7712 21.3875 17.332 21.3875Z" class="accent-fill"/>
<path d="M51.9274 28.1528L48.0478 18.454C48.5992 17.9023 48.9407 17.1408 48.9407 16.301V16.2844C48.9407 14.6043 47.5739 13.2375 45.8939 13.2375H36.7035V11.1939C36.7035 9.50926 35.3329 8.13867 33.6483 8.13867H3.0552C1.37059 8.13877 0 9.50926 0 11.1939V36.6881C0 38.3727 1.37059 39.7433 3.0552 39.7433H4.10363C3.80027 43.0654 6.4285 45.8619 9.68368 45.8619C12.9436 45.8619 15.5667 43.0604 15.2637 39.7433H36.7364C36.433 43.0654 39.0612 45.8619 42.3164 45.8619C45.5764 45.8619 48.1994 43.0604 47.8965 39.7433H48.9449C50.6295 39.7433 52.0001 38.3727 52.0001 36.6881V28.5299C52 28.4007 51.9753 28.2727 51.9274 28.1528ZM45.8939 15.2689C46.4539 15.2689 46.9095 15.7245 46.9095 16.2845V16.3011C46.9095 16.8663 46.4468 17.3167 45.8939 17.3167H36.7035V15.2689H45.8939ZM3.0552 10.17H33.6483C34.213 10.17 34.6722 10.6293 34.6722 11.194V30.5737H2.03125V11.1939C2.03125 10.6293 2.49052 10.17 3.0552 10.17ZM9.68368 43.8307C7.71337 43.8307 6.1103 42.2277 6.1103 40.2573C6.1103 38.287 7.71327 36.6839 9.68368 36.6839C11.6541 36.6839 13.2571 38.2869 13.2571 40.2573C13.257 42.2277 11.654 43.8307 9.68368 43.8307ZM9.68368 34.6528C7.50943 34.6528 5.62189 35.898 4.6929 37.712H3.0552C2.49052 37.712 2.03125 37.2528 2.03125 36.6881V32.6049H34.6722V37.712H14.6744C13.7455 35.898 11.8578 34.6528 9.68368 34.6528ZM42.3163 43.8307C40.346 43.8307 38.7429 42.2277 38.7429 40.2573C38.7429 38.287 40.3459 36.6839 42.3163 36.6839C44.2866 36.6839 45.8897 38.2869 45.8897 40.2573C45.8897 42.2277 44.2867 43.8307 42.3163 43.8307ZM49.9688 36.6882C49.9688 37.2528 49.5095 37.7121 48.9448 37.7121H47.3071C46.3781 35.8981 44.4906 34.6529 42.3164 34.6529C40.1422 34.6529 38.2546 35.8981 37.3257 37.7121H36.7036V19.3479C46.3879 19.342 45.9182 19.3618 46.2112 19.3314L49.9688 28.7256V36.6882Z" class="accent-fill"/>
<path d="M42.3159 41.2725C42.8768 41.2725 43.3315 40.8178 43.3315 40.2568C43.3315 39.6959 42.8768 39.2412 42.3159 39.2412C41.755 39.2412 41.3003 39.6959 41.3003 40.2568C41.3003 40.8178 41.755 41.2725 42.3159 41.2725Z" class="accent-fill"/>
</g>
<defs>
<clipPath id="clip0_3025_1869">
<rect width="52" height="52" fill="white"/>
</clipPath>
</defs>
</svg>
