<svg width="24" height="24" viewBox="0 0 24 24" fill="none" xmlns="http://www.w3.org/2000/svg">
<path d="M1.05718 15.8819C1.1351 16.0771 1.28666 16.233 1.47853 16.3155C1.67039 16.3979 1.88685 16.4001 2.0803 16.3215L4.46625 15.3494L5.81494 20.4208L3.77893 21.5039C3.59435 21.6021 3.45598 21.7702 3.39426 21.9713C3.3637 22.0709 3.35288 22.1756 3.36241 22.2794C3.37194 22.3832 3.40164 22.4841 3.44982 22.5763C3.498 22.6685 3.5637 22.7503 3.64319 22.8169C3.72267 22.8835 3.81438 22.9336 3.91307 22.9645C4.11239 23.0268 4.32807 23.0066 4.51265 22.9084L7.10464 21.5293C7.42943 21.3563 7.593 20.9794 7.49784 20.6215L7.40033 20.2533L9.3168 19.3106L12.5049 20.2136C13.488 20.4941 14.5408 20.3753 15.4382 19.8828L21.9276 16.3358C22.3493 16.1343 22.6814 15.7813 22.8589 15.346C23.0365 14.9106 23.0468 14.424 22.8878 13.9814C22.7258 13.533 22.403 13.1622 21.9833 12.9421C21.5636 12.7221 21.0774 12.6688 20.6206 12.7927L16.8309 13.8418C16.6703 13.4993 16.417 13.2097 16.1001 13.0065C15.7832 12.8033 15.4157 12.6948 15.0403 12.6936H10.1795C9.23659 12.6936 8.29211 12.9181 7.44673 13.3442L5.78427 14.183L5.75517 14.0727C5.72639 13.9641 5.67511 13.863 5.6047 13.776C5.53429 13.6889 5.44637 13.618 5.34675 13.5678C5.24713 13.5176 5.13809 13.4893 5.02683 13.4849C4.91558 13.4804 4.80465 13.4998 4.70139 13.5418L1.49128 14.8479C1.29802 14.9272 1.1438 15.0805 1.06242 15.2744C0.981048 15.4682 0.979164 15.6867 1.05718 15.8819ZM8.15056 14.7638C8.78091 14.4471 9.4753 14.2817 10.1795 14.2806H15.0403C15.1452 14.2842 15.245 14.3278 15.3195 14.4025C15.394 14.4771 15.4379 14.5775 15.4422 14.6834C15.4466 14.7893 15.4112 14.8929 15.3431 14.9736C15.275 15.0543 15.1792 15.106 15.0749 15.1185L12.1848 15.3613C12.0795 15.3667 11.9763 15.3933 11.8814 15.4397C11.7865 15.4861 11.7018 15.5512 11.6323 15.6313C11.5629 15.7114 11.5101 15.8048 11.4771 15.9059C11.4442 16.007 11.4317 16.1137 11.4405 16.2197C11.4492 16.3258 11.479 16.429 11.5281 16.5232C11.5772 16.6174 11.6446 16.7006 11.7262 16.768C11.8078 16.8354 11.902 16.8855 12.0033 16.9154C12.1045 16.9453 12.2106 16.9543 12.3154 16.942L15.2062 16.6992C15.9572 16.6357 16.5848 16.1437 16.8679 15.4772L21.0374 14.3226C21.1121 14.3035 21.1912 14.3127 21.2596 14.3486C21.3281 14.3844 21.3811 14.4444 21.4086 14.517C21.462 14.6678 21.3944 14.8337 21.2151 14.9209L14.6895 18.4862C14.1509 18.782 13.5188 18.8532 12.9288 18.6846L9.45285 17.7006C9.26736 17.6489 9.06961 17.6667 8.89607 17.7506L6.98432 18.6901L6.20185 15.747L8.15056 14.7638ZM16.6178 11.8183C16.5417 11.7479 16.48 11.663 16.4364 11.5685C16.3928 11.4741 16.3681 11.3718 16.3636 11.2677C16.3592 11.1636 16.3751 11.0596 16.4105 10.9617C16.4459 10.8638 16.5 10.7739 16.5698 10.6971C16.969 10.256 17.2668 9.73144 17.4419 9.16085C17.4879 9.01402 17.5752 8.88384 17.6932 8.7862C17.8112 8.68856 17.9548 8.62767 18.1064 8.61094L19.0871 8.50303V7.36196L18.1104 7.25404C17.9587 7.23732 17.8151 7.17643 17.6971 7.07878C17.5791 6.98114 17.4918 6.85097 17.4459 6.70414C17.271 6.13293 16.971 5.60872 16.5682 5.17028C16.4649 5.0568 16.3965 4.91534 16.3717 4.76325C16.3468 4.61117 16.3665 4.45506 16.4283 4.31409L16.8238 3.40711L15.8447 2.83578L15.262 3.6396C15.078 3.89353 14.7619 4.01176 14.4575 3.9459C13.8808 3.8137 13.2823 3.81154 12.7046 3.93955C12.5555 3.9739 12.3997 3.96325 12.2565 3.90893C12.1133 3.85462 11.9891 3.75903 11.8994 3.63405L11.3206 2.83657L10.3415 3.4079L10.7355 4.31171C10.7971 4.45272 10.8166 4.60878 10.7917 4.76082C10.7669 4.91287 10.6987 5.05432 10.5955 5.1679C10.1963 5.60899 9.89851 6.13354 9.72337 6.70414C9.67743 6.85097 9.59014 6.98114 9.47214 7.07878C9.35415 7.17643 9.21055 7.23732 9.05886 7.25404L8.07742 7.36196V8.50303L9.05414 8.61094C9.20583 8.62767 9.34943 8.68856 9.46742 8.7862C9.58542 8.88384 9.67271 9.01402 9.71865 9.16085C9.89354 9.73205 10.1935 10.2563 10.5963 10.6947C10.6688 10.771 10.7256 10.8611 10.7631 10.9599C10.8007 11.0586 10.8183 11.1639 10.8149 11.2696C10.8116 11.3753 10.7873 11.4792 10.7436 11.5753C10.6999 11.6714 10.6376 11.7577 10.5603 11.8292C10.483 11.9006 10.3924 11.9558 10.2937 11.9914C10.1951 12.027 10.0903 12.0423 9.98568 12.0365C9.88105 12.0307 9.77862 12.0038 9.68441 11.9575C9.59021 11.9112 9.50613 11.8463 9.43712 11.7667C8.99871 11.2883 8.64708 10.7358 8.39828 10.1345L7.2053 10.0028C7.01273 9.98145 6.83474 9.88918 6.70543 9.74363C6.57613 9.59807 6.50462 9.40948 6.50461 9.21401V6.65097C6.50462 6.4555 6.57613 6.26691 6.70543 6.12136C6.83474 5.97581 7.01273 5.88353 7.2053 5.86223L8.40142 5.72971C8.5812 5.29223 8.81561 4.8797 9.09896 4.50215L8.6169 3.396C8.53857 3.21697 8.52857 3.01506 8.58881 2.82905C8.64905 2.64304 8.77528 2.48605 8.94326 2.38824L11.1436 1.10593C11.3116 1.00843 11.5092 0.976784 11.6988 1.01704C11.8884 1.05729 12.0567 1.16662 12.1714 1.32414L12.88 2.29937C13.3458 2.24224 13.8168 2.24383 14.2822 2.30413L14.9939 1.32493C15.1084 1.16713 15.2767 1.05757 15.4664 1.0173C15.6561 0.977025 15.8538 1.00887 16.0217 1.10672L18.222 2.38903C18.39 2.48684 18.5163 2.64383 18.5765 2.82984C18.6367 3.01586 18.6267 3.21777 18.5484 3.39679L18.0648 4.50453C18.362 4.8989 18.5885 5.30042 18.767 5.7313L19.96 5.86302C20.3579 5.90587 20.6599 6.24628 20.6599 6.65097V9.21401C20.6599 9.40948 20.5884 9.59807 20.4591 9.74363C20.3298 9.88918 20.1518 9.98145 19.9592 10.0028L18.7631 10.1353C18.5155 10.7367 18.1658 11.2898 17.7298 11.7699C17.6599 11.8468 17.5758 11.9091 17.4821 11.9532C17.3884 11.9973 17.287 12.0222 17.1837 12.0267C17.0804 12.0312 16.9773 12.0151 16.8802 11.9794C16.7831 11.9436 16.6939 11.8889 16.6178 11.8183Z" fill="#01AFD2"/>
<path d="M13.5823 4.75845C11.8475 4.75845 10.4366 6.18201 10.4366 7.93249C10.4366 9.68298 11.8475 11.1065 13.5823 11.1065C15.3171 11.1065 16.7279 9.68298 16.7279 7.93249C16.7279 6.18201 15.3171 4.75845 13.5823 4.75845ZM13.5823 9.51951C12.7149 9.51951 12.0094 8.80774 12.0094 7.93249C12.0094 7.05725 12.7149 6.34547 13.5823 6.34547C14.4497 6.34547 15.1551 7.05725 15.1551 7.93249C15.1551 8.80774 14.4497 9.51951 13.5823 9.51951Z" fill="#01AFD2"/>
</svg>
