<svg width="24" height="24" viewBox="0 0 24 24" fill="none" xmlns="http://www.w3.org/2000/svg">
<path d="M12 14.7173C11.0929 14.7173 10.1862 14.4889 9.35931 14.0321L3.39712 10.7379C2.53256 10.2602 1.99731 9.33653 2.00012 8.32728C2.00297 7.31802 2.54342 6.39756 3.41065 5.92502L9.38785 2.66835C10.1926 2.22945 11.0894 2 12 2C12.9105 2 13.8073 2.22945 14.6121 2.66835L20.5893 5.92502C21.4565 6.39752 21.9969 7.31799 21.9998 8.32728C22.0026 9.33653 21.4673 10.2602 20.6028 10.7379L14.6406 14.0321C13.814 14.4889 12.9068 14.7172 12 14.7173ZM12 3.60962C11.344 3.60965 10.6981 3.77493 10.1184 4.09107L4.14129 7.34777C3.78017 7.54453 3.56383 7.9125 3.56267 8.33199C3.5615 8.75147 3.77571 9.12071 4.13575 9.31963L10.098 12.6138C11.289 13.2719 12.7111 13.2719 13.9021 12.6138L19.8644 9.31963C20.2244 9.12071 20.4386 8.75151 20.4375 8.33199C20.4363 7.91246 20.22 7.54453 19.8588 7.34777L13.8815 4.09107C13.3018 3.77495 12.6559 3.60966 12 3.60962ZM14.6406 21.3148L21.5879 17.4766C21.9681 17.2665 22.111 16.7787 21.9071 16.387C21.7031 15.9954 21.2296 15.8482 20.8494 16.0582L13.902 19.8965C12.7111 20.5546 11.289 20.5546 10.0949 19.8949L3.14763 16.0968C2.76643 15.8884 2.29355 16.0378 2.09134 16.4304C1.88905 16.823 2.03402 17.31 2.41515 17.5184L9.35935 21.3148C10.1862 21.7716 11.0929 22 12 22C12.9068 22 13.814 21.7716 14.6406 21.3148ZM14.6406 17.6936L21.5879 13.8553C21.9681 13.6452 22.111 13.1574 21.9071 12.7658C21.7031 12.3741 21.2296 12.227 20.8494 12.437L13.902 16.2753C12.7111 16.9334 11.289 16.9333 10.0949 16.2736L3.14763 12.4756C2.76643 12.2672 2.29355 12.4166 2.09134 12.8091C1.88905 13.2017 2.03402 13.6888 2.41515 13.8972L9.35935 17.6936C10.1862 18.1504 11.0929 18.3788 12 18.3788C12.9068 18.3788 13.814 18.1504 14.6406 17.6936Z" fill="#01AFD2"/>
</svg>
