<svg width="24" height="24" viewBox="0 0 24 24" fill="none" xmlns="http://www.w3.org/2000/svg">
<path d="M12 22C6.54868 22 2 17.6392 2 12C2 6.43474 6.54868 2 12 2C17.4513 2 22 6.29111 22 12C22 17.6751 17.4513 22 12 22ZM12 3.36752C7.24004 3.36752 3.36752 7.24004 3.36752 12C3.36752 16.76 7.24004 20.6325 12 20.6325C16.76 20.6325 20.6325 16.76 20.6325 12C20.6325 7.24004 16.76 3.36752 12 3.36752Z" fill="#01AFD2"/>
<path d="M14.5419 6.89248C14.9048 6.72675 15.05 6.26919 14.8475 5.92436C13.9871 4.45863 12.1308 3.8185 10.5494 4.44974C8.76107 5.16359 7.88397 7.20479 8.59414 9C8.83261 9.60286 9.23363 10.1221 9.74175 10.5061C9.3065 11.1465 9.1638 11.9582 9.35355 12.7091C8.37273 13.2097 7.18598 13.1325 6.26735 12.473C5.9409 12.2386 5.46949 12.3433 5.27269 12.6932C4.43842 14.1761 4.81765 16.1054 6.14859 17.1623C7.1459 17.9543 8.52756 18.1382 9.69773 17.6344C10.8526 17.1371 11.6654 16.0152 11.7902 14.7652C12.5405 14.8239 13.291 14.5669 13.8471 14.0594C14.7834 14.6606 15.3194 15.7412 15.209 16.8815C15.1708 17.2769 15.4951 17.6391 15.8959 17.6311C17.5987 17.6154 19.071 16.314 19.316 14.6334C19.5946 12.7215 18.2715 10.9382 16.3666 10.6581C15.7256 10.5638 15.0771 10.6521 14.4918 10.9024C14.1672 10.1953 13.5502 9.64961 12.7961 9.42137C12.871 8.33316 13.5305 7.35432 14.5419 6.89248ZM11.0564 5.71979C11.814 5.41744 12.6432 5.575 13.2271 6.08359C12.1711 6.84872 11.5079 8.05474 11.4294 9.3659C11.2167 9.41156 11.0103 9.48264 10.8145 9.57761C10.383 9.33774 10.0478 8.95592 9.86577 8.49697C9.43214 7.40077 9.96624 6.15496 11.0564 5.71979ZM9.98167 15.7404C9.26496 16.6512 7.90842 16.8134 6.9991 16.0914C6.37098 15.5926 6.09034 14.7821 6.22808 14.0212C7.43739 14.5655 8.82974 14.5266 10.0115 13.9086C10.1397 14.0453 10.2816 14.1686 10.435 14.2766C10.4688 14.8018 10.3103 15.3229 9.98167 15.7404C10.3103 15.3229 9.62936 16.1881 9.98167 15.7404ZM12.0054 13.4069C11.2513 13.4069 10.6379 12.7935 10.6379 12.0394C10.6379 11.2853 11.2513 10.6719 12.0054 10.6719C12.7594 10.6719 13.3729 11.2853 13.3729 12.0394C13.3729 12.7935 12.7594 13.4069 12.0054 13.4069ZM17.9628 14.4361C17.847 15.2307 17.2906 15.8792 16.5685 16.14C16.435 14.8217 15.7114 13.6348 14.5958 12.915C14.6614 12.7223 14.7051 12.5229 14.7261 12.3204C15.1525 12.0494 15.6639 11.9369 16.1678 12.011C17.3276 12.1816 18.1329 13.2695 17.9628 14.4361Z" fill="#01AFD2"/>
</svg>
