<svg width="24" height="24" viewBox="0 0 24 24" fill="none" xmlns="http://www.w3.org/2000/svg">
<g clip-path="url(#clip0_207_5370)">
<path d="M21.1987 4.67481L20.5194 4.64744C20.5072 4.64692 19.2808 4.59224 17.6837 4.06592C13.7697 2.776 12.2788 0.236366 12 0C11.7262 0.232025 10.2257 2.77756 6.3163 4.06592C4.71925 4.59224 3.49279 4.64692 3.4818 4.6474L2.80016 4.67249V13.2579C2.80016 18.5634 6.63787 23.1063 11.8837 23.9806L12 24L12.1164 23.9806C17.3499 23.1084 21.1999 18.5759 21.1999 13.2579V5.35461L21.1987 4.67481ZM19.7845 13.2579C19.7845 17.8597 16.518 21.7549 12 22.5644C7.48209 21.7549 4.21552 17.8597 4.21552 13.2579V5.99718C4.78794 5.92236 5.67627 5.76289 6.711 5.42599C8.78568 4.75039 10.5985 3.6323 12 2.17074C13.4015 3.6323 15.2143 4.75039 17.289 5.42599C18.3237 5.76294 19.2121 5.92236 19.7845 5.99718V13.2579Z" fill="#01AFD2"/>
<path d="M14.1358 10.9859L14.8063 8.56894L14.5144 8.2771C13.128 6.8907 10.872 6.8907 9.48558 8.2771L9.19373 8.56894L9.86414 10.9859C9.515 11.3431 9.26102 11.7822 9.12546 12.263L6.69873 12.8903C5.92651 15.1004 7.19958 17.3254 9.50497 17.7509L11.2611 15.9637C11.7303 16.0866 12.2696 16.0866 12.7388 15.9637L14.495 17.7509C16.7945 17.3162 18.0855 15.0991 17.3012 12.8903L14.8745 12.263C14.7389 11.7822 14.485 11.3431 14.1358 10.9859ZM12 14.641C11.1309 14.641 10.4291 13.9322 10.4291 13.0701C10.5165 10.9855 13.4841 10.9869 13.5709 13.0701C13.5709 13.9323 12.8691 14.641 12 14.641ZM13.2107 9.02597L12.8861 10.196C12.3098 10.0468 11.6902 10.0468 11.1139 10.196L10.7893 9.02597C11.5158 8.52733 12.4842 8.52733 13.2107 9.02597ZM9.10272 16.141C8.71501 15.9565 8.39221 15.6595 8.17292 15.2797C7.95359 14.8998 7.85787 14.4718 7.89198 14.0438L9.06786 13.7398C9.2291 14.3179 9.53394 14.8459 9.95402 15.2746L9.10272 16.141ZM15.8271 15.2797C15.6078 15.6595 15.285 15.9565 14.8973 16.141L14.046 15.2746C14.2552 15.0611 14.4366 14.8221 14.5862 14.5632C14.7356 14.3043 14.8518 14.0277 14.9322 13.7398L16.1081 14.0438C16.1421 14.4718 16.0464 14.8998 15.8271 15.2797Z" fill="#01AFD2"/>
</g>
<defs>
<clipPath id="clip0_207_5370">
<rect width="24" height="24" fill="white"/>
</clipPath>
</defs>
</svg>
