<svg width="24" height="24" viewBox="0 0 24 24" fill="none" xmlns="http://www.w3.org/2000/svg">
<path d="M20.9083 16.0419C20.7277 15.7377 20.3401 15.6408 20.0427 15.8256L15.4312 18.691C15.0063 17.4247 13.8314 16.5116 12.4512 16.5116H8.67072C7.62844 16.5116 6.78048 15.6442 6.78048 14.578C6.78048 13.5119 7.62844 12.6445 8.67046 12.6445L10.1242 12.6451C10.2382 12.6451 10.3502 12.6135 10.4482 12.5535L11.2295 12.0749L12.309 13.9127C12.4888 14.2188 12.8776 14.3165 13.1755 14.132L13.7247 13.7944L14.6913 15.4401C14.8708 15.7458 15.2585 15.8435 15.5559 15.6606L17.7163 14.3328C18.0145 14.1495 18.111 13.7536 17.9318 13.4484L16.9652 11.8027L17.4943 11.4775C17.7925 11.2942 17.889 10.8982 17.7098 10.5931C17.6948 10.5674 13.1625 2.85017 13.1459 2.82555C12.9573 2.54471 12.5876 2.46255 12.3021 2.63808L11.762 2.97005L10.7884 1.31263C10.6093 1.00772 10.2221 0.908765 9.92382 1.09211L7.76344 2.41993C7.46533 2.60314 7.36868 2.99927 7.54787 3.30435L8.52143 4.96177L7.98137 5.29375C7.68309 5.47709 7.5866 5.87305 7.7658 6.17817L9.07951 8.41472L8.48984 8.77948C5.44635 8.87719 3 11.4409 3 14.5782C3 17.7767 5.54388 20.3789 8.67072 20.3789H9.3008V21.7109H7.41056C7.06259 21.7109 6.78048 21.9995 6.78048 22.3555C6.78048 22.7114 7.06259 23 7.41056 23H17.4918C17.8398 23 18.1219 22.7114 18.1219 22.3555C18.1219 21.9995 17.8398 21.7109 17.4918 21.7109H15.6016V20.0935L20.697 16.9275C20.9944 16.7426 21.089 16.3462 20.9083 16.0419ZM16.5271 13.5599L15.447 14.2238L14.8048 13.1306L15.885 12.4667L16.5271 13.5599ZM8.95257 3.19289L10.0328 2.52898L10.6818 3.63392L9.60164 4.29782L8.95257 3.19289ZM9.17045 6.06671L12.411 4.07494L16.3051 10.7046C15.2249 11.3683 14.1448 12.0324 13.0648 12.6967L12.3105 11.4126L12.5823 11.2461C13.5802 10.6348 13.8985 9.31057 13.2915 8.29553C12.693 7.29475 11.4077 6.97459 10.4264 7.58152L10.1577 7.74768L9.17045 6.06671ZM4.26016 14.5781C4.26016 12.0899 6.23853 10.0656 8.67021 10.0656C8.78514 10.0656 8.89788 10.0334 8.99626 9.97259L11.0785 8.68456C11.4684 8.44347 11.9789 8.5707 12.2166 8.96816C12.4573 9.37051 12.3321 9.89679 11.9349 10.1402L9.95033 11.356L8.67072 11.3554C6.93359 11.3554 5.52032 12.8011 5.52032 14.578C5.52032 16.355 6.93359 17.8007 8.67072 17.8007H9.9326C9.65683 18.1756 9.45903 18.6137 9.36422 19.0897H8.67076C6.23869 19.0898 4.26016 17.0659 4.26016 14.5781ZM10.561 21.7109V19.7343C10.561 18.6681 11.4089 17.8007 12.4512 17.8007C13.4935 17.8007 14.3414 18.6681 14.3414 19.7343V21.7109H10.561Z" fill="#01AFD2"/>
<path d="M12.4512 20.3788C12.7992 20.3788 13.0813 20.0903 13.0813 19.7343C13.0813 19.3783 12.7992 19.0898 12.4512 19.0898C12.1032 19.0898 11.8211 19.3783 11.8211 19.7343C11.8211 20.0903 12.1032 20.3788 12.4512 20.3788Z" fill="#01AFD2"/>
</svg>
