<svg width="24" height="24" viewBox="0 0 24 24" fill="none" xmlns="http://www.w3.org/2000/svg">
<path d="M3 4.92857V9.14764C3 10.2109 3.86529 11.0762 4.92857 11.0762H9.147C10.2109 11.0762 11.0756 10.2109 11.0756 9.14764V4.92857C11.0756 3.86529 10.2109 3 9.147 3H4.92857C3.86529 3 3 3.86529 3 4.92857ZM4.28571 4.92857C4.28571 4.57371 4.57436 4.28571 4.92857 4.28571H9.147C9.50186 4.28571 9.78986 4.57371 9.78986 4.92857V9.14764C9.78986 9.50186 9.50186 9.7905 9.147 9.7905H4.92857C4.57436 9.7905 4.28571 9.50186 4.28571 9.14764V4.92857ZM3 19.0714C3 20.1347 3.86529 21 4.92857 21H9.147C10.2109 21 11.0756 20.1347 11.0756 19.0714V14.8524C11.0756 13.7891 10.2109 12.9238 9.147 12.9238H4.92857C3.86529 12.9238 3 13.7891 3 14.8524V19.0714ZM4.28571 14.8524C4.28571 14.4981 4.57436 14.2095 4.92857 14.2095H9.147C9.50186 14.2095 9.78986 14.4981 9.78986 14.8524V19.0714C9.78986 19.4263 9.50186 19.7143 9.147 19.7143H4.92857C4.57436 19.7143 4.28571 19.4263 4.28571 19.0714V14.8524ZM19.0714 12.9244H14.8524C13.7891 12.9244 12.9238 13.7891 12.9238 14.853V19.0714C12.9238 20.1347 13.7891 21 14.8524 21H19.0714C20.1347 21 21 20.1347 21 19.0714V14.8524C21 13.7891 20.1347 12.9244 19.0714 12.9244ZM19.7143 19.0714C19.7143 19.4263 19.4256 19.7143 19.0714 19.7143H14.8524C14.4988 19.7143 14.2095 19.4263 14.2095 19.0714V14.8524C14.2095 14.4981 14.4988 14.2095 14.8524 14.2095H19.0714C19.4256 14.2095 19.7143 14.4981 19.7143 14.8524V19.0714ZM20.3571 6.39493H17.6051V3.64286C17.6051 3.47236 17.5373 3.30885 17.4168 3.18829C17.2962 3.06773 17.1327 3 16.9622 3C16.7917 3 16.6282 3.06773 16.5076 3.18829C16.3871 3.30885 16.3194 3.47236 16.3194 3.64286V6.39493H13.5666C13.4822 6.39493 13.3986 6.41156 13.3206 6.44386C13.2426 6.47617 13.1718 6.52352 13.1121 6.58322C13.0524 6.64291 13.005 6.71378 12.9727 6.79177C12.9404 6.86977 12.9238 6.95336 12.9238 7.03779C12.9238 7.12221 12.9404 7.2058 12.9727 7.2838C13.005 7.36179 13.0524 7.43266 13.1121 7.49235C13.1718 7.55205 13.2426 7.5994 13.3206 7.63171C13.3986 7.66401 13.4822 7.68064 13.5666 7.68064H16.3194V10.4327C16.3194 10.6032 16.3871 10.7667 16.5076 10.8873C16.6282 11.0078 16.7917 11.0756 16.9622 11.0756C17.1327 11.0756 17.2962 11.0078 17.4168 10.8873C17.5373 10.7667 17.6051 10.6032 17.6051 10.4327V7.68129H20.3571C20.5276 7.68129 20.6912 7.61356 20.8117 7.493C20.9323 7.37244 21 7.20892 21 7.03843C21 6.86793 20.9323 6.70442 20.8117 6.58386C20.6912 6.4633 20.5276 6.39493 20.3571 6.39493Z" fill="#01AFD2"/>
</svg>
