<svg width="40" height="40" viewBox="0 0 40 40" fill="none" xmlns="http://www.w3.org/2000/svg">
<g clip-path="url(#clip0_157_4970)">
<path fill-rule="evenodd" clip-rule="evenodd" d="M30.1559 2.8125C33.8234 2.8125 36.7965 5.78562 36.7965 9.45312C36.7965 13.1206 33.8234 16.0938 30.1559 16.0938C28.8853 16.0938 27.6982 15.7367 26.6891 15.1177C25.978 15.3085 25.2671 15.4992 24.556 15.6898C24.1765 15.7969 23.813 15.4496 23.917 15.0594C24.1083 14.3456 24.2996 13.6326 24.4909 12.9195C23.8721 11.9105 23.5152 10.7234 23.5152 9.45305C23.5152 5.78562 26.4884 2.8125 30.1559 2.8125ZM4.29688 26.875H21.0938V30.3125H4.29688V26.875Z" fill="#DEF7FC"/>
<path d="M4.29688 19.6094L5.07812 2.8125H8.98445L9.7657 19.6094M5.07812 6.71875H8.98445M13.672 19.6094L14.4532 2.8125H18.3595L19.1408 19.6094M14.4532 6.71875H18.3595M4.29688 33.75H21.0938M24.6091 30.3125H35.7025M25.3904 30.7031V36.7969M34.9213 30.7031V36.7969M30.1559 30.7031V36.7969M24.6091 23.4376H35.7025M24.6091 26.875H35.7025M32.4996 7.89062L29.3746 11.0156L27.8121 9.45312M0.78125 20H39.2188V37.1875H0.78125V20Z" stroke="#01AFD2" stroke-width="2" stroke-miterlimit="22.9256" stroke-linecap="round" stroke-linejoin="round"/>
</g>
<defs>
<clipPath id="clip0_157_4970">
<rect width="40" height="40" fill="white"/>
</clipPath>
</defs>
</svg>
