<svg width="40" height="40" viewBox="0 0 40 40" fill="none" xmlns="http://www.w3.org/2000/svg">
<g clip-path="url(#clip0_157_4976)">
<path d="M20.0001 27.5274C15.8495 27.5274 12.4727 24.1506 12.4727 20C12.4727 15.8493 15.8495 12.4725 20.0001 12.4725C24.1507 12.4725 27.5275 15.8493 27.5275 20C27.5275 24.1506 24.1507 27.5274 20.0001 27.5274Z" fill="#DEF7FC"/>
<path d="M1.39453 30.1751L4.36359 31.1901L5.37867 28.2211" stroke="#01AFD2" stroke-width="2" stroke-miterlimit="10" stroke-linecap="round" stroke-linejoin="round"/>
<path d="M4.3732 31.19C2.11242 28.0381 0.78125 24.1748 0.78125 20C0.78125 9.38578 9.38578 0.78125 20 0.78125C24.1748 0.78125 28.0381 2.11242 31.19 4.3732M38.6055 9.825L35.6365 8.81L34.6214 11.779" stroke="#01AFD2" stroke-width="2" stroke-miterlimit="10" stroke-linecap="round" stroke-linejoin="round"/>
<path d="M35.6269 8.81006C37.8876 11.9619 39.2188 15.8253 39.2188 20.0001C39.2188 30.6143 30.6143 39.2188 20.0001 39.2188C15.8253 39.2188 11.9619 37.8876 8.81006 35.6269" stroke="#01AFD2" stroke-width="2" stroke-miterlimit="10" stroke-linecap="round" stroke-linejoin="round"/>
<path d="M33.3355 22.7591V17.241H29.7356C29.5212 16.4838 29.2186 15.7544 28.8341 15.0678L31.3806 12.5213L27.4787 8.61947L24.9322 11.166C24.2456 10.7814 23.5163 10.4788 22.7592 10.2644V6.66455H17.241V10.2644C16.4839 10.4788 15.7546 10.7814 15.068 11.166L12.5215 8.61947L8.61963 12.5213L11.1661 15.0678C10.7816 15.7544 10.479 16.4838 10.2646 17.241H6.66455V22.7591H10.2644C10.4788 23.5162 10.7814 24.2456 11.166 24.9321L8.61947 27.4786L12.5213 31.3805L15.0678 28.834C15.7544 29.2185 16.4838 29.5211 17.241 29.7356V33.3354H22.7591V29.7356C23.5162 29.5211 24.2456 29.2185 24.9321 28.834L27.4786 31.3805L31.3805 27.4786L28.834 24.9321C29.2185 24.2456 29.5211 23.5162 29.7356 22.7591H33.3355Z" stroke="#01AFD2" stroke-width="2" stroke-miterlimit="10" stroke-linecap="round" stroke-linejoin="round"/>
<path d="M20 16.47V20H22.7455" stroke="#01AFD2" stroke-width="2" stroke-miterlimit="10" stroke-linecap="round" stroke-linejoin="round"/>
</g>
<defs>
<clipPath id="clip0_157_4976">
<rect width="40" height="40" fill="white"/>
</clipPath>
</defs>
</svg>
