<svg width="24" height="24" xmlns="http://www.w3.org/2000/svg"><path fill-rule="evenodd" clip-rule="evenodd" d="M4.857 3.633a1.224 1.224 0 00-1.224 1.224v14.286a1.224 1.224 0 001.224 1.224H8.94a.816.816 0 010 1.633H4.857A2.857 2.857 0 012 19.143V4.857A2.857 2.857 0 014.857 2H8.94a.816.816 0 010 1.633H4.857zM15.504 6.32a.816.816 0 011.155 0l5.102 5.102a.816.816 0 010 1.154l-5.102 5.102a.816.816 0 01-1.155-1.154l3.709-3.709H8.939a.816.816 0 010-1.632h10.274l-3.709-3.709a.816.816 0 010-1.154z"/></svg>