<svg width="24" height="24" xmlns="http://www.w3.org/2000/svg"><path fill-rule="evenodd" clip-rule="evenodd" d="M13.996 5.277a7.36 7.36 0 00-3.59-.103 7.249 7.249 0 00-3.19 1.602 6.995 6.995 0 00-1.994 2.897 1 1 0 11-1.88-.68 8.995 8.995 0 012.561-3.727 9.249 9.249 0 014.07-2.045 9.36 9.36 0 014.568.132 9.222 9.222 0 013.929 2.266L21 7.945V4.887a1 1 0 112 0v5.335a1 1 0 01-1 1h-5.454a1 1 0 010-2h2.888l-2.329-2.14a7.222 7.222 0 00-3.11-1.804zM1 13.778a1 1 0 011-1h5.455a1 1 0 010 2H4.566l2.329 2.14.023.022a7.223 7.223 0 003.086 1.783 7.36 7.36 0 003.59.103 7.248 7.248 0 003.19-1.602 6.995 6.995 0 001.994-2.897 1 1 0 011.88.68 8.995 8.995 0 01-2.562 3.727 9.248 9.248 0 01-4.07 2.045 9.359 9.359 0 01-4.567-.132 9.223 9.223 0 01-3.929-2.266L3 16.055v3.058a1 1 0 11-2 0v-5.335z" /></svg>