<svg width="25" height="24" viewBox="0 0 25 24" fill="none" xmlns="http://www.w3.org/2000/svg">
<path fill-rule="evenodd" clip-rule="evenodd" d="M13.2251 4.94904C9.82344 4.94904 7.06586 7.70663 7.06586 11.1083C7.06586 12.7655 7.72038 14.2699 8.78501 15.377C8.81657 15.4016 8.84696 15.4284 8.87597 15.4574C8.90498 15.4864 8.93178 15.5168 8.95637 15.5484C10.0635 16.613 11.5679 17.2675 13.2251 17.2675C16.6267 17.2675 19.3843 14.5099 19.3843 11.1083C19.3843 7.70663 16.6267 4.94904 13.2251 4.94904ZM8.22208 17.4895C9.60008 18.5714 11.3372 19.2166 13.2251 19.2166C17.7032 19.2166 21.3334 15.5864 21.3334 11.1083C21.3334 6.6302 17.7032 3 13.2251 3C8.74701 3 5.11681 6.6302 5.11681 11.1083C5.11681 12.9961 5.762 14.7333 6.8439 16.1113L3.61881 19.3364C3.23823 19.717 3.23823 20.334 3.6188 20.7146C3.99938 21.0951 4.61641 21.0951 4.99699 20.7146L8.22208 17.4895Z" fill="#01AFD2"/>
</svg>
