<svg width="24" height="24" viewBox="0 0 24 24" fill="none" xmlns="http://www.w3.org/2000/svg">
<path d="M21.9828 17.3441C21.942 17.004 21.8236 16.6779 21.6367 16.3908C21.4499 16.1038 21.1996 15.8635 20.9052 15.6885L18.2314 14.0847C17.8009 13.8258 17.2962 13.7184 16.7977 13.7795C16.2991 13.8406 15.8352 14.0666 15.4799 14.4217C14.8244 15.0773 13.8283 15.2033 13.058 14.7329C12.3396 14.2958 11.61 13.7143 10.9508 13.0513C10.2917 12.3883 9.70655 11.6586 9.26956 10.9437C8.79925 10.1733 8.92516 9.17695 9.58063 8.52135C9.93642 8.1664 10.163 7.7024 10.2241 7.20351C10.2851 6.70462 10.1773 6.19966 9.91763 5.76932L8.31412 3.09507C7.95491 2.49503 7.35128 2.10241 6.65877 2.01722C5.96626 1.93203 5.28486 2.16538 4.79233 2.66171L2.77406 4.68036C2.20376 5.25077 1.92231 6.05823 2.0186 6.83976C2.44447 10.2659 4.34424 13.8847 7.22907 16.77C10.1139 19.6554 13.7357 21.5555 17.1612 21.9815C17.2612 21.9926 17.3649 22 17.4686 22C18.1638 21.997 18.8296 21.7186 19.3202 21.2259L21.3385 19.2072C21.5813 18.966 21.7656 18.6723 21.8773 18.3487C21.989 18.0251 22.0251 17.6802 21.9828 17.3404V17.3441ZM20.2941 18.1627L18.2759 20.1814C18.0278 20.4295 17.6796 20.5555 17.3464 20.5147C14.243 20.1295 10.936 18.3812 8.28079 15.7255C5.62556 13.0661 3.87763 9.76217 3.49249 6.65826C3.45175 6.32491 3.57396 5.98044 3.82578 5.72857L5.84405 3.70993C5.99218 3.56547 6.18475 3.48398 6.38843 3.48398C6.42176 3.48398 6.45139 3.48398 6.48472 3.49139C6.72172 3.52102 6.92911 3.65437 7.05131 3.85808L8.65482 6.53233C8.83628 6.83605 8.78814 7.22497 8.54002 7.47313C7.39942 8.61395 7.18463 10.3548 8.01046 11.7141C8.5141 12.5438 9.15476 13.3439 9.90652 14.0995C10.662 14.8551 11.4619 15.4922 12.2914 15.9959C13.6505 16.8256 15.391 16.6071 16.5316 15.4662C16.7835 15.2144 17.1686 15.1699 17.4723 15.3514L20.146 16.9552C20.3497 17.0775 20.4867 17.2849 20.5126 17.5219C20.5423 17.759 20.4608 17.9923 20.2941 18.1627Z" fill="#01AFD2"/>
<path d="M16.8168 11.2623C16.4909 11.2623 16.1946 11.0474 16.1021 10.7178C15.6762 9.17695 14.4541 7.95465 12.9173 7.5324C12.5247 7.42498 12.2914 7.01384 12.3988 6.62122C12.5062 6.22861 12.9173 5.99526 13.3098 6.10267C15.3503 6.66567 16.9649 8.2843 17.5315 10.3252C17.5616 10.4352 17.5659 10.5506 17.5441 10.6625C17.5223 10.7744 17.475 10.8798 17.4058 10.9705C17.3367 11.0611 17.2476 11.1346 17.1454 11.1852C17.0432 11.2358 16.9308 11.2622 16.8168 11.2623ZM20.52 11.2623C20.1608 11.2623 19.8498 11.003 19.7905 10.64C19.5199 8.93576 18.7172 7.36081 17.4973 6.14063C16.2773 4.92045 14.7027 4.11758 12.9987 3.84697C12.5951 3.784 12.321 3.4025 12.384 2.99877C12.447 2.59504 12.8247 2.31724 13.232 2.38391C15.2446 2.70318 17.1044 3.65128 18.5453 5.0924C19.9862 6.53353 20.9341 8.39376 21.2533 10.4067C21.3162 10.8104 21.0422 11.1919 20.6385 11.2549C20.5978 11.2623 20.5608 11.266 20.52 11.266V11.2623Z" fill="#01AFD2"/>
</svg>
