<svg width="37" height="36" viewBox="0 0 37 36" fill="none" xmlns="http://www.w3.org/2000/svg">
<path d="M9.5 0C8.2625 0 7.25 1.0125 7.25 2.25V33.75C7.25 34.9875 8.2625 36 9.5 36H32C33.2375 36 34.25 34.9875 34.25 33.75V9L25.25 0H9.5Z" fill="#E2E5E7"/>
<path d="M27.5 9H34.25L25.25 0V6.75C25.25 7.9875 26.2625 9 27.5 9Z" fill="#B0B7BD"/>
<path d="M34.25 15.75L27.5 9H34.25V15.75Z" fill="#CAD1D8"/>
<path d="M29.75 29.25C29.75 29.8687 29.2437 30.375 28.625 30.375H3.875C3.25625 30.375 2.75 29.8687 2.75 29.25V18C2.75 17.3812 3.25625 16.875 3.875 16.875H28.625C29.2437 16.875 29.75 17.3812 29.75 18V29.25Z" fill="#F15642"/>
<path d="M7.6543 21.3153C7.6543 21.0183 7.8883 20.6943 8.26517 20.6943H10.343C11.513 20.6943 12.566 21.4773 12.566 22.9781C12.566 24.4001 11.513 25.1921 10.343 25.1921H8.84117V26.3801C8.84117 26.7761 8.58917 27 8.26517 27C7.96817 27 7.6543 26.7761 7.6543 26.3801V21.3153ZM8.84117 21.8272V24.0682H10.343C10.946 24.0682 11.423 23.5361 11.423 22.9781C11.423 22.3492 10.946 21.8272 10.343 21.8272H8.84117ZM14.3278 27C14.0308 27 13.7068 26.838 13.7068 26.4431V21.3333C13.7068 21.0105 14.0308 20.7753 14.3278 20.7753H16.3877C20.4984 20.7753 20.4084 27 16.4687 27H14.3278ZM14.8948 21.8733V25.9031H16.3877C18.8165 25.9031 18.9245 21.8733 16.3877 21.8733H14.8948ZM21.8664 21.9453V23.3752H24.1603C24.4843 23.3752 24.8083 23.6992 24.8083 24.0131C24.8083 24.3101 24.4843 24.5531 24.1603 24.5531H21.8664V26.442C21.8664 26.757 21.6425 26.9988 21.3275 26.9988C20.9315 26.9988 20.6897 26.757 20.6897 26.442V21.3322C20.6897 21.0093 20.9327 20.7742 21.3275 20.7742H24.4854C24.8814 20.7742 25.1154 21.0093 25.1154 21.3322C25.1154 21.6202 24.8814 21.9442 24.4854 21.9442H21.8664V21.9453Z" fill="white"/>
<path d="M28.625 30.375H7.25V31.5H28.625C29.2437 31.5 29.75 30.9937 29.75 30.375V29.25C29.75 29.8688 29.2437 30.375 28.625 30.375Z" fill="#CAD1D8"/>
</svg>
