<svg width="38" height="34" viewBox="0 0 38 34" fill="none" xmlns="http://www.w3.org/2000/svg">
<path fill-rule="evenodd" clip-rule="evenodd" d="M15 2C12.2386 2 10 4.23858 10 7V9.82759C10 10.3799 9.55228 10.8276 9 10.8276C8.44772 10.8276 8 10.3799 8 9.82759V7C8 3.13401 11.134 0 15 0H31C34.866 0 38 3.13401 38 7V27C38 30.866 34.866 34 31 34H15C11.134 34 8 30.866 8 27V23.069C8 22.5167 8.44772 22.069 9 22.069C9.55228 22.069 10 22.5167 10 23.069V27C10 29.7614 12.2386 32 15 32H31C33.7614 32 36 29.7614 36 27V7C36 4.23858 33.7614 2 31 2H15Z" fill="#01AFD2"/>
<path fill-rule="evenodd" clip-rule="evenodd" d="M14.2929 10.2929C14.6834 9.90237 15.3166 9.90237 15.7071 10.2929L21.7071 16.2929C22.0976 16.6834 22.0976 17.3166 21.7071 17.7071L15.7071 23.7071C15.3166 24.0976 14.6834 24.0976 14.2929 23.7071C13.9024 23.3166 13.9024 22.6834 14.2929 22.2929L18.5858 18H1C0.447715 18 0 17.5523 0 17C0 16.4477 0.447715 16 1 16H18.5858L14.2929 11.7071C13.9024 11.3166 13.9024 10.6834 14.2929 10.2929Z" fill="#01AFD2"/>
</svg>
