<svg width="20" height="20"  xmlns="http://www.w3.org/2000/svg"><path fill-rule="evenodd" clip-rule="evenodd" d="M1 10a9 9 0 1118 0 9 9 0 01-18 0zm9-7.552a7.552 7.552 0 100 15.104 7.552 7.552 0 000-15.104zm-.035 2.91a1.941 1.941 0 100 3.883 1.941 1.941 0 000-3.882zM6.575 7.3a3.39 3.39 0 116.78 0 3.39 3.39 0 01-6.78 0zm-.959 6.45a5.208 5.208 0 014.038-1.914h.832c1.628 0 3.083.746 4.038 1.913a.724.724 0 01-1.12.918 3.76 3.76 0 00-2.918-1.383h-.832a3.76 3.76 0 00-2.917 1.383.724.724 0 11-1.12-.918z" /></svg>