<svg width="24" height="24"   xmlns="http://www.w3.org/2000/svg"><path fill-rule="evenodd" clip-rule="evenodd" d="M10.77 1.846a8.923 8.923 0 106.208 15.332.918.918 0 01.2-.2A8.923 8.923 0 0010.77 1.846zm8.24 15.858a10.727 10.727 0 002.528-6.935C21.538 4.822 16.718 0 10.77 0 4.822 0 0 4.822 0 10.77c0 5.947 4.822 10.768 10.77 10.768 2.64 0 5.06-.95 6.934-2.529l4.72 4.72a.923.923 0 101.306-1.305l-4.72-4.72zm-8.24-11.55c.509 0 .922.413.922.923v2.77h2.77a.923.923 0 110 1.845h-2.77v2.77a.923.923 0 01-1.846 0v-2.77h-2.77a.923.923 0 010-1.846h2.77v-2.77c0-.509.413-.922.923-.922z"/></svg>