<svg width="40" height="40" viewBox="0 0 40 40" fill="none" xmlns="http://www.w3.org/2000/svg">
<g clip-path="url(#clip0_157_4982)">
<path d="M15.2941 34.5098C13.9967 34.5098 12.9412 33.4543 12.9412 32.1569V29.804H17.6471V32.1569C17.6471 33.4543 16.5915 34.5098 15.2941 34.5098ZM24.7059 34.5098C23.4085 34.5098 22.353 33.4543 22.353 32.1569V29.804H27.0588V32.1569C27.0588 33.4543 26.0033 34.5098 24.7059 34.5098ZM20 25.0981C18.7026 25.0981 17.6471 24.0425 17.6471 22.7451V20.3922H22.353V22.7451C22.353 24.0425 21.2974 25.0981 20 25.0981ZM32.9412 16.4706V17.2549H7.05884V16.4706C7.05884 15.171 8.11217 14.1177 9.41178 14.1177H30.5883C31.8879 14.1177 32.9412 15.171 32.9412 16.4706Z" fill="#DEF7FC"/>
<path d="M0.784424 39.2158H39.2158M7.05893 17.255V39.2158H3.92168V12.5491L20.0001 0.784424L36.0785 12.5491V39.2158H32.9413V16.4707C32.9413 15.1711 31.888 14.1178 30.5883 14.1178H9.41188C8.11227 14.1178 7.05893 15.1711 7.05893 16.4707V17.255Z" stroke="#01AFD2" stroke-width="2" stroke-miterlimit="10" stroke-linecap="round" stroke-linejoin="round"/>
<path d="M23.5295 10.9806H16.4707V7.84331L20.0001 4.70605L23.5295 7.84331V10.9806Z" fill="#DEF7FC"/>
<path d="M20.0001 39.2159H10.5884V31.3727C10.5884 30.5064 11.2907 29.8041 12.157 29.8041H20.0001M20.0001 39.2159V29.8041M20.0001 39.2159H29.4119V31.3727C29.4119 30.5064 28.7096 29.8041 27.8433 29.8041H20.0001M15.2943 29.8041V21.961C15.2943 21.0946 15.9965 20.3923 16.8629 20.3923H23.1374C24.0037 20.3923 24.706 21.0946 24.706 21.961V29.8041" stroke="#01AFD2" stroke-width="2" stroke-miterlimit="10" stroke-linecap="round" stroke-linejoin="round"/>
</g>
<defs>
<clipPath id="clip0_157_4982">
<rect width="40" height="40" fill="white"/>
</clipPath>
</defs>
</svg>
