<svg width="40" height="40" viewBox="0 0 40 40" fill="none" xmlns="http://www.w3.org/2000/svg">
<g clip-path="url(#clip0_157_4994)">
<path d="M4.10156 0.781328H29.2484C30.9754 0.769141 32.3829 2.18398 32.3829 3.90632V6.64099M32.3829 26.5224V34.1407" stroke="#01AFD2" stroke-width="2" stroke-miterlimit="22.9256" stroke-linecap="round" stroke-linejoin="round"/>
<path d="M10.3515 39.2188H33.164C34.8899 39.2188 36.289 37.8197 36.289 36.0938V34.5314H13.4765V36.0938C13.4765 37.8197 12.0775 39.2188 10.3515 39.2188ZM10.3515 39.2188C8.6256 39.2188 7.22654 37.8197 7.22654 36.0938V3.90624C7.22654 2.18039 5.8274 0.78125 4.10155 0.78125C2.3757 0.78125 0.976562 2.18039 0.976562 3.90624V5.46873H6.83592" stroke="#01AFD2" stroke-width="2" stroke-miterlimit="22.9256" stroke-linecap="round" stroke-linejoin="round"/>
<path d="M36.0352 18.6888V28.2816L32.3828 26.1317L28.7304 28.2816V18.6888M10.7422 5.46875H23.8096M10.7422 9.08483H19.8047M10.7422 16.317H19.8047M10.7422 19.933H23.8096M10.7422 23.5491H23.8096M10.7422 27.1651H19.8047M10.7422 30.7812H23.8096" stroke="#01AFD2" stroke-width="2" stroke-miterlimit="22.9256" stroke-linecap="round" stroke-linejoin="round"/>
<path fill-rule="evenodd" clip-rule="evenodd" d="M32.3828 6.25049C33.5005 6.25049 34.4406 7.01025 34.7152 8.0415C35.6385 7.50643 36.8405 7.63393 37.6309 8.42432C38.4212 9.21463 38.5487 10.4167 38.0137 11.34C39.0449 11.6146 39.8047 12.5547 39.8047 13.6724C39.8047 14.7901 39.0449 15.7302 38.0137 16.0048C38.5487 16.9281 38.4212 18.1301 37.6309 18.9205C36.8405 19.7108 35.6385 19.8383 34.7152 19.3033C34.4405 20.3346 33.5005 21.0943 32.3828 21.0943C31.2651 21.0943 30.325 20.3346 30.0505 19.3033C29.1271 19.8383 27.9252 19.7109 27.1348 18.9205C26.3445 18.1302 26.217 16.9281 26.752 16.0048C25.7207 15.7302 24.9609 14.7901 24.9609 13.6724C24.9609 12.5546 25.7207 11.6146 26.752 11.34C26.2169 10.4167 26.3444 9.21471 27.1348 8.42432C27.9251 7.634 29.1271 7.5065 30.0505 8.0415C30.325 7.01025 31.2651 6.25049 32.3828 6.25049Z" fill="#DEF7FC"/>
<path d="M32.787 16.1385C34.1495 15.9149 35.0727 14.6291 34.8491 13.2666C34.6255 11.9041 33.3397 10.9809 31.9773 11.2045C30.6148 11.4281 29.6915 12.7139 29.9151 14.0764C30.1387 15.4389 31.4245 16.3621 32.787 16.1385Z" stroke="#01AFD2" stroke-width="2" stroke-miterlimit="22.9256" stroke-linecap="round" stroke-linejoin="round"/>
</g>
<defs>
<clipPath id="clip0_157_4994">
<rect width="40" height="40" fill="white"/>
</clipPath>
</defs>
</svg>
