<svg width="40" height="38" viewBox="0 0 40 38" fill="none" xmlns="http://www.w3.org/2000/svg">
<rect x="1" y="1" width="26" height="22" rx="3" fill="#DEF7FC" stroke="#01AFD2" stroke-width="2"/>
<path fill-rule="evenodd" clip-rule="evenodd" d="M34.89 20.1176C34.4722 20.1173 34.0638 20.2419 33.7168 20.4755C33.4278 19.6518 32.6439 19.0588 31.725 19.0588C31.3072 19.0585 30.8988 19.1831 30.5519 19.4167C30.2628 18.5929 29.4789 18 28.5601 18C28.1761 18 27.8157 18.1035 27.5051 18.2842V15C27.5051 14.5 26.9775 13 25.395 13C23.8126 13 23.3291 14.5 23.2851 15V21.1764V23.6043C22.7576 22.6839 21.748 20.3569 20.245 20.8745C18.7189 21.4 18.7172 23.1571 19.5856 24.9948C20.0727 25.5439 20.8739 28.1388 21.2136 29.3677C21.464 30.2874 21.6132 30.8355 22.2565 31.482L24.3675 33.5996C25.9089 35.1476 27.8193 35.5589 30.0011 35.5589C33.7822 35.5589 37 32.9125 37 29.1176V22.2353C37 21.0674 36.0536 20.1176 34.89 20.1176ZM30 34.5C33.1998 34.5 35.945 32.329 35.945 29.1176V22.2353C35.945 21.6519 35.4724 21.1764 34.89 21.1764C34.3076 21.1764 33.835 21.6518 33.835 22.2353V22.7647C33.835 23.0569 33.5987 23.2941 33.3075 23.2941C33.0163 23.2941 32.78 23.0569 32.78 22.7647V21.1764C32.78 20.593 32.3074 20.1176 31.725 20.1176C31.1427 20.1176 30.6701 20.593 30.6701 21.1764V22.7647C30.6701 23.0569 30.4337 23.2941 30.1426 23.2941C29.8514 23.2941 29.615 23.0569 29.615 22.7647V20.1176C29.615 19.5342 29.1424 19.0588 28.5601 19.0588C27.9777 19.0588 27.5051 19.5342 27.5051 20.1176V22.7647C27.5051 23.0569 27.2688 23.2941 26.9776 23.2941C26.6864 23.2941 26.4501 23.0569 26.4501 22.7647V21.1764V19.3806V15C26.4501 14.4012 26.043 14.0037 25.395 14.0037C24.7471 14.0037 24.3401 14.53 24.3401 15V19.3429V21.1764V25.9412C24.3401 26.2334 24.1038 26.4706 23.8126 26.4706C23.5214 26.4706 23.2851 26.2334 23.2851 25.9412C23.2851 25.5699 22.781 24.7701 22.5289 24.4165C22.4572 24.3072 22.3876 24.2007 22.3201 24.0973C21.3417 22.6003 20.7874 21.7521 20.245 22.0661C19.6651 22.4017 20.317 24.2225 21.0224 25.3853C21.4249 26.2034 22.2301 28.044 22.2301 28.8614C22.2301 29.5676 22.5044 30.2325 23.0023 30.7334L25.1134 32.851C26.4553 34.1989 28.1 34.5 30 34.5Z" fill="black"/>
<path d="M35.945 29.1176C35.945 32.329 33.1998 34.5 30 34.5C28.1 34.5 26.4553 34.1989 25.1134 32.851L23.0023 30.7334C22.5044 30.2325 22.2301 29.5676 22.2301 28.8614C22.2301 28.044 21.4249 26.2034 21.0224 25.3853C20.317 24.2225 19.6651 22.4017 20.245 22.0661C20.7874 21.7521 21.3417 22.6003 22.3201 24.0973C22.3876 24.2007 22.4572 24.3072 22.5289 24.4165C22.781 24.7701 23.2851 25.5699 23.2851 25.9412C23.2851 26.2334 23.5214 26.4706 23.8126 26.4706C24.1038 26.4706 24.3401 26.2334 24.3401 25.9412V21.1764V19.3429V15C24.3401 14.53 24.7471 14.0037 25.395 14.0037C26.043 14.0037 26.4501 14.4012 26.4501 15V19.3806V21.1764V22.7647C26.4501 23.0569 26.6864 23.2941 26.9776 23.2941C27.2688 23.2941 27.5051 23.0569 27.5051 22.7647V20.1176C27.5051 19.5342 27.9777 19.0588 28.5601 19.0588C29.1424 19.0588 29.615 19.5342 29.615 20.1176V22.7647C29.615 23.0569 29.8514 23.2941 30.1426 23.2941C30.4337 23.2941 30.6701 23.0569 30.6701 22.7647V21.1764C30.6701 20.593 31.1427 20.1176 31.725 20.1176C32.3074 20.1176 32.78 20.593 32.78 21.1764V22.7647C32.78 23.0569 33.0163 23.2941 33.3075 23.2941C33.5987 23.2941 33.835 23.0569 33.835 22.7647V22.2353C33.835 21.6518 34.3076 21.1764 34.89 21.1764C35.4724 21.1764 35.945 21.6519 35.945 22.2353V29.1176Z" fill="white"/>
<path d="M34.89 19.1176C34.6349 19.1175 34.3821 19.1489 34.1373 19.2102L34.8907 19.1176C34.8905 19.1176 34.8903 19.1176 34.89 19.1176Z" stroke="white" stroke-width="2"/>
</svg>
