<svg width="24" height="24" fill="#01afd2" xmlns="http://www.w3.org/2000/svg"><path d="M1.057 15.882a.78.78 0 001.023.44l2.386-.973 1.349 5.072-2.036 1.083a.792.792 0 00-.417.775.799.799 0 00.551.686.78.78 0 00.6-.057l2.592-1.379a.797.797 0 00.393-.907l-.098-.369 1.917-.942 3.188.903a3.88 3.88 0 002.933-.331l6.49-3.547c.421-.202.753-.555.93-.99a1.903 1.903 0 00-.876-2.404 1.876 1.876 0 00-1.361-.15l-3.79 1.05a2 2 0 00-.73-.835 1.975 1.975 0 00-1.06-.313H10.18a6.1 6.1 0 00-2.733.65l-1.663.839-.029-.11a.795.795 0 00-.408-.505.78.78 0 00-.646-.026l-3.21 1.306a.802.802 0 00-.434 1.034zm7.094-1.118a4.534 4.534 0 012.029-.483h4.86a.422.422 0 01.035.838l-2.89.242a.782.782 0 00-.708.545.8.8 0 00.25.862.783.783 0 00.588.174l2.891-.243a2.002 2.002 0 001.662-1.222l4.17-1.154a.312.312 0 01.37.194c.054.15-.014.317-.193.404l-6.525 3.565a2.327 2.327 0 01-1.761.199L9.453 17.7a.79.79 0 00-.557.05l-1.912.94-.782-2.944 1.949-.983zm8.467-2.946a.793.793 0 01-.207-.856.796.796 0 01.159-.265c.399-.441.697-.966.872-1.536a.794.794 0 01.664-.55l.981-.108V7.362l-.977-.108a.783.783 0 01-.664-.55 3.997 3.997 0 00-.878-1.534.795.795 0 01-.14-.856l.396-.907-.98-.571-.582.804a.787.787 0 01-.805.306 3.985 3.985 0 00-1.752-.006.773.773 0 01-.806-.306l-.578-.797-.98.57.395.905a.8.8 0 01-.14.856c-.4.441-.697.966-.873 1.536a.794.794 0 01-.664.55l-.982.108v1.141l.977.108a.783.783 0 01.665.55c.175.571.475 1.095.877 1.534a.794.794 0 01.148.88.793.793 0 01-.45.416.78.78 0 01-.857-.224 5.565 5.565 0 01-1.039-1.633l-1.193-.131a.784.784 0 01-.5-.26.798.798 0 01-.2-.529V6.651c0-.196.071-.384.2-.53a.784.784 0 01.5-.259l1.196-.132c.18-.438.415-.85.698-1.228l-.482-1.106a.8.8 0 01.326-1.008l2.2-1.282a.782.782 0 011.028.218l.709.975a5.603 5.603 0 011.402.005l.712-.98a.786.786 0 011.028-.217l2.2 1.282a.8.8 0 01.326 1.008l-.483 1.108c.297.394.523.795.702 1.226l1.193.132a.79.79 0 01.7.788v2.563a.798.798 0 01-.2.53.784.784 0 01-.5.259l-1.197.132a5.605 5.605 0 01-1.033 1.635.789.789 0 01-.546.257.78.78 0 01-.566-.209z"/><path d="M13.582 4.758c-1.735 0-3.145 1.424-3.145 3.174 0 1.751 1.41 3.175 3.145 3.175s3.146-1.424 3.146-3.175c0-1.75-1.41-3.174-3.146-3.174zm0 4.762a1.582 1.582 0 01-1.573-1.588c0-.875.706-1.587 1.573-1.587.868 0 1.573.712 1.573 1.587 0 .876-.705 1.588-1.573 1.588z"/></svg>