<svg width="24" height="24" fill="#01afd2" xmlns="http://www.w3.org/2000/svg"><path d="M2.78 16.088c.796-.515 1.81-.838 2.72-.838a.75.75 0 010 1.5c-.59 0-1.326.223-1.905.598-.603.39-.845.808-.845 1.117 0 .21.102.487.471.82.372.335.963.674 1.786.975 1.642.6 4.048.99 6.993.99 2.945 0 5.35-.39 6.992-.99.824-.3 1.415-.64 1.787-.976.369-.332.471-.61.471-.819 0-.31-.242-.728-.845-1.117-.579-.375-1.314-.598-1.905-.598a.75.75 0 010-1.5c.91 0 1.924.323 2.72.838.772.5 1.53 1.314 1.53 2.377 0 .768-.398 1.42-.966 1.933-.566.51-1.35.932-2.276 1.271-1.859.68-4.453 1.081-7.508 1.081-3.055 0-5.65-.402-7.507-1.08-.927-.34-1.711-.762-2.277-1.272-.568-.513-.966-1.165-.966-1.933 0-1.063.758-1.878 1.53-2.377z"/><path fill-rule="evenodd" clip-rule="evenodd" d="M12 1.25c-3.294 0-5.914 2.77-5.914 6.122 0 .653.221 1.466.52 2.294.306.849.726 1.794 1.184 2.737.918 1.89 2.017 3.824 2.748 5.07a1.686 1.686 0 002.924 0c.732-1.246 1.83-3.18 2.748-5.07.458-.943.878-1.888 1.184-2.737.299-.828.52-1.641.52-2.294 0-3.353-2.62-6.122-5.914-6.122zm0 1.5c-2.41 0-4.414 2.041-4.414 4.622 0 .377.142.984.43 1.785.282.78.677 1.672 1.124 2.591.892 1.837 1.968 3.733 2.691 4.964.047.08.111.106.169.106.058 0 .122-.026.169-.106.723-1.231 1.799-3.127 2.691-4.964l1.123-2.591c.29-.801.43-1.408.43-1.785C16.413 4.79 14.41 2.75 12 2.75z"/><path fill-rule="evenodd" clip-rule="evenodd" d="M12 4.437c-1.383 0-2.453 1.157-2.453 2.522 0 1.364 1.07 2.521 2.453 2.521h.081c1.343-.045 2.372-1.184 2.372-2.521 0-1.358-1.06-2.51-2.433-2.522H12zm0 1.5c-.499 0-.953.429-.953 1.022 0 .592.454 1.022.953 1.022-.021.001.021 0 0 0 .473-.035.953-.455.953-1.022 0-.578-.47-1-.953-1.022z"/></svg>