<svg width="80" height="80" viewBox="0 0 80 80" fill="none" xmlns="http://www.w3.org/2000/svg">
<rect width="80" height="80" rx="40" fill="white"/>
<path d="M63.0621 44.4514C61.3188 45.4834 58.6713 44.2404 58.6713 44.2404C58.6713 44.2404 58.8501 41.3242 60.5934 40.2923C62.3367 39.2604 64.9843 40.5034 64.9843 40.5034C64.9843 40.5034 64.8054 43.4194 63.0621 44.4514Z" stroke="#01AFD2" stroke-width="2" stroke-miterlimit="10" stroke-linecap="round" stroke-linejoin="round"/>
<path d="M60.7397 52.5571C58.631 53.1058 56.2644 51.0354 56.2644 51.0354C56.2644 51.0354 57.3168 48.0754 59.4255 47.5266C61.5343 46.9779 63.9009 49.0483 63.9009 49.0483C63.9009 49.0483 62.8485 52.0084 60.7397 52.5571Z" stroke="#01AFD2" stroke-width="2" stroke-miterlimit="10" stroke-linecap="round" stroke-linejoin="round"/>
<path d="M54.6537 59.5634C52.4853 58.7452 51.7041 55.4965 51.7041 55.4965C51.7041 55.4965 54.4384 53.5743 56.6066 54.3924C58.775 55.2106 59.5563 58.4593 59.5563 58.4593C59.5563 58.4593 56.822 60.3815 54.6537 59.5634Z" stroke="#01AFD2" stroke-width="2" stroke-miterlimit="10" stroke-linecap="round" stroke-linejoin="round"/>
<path d="M58.668 40.4708C58.8453 42.152 58.7533 43.8901 58.3575 45.6301C56.8154 52.4081 51.125 57.1674 44.5677 57.8457" stroke="#01AFD2" stroke-width="2" stroke-miterlimit="10" stroke-linecap="round" stroke-linejoin="round"/>
<path d="M16.9378 44.4514C18.6811 45.4834 21.3286 44.2404 21.3286 44.2404C21.3286 44.2404 21.1498 41.3242 19.4065 40.2923C17.6631 39.2604 15.0156 40.5034 15.0156 40.5034C15.0156 40.5034 15.1945 43.4194 16.9378 44.4514Z" stroke="#01AFD2" stroke-width="2" stroke-miterlimit="10" stroke-linecap="round" stroke-linejoin="round"/>
<path d="M19.2601 52.5571C21.3689 53.1058 23.7355 51.0354 23.7355 51.0354C23.7355 51.0354 22.6831 48.0754 20.5743 47.5266C18.4656 46.9779 16.099 49.0483 16.099 49.0483C16.099 49.0483 17.1514 52.0084 19.2601 52.5571Z" stroke="#01AFD2" stroke-width="2" stroke-miterlimit="10" stroke-linecap="round" stroke-linejoin="round"/>
<path d="M25.3461 59.5634C27.5144 58.7452 28.2957 55.4965 28.2957 55.4965C28.2957 55.4965 25.5614 53.5743 23.3932 54.3924C21.2248 55.2106 20.4435 58.4593 20.4435 58.4593C20.4435 58.4593 23.1777 60.3815 25.3461 59.5634Z" stroke="#01AFD2" stroke-width="2" stroke-miterlimit="10" stroke-linecap="round" stroke-linejoin="round"/>
<path d="M21.3318 40.4708C21.1546 42.152 21.2465 43.8901 21.6424 45.6301C23.1844 52.4081 28.8748 57.1674 35.4321 57.8457" stroke="#01AFD2" stroke-width="2" stroke-miterlimit="10" stroke-linecap="round" stroke-linejoin="round"/>
<path d="M51.7708 25.417C48.8019 25.417 46.3374 23.0742 45.8628 20H34.1372C33.6626 23.0742 31.1981 25.417 28.2292 25.417C27.8079 25.417 27.3968 25.3699 27 25.2801V44.4219C27 45.2953 27.2288 46.1508 27.6599 46.8885C28.0909 47.6262 28.7063 48.2159 29.4345 48.5888L40 54L50.5655 48.5888C51.2937 48.2159 51.9091 47.6262 52.3401 46.8885C52.7711 46.1508 53 45.2953 53 44.4219V25.2801C52.5957 25.3714 52.1838 25.4173 51.7708 25.417Z" stroke="#01AFD2" stroke-width="2" stroke-miterlimit="10" stroke-linecap="round" stroke-linejoin="round"/>
<path d="M37.5256 26C36.1902 28.0832 34.2597 29.6875 32 30.5834V43.9548L40 47.8858L48 43.9548V30.5833C45.7403 29.6874 43.8098 28.0831 42.4744 26H37.5256Z" fill="#DEF7FC" stroke="#01AFD2" stroke-width="2"/>
</svg>
