<svg width="80" height="80" viewBox="0 0 80 80" fill="none" xmlns="http://www.w3.org/2000/svg">
<rect width="80" height="80" rx="40" fill="white"/>
<path fill-rule="evenodd" clip-rule="evenodd" d="M53.2026 17.6562C57.9704 17.6562 61.8354 21.5213 61.8354 26.2891C61.8354 31.0568 57.9704 34.9219 53.2026 34.9219C51.5509 34.9219 50.0077 34.4577 48.6958 33.6531C47.7715 33.9011 46.8472 34.149 45.9228 34.3967C45.4294 34.5359 44.957 34.0845 45.0921 33.5772C45.3408 32.6493 45.5895 31.7224 45.8382 30.7953C45.0337 29.4836 44.5698 27.9405 44.5698 26.289C44.5698 21.5213 48.4349 17.6562 53.2026 17.6562ZM19.5859 48.9375H41.4219V53.4062H19.5859V48.9375Z" fill="#DEF7FC"/>
<path d="M19.5859 39.4922L20.6016 17.6562H25.6798L26.6954 39.4922M20.6016 22.7344H25.6798M31.7735 39.4922L32.7892 17.6562H37.8673L38.883 39.4922M32.7892 22.7344H37.8673M19.5859 57.875H41.4219M45.9919 53.4062H60.4133M47.0075 53.9141V61.8359M59.3976 53.9141V61.8359M53.2026 53.9141V61.8359M45.9919 44.4689H60.4133M45.9919 48.9375H60.4133M56.2495 24.2578L52.187 28.3203L50.1557 26.2891M15.0156 40H64.9844V62.3438H15.0156V40Z" stroke="#01AFD2" stroke-width="2" stroke-miterlimit="22.9256" stroke-linecap="round" stroke-linejoin="round"/>
</svg>
