<svg width="24" height="24" viewBox="0 0 24 24" fill="none" xmlns="http://www.w3.org/2000/svg">
<path d="M4.85714 7.71429C6.43286 7.71429 7.71429 6.43286 7.71429 4.85714C7.71429 3.28143 6.43286 2 4.85714 2C3.28143 2 2 3.28143 2 4.85714C2 6.43286 3.28143 7.71429 4.85714 7.71429ZM4.85714 3.42857C5.645 3.42857 6.28571 4.06929 6.28571 4.85714C6.28571 5.645 5.645 6.28571 4.85714 6.28571C4.06929 6.28571 3.42857 5.645 3.42857 4.85714C3.42857 4.06929 4.06929 3.42857 4.85714 3.42857ZM12 7.71429C13.5757 7.71429 14.8571 6.43286 14.8571 4.85714C14.8571 3.28143 13.5757 2 12 2C10.4243 2 9.14286 3.28143 9.14286 4.85714C9.14286 6.43286 10.4243 7.71429 12 7.71429ZM12 3.42857C12.7879 3.42857 13.4286 4.06929 13.4286 4.85714C13.4286 5.645 12.7879 6.28571 12 6.28571C11.2121 6.28571 10.5714 5.645 10.5714 4.85714C10.5714 4.06929 11.2121 3.42857 12 3.42857ZM19.1429 7.71429C20.7186 7.71429 22 6.43286 22 4.85714C22 3.28143 20.7186 2 19.1429 2C17.5671 2 16.2857 3.28143 16.2857 4.85714C16.2857 6.43286 17.5671 7.71429 19.1429 7.71429ZM19.1429 3.42857C19.9307 3.42857 20.5714 4.06929 20.5714 4.85714C20.5714 5.645 19.9307 6.28571 19.1429 6.28571C18.355 6.28571 17.7143 5.645 17.7143 4.85714C17.7143 4.06929 18.355 3.42857 19.1429 3.42857ZM4.85714 14.8571C6.43286 14.8571 7.71429 13.5757 7.71429 12C7.71429 10.4243 6.43286 9.14286 4.85714 9.14286C3.28143 9.14286 2 10.4243 2 12C2 13.5757 3.28143 14.8571 4.85714 14.8571ZM4.85714 10.5714C5.645 10.5714 6.28571 11.2121 6.28571 12C6.28571 12.7879 5.645 13.4286 4.85714 13.4286C4.06929 13.4286 3.42857 12.7879 3.42857 12C3.42857 11.2121 4.06929 10.5714 4.85714 10.5714ZM12 14.8571C13.5757 14.8571 14.8571 13.5757 14.8571 12C14.8571 10.4243 13.5757 9.14286 12 9.14286C10.4243 9.14286 9.14286 10.4243 9.14286 12C9.14286 13.5757 10.4243 14.8571 12 14.8571ZM12 10.5714C12.7879 10.5714 13.4286 11.2121 13.4286 12C13.4286 12.7879 12.7879 13.4286 12 13.4286C11.2121 13.4286 10.5714 12.7879 10.5714 12C10.5714 11.2121 11.2121 10.5714 12 10.5714ZM19.1429 9.14286C17.5671 9.14286 16.2857 10.4243 16.2857 12C16.2857 13.5757 17.5671 14.8571 19.1429 14.8571C20.7186 14.8571 22 13.5757 22 12C22 10.4243 20.7186 9.14286 19.1429 9.14286ZM19.1429 13.4286C18.355 13.4286 17.7143 12.7879 17.7143 12C17.7143 11.2121 18.355 10.5714 19.1429 10.5714C19.9307 10.5714 20.5714 11.2121 20.5714 12C20.5714 12.7879 19.9307 13.4286 19.1429 13.4286ZM4.85714 22C6.43286 22 7.71429 20.7186 7.71429 19.1429C7.71429 17.5671 6.43286 16.2857 4.85714 16.2857C3.28143 16.2857 2 17.5671 2 19.1429C2 20.7186 3.28143 22 4.85714 22ZM4.85714 17.7143C5.645 17.7143 6.28571 18.355 6.28571 19.1429C6.28571 19.9307 5.645 20.5714 4.85714 20.5714C4.06929 20.5714 3.42857 19.9307 3.42857 19.1429C3.42857 18.355 4.06929 17.7143 4.85714 17.7143ZM12 22C13.5757 22 14.8571 20.7186 14.8571 19.1429C14.8571 17.5671 13.5757 16.2857 12 16.2857C10.4243 16.2857 9.14286 17.5671 9.14286 19.1429C9.14286 20.7186 10.4243 22 12 22ZM12 17.7143C12.7879 17.7143 13.4286 18.355 13.4286 19.1429C13.4286 19.9307 12.7879 20.5714 12 20.5714C11.2121 20.5714 10.5714 19.9307 10.5714 19.1429C10.5714 18.355 11.2121 17.7143 12 17.7143ZM19.1429 16.2857C17.5671 16.2857 16.2857 17.5671 16.2857 19.1429C16.2857 20.7186 17.5671 22 19.1429 22C20.7186 22 22 20.7186 22 19.1429C22 17.5671 20.7186 16.2857 19.1429 16.2857ZM19.1429 20.5714C18.355 20.5714 17.7143 19.9307 17.7143 19.1429C17.7143 18.355 18.355 17.7143 19.1429 17.7143C19.9307 17.7143 20.5714 18.355 20.5714 19.1429C20.5714 19.9307 19.9307 20.5714 19.1429 20.5714Z" fill="#01AFD2"/>
</svg>
