<svg width="24" height="24" viewBox="0 0 24 24" fill="none" xmlns="http://www.w3.org/2000/svg">
<path d="M17.8929 23C16.3764 23 15.1429 21.7664 15.1429 20.25V9.93121C14.4191 9.47148 13.8234 8.83611 13.4113 8.08423C12.9991 7.33235 12.7839 6.48842 12.7857 5.631C12.784 4.68993 13.0433 3.76683 13.5349 2.96437C14.0265 2.16191 14.7311 1.51155 15.5703 1.08564C15.6902 1.02471 15.8237 0.995499 15.9581 1.00081C16.0924 1.00611 16.2232 1.04575 16.3379 1.11595C16.4527 1.18615 16.5475 1.28457 16.6133 1.40181C16.6792 1.51906 16.714 1.65123 16.7143 1.78571V5.18236L17.8929 5.65379L19.0714 5.18236V1.78571C19.0717 1.65123 19.1065 1.51906 19.1724 1.40181C19.2382 1.28457 19.3331 1.18615 19.4478 1.11595C19.5625 1.04575 19.6933 1.00611 19.8276 1.00081C19.962 0.995499 20.0955 1.02471 20.2154 1.08564C21.0546 1.51175 21.7592 2.16226 22.2507 2.96484C22.7423 3.76742 23.0017 4.69062 23 5.63179C23.0015 6.48917 22.7862 7.33301 22.3741 8.08486C21.962 8.8367 21.3665 9.47211 20.6429 9.932V20.25C20.6429 21.7664 19.4093 23 17.8929 23ZM15.1429 3.409C14.6424 4.02579 14.3571 4.80364 14.3571 5.631C14.3571 6.962 15.0965 8.16807 16.2869 8.77779C16.4155 8.84373 16.5236 8.9439 16.599 9.06728C16.6744 9.19067 16.7143 9.33247 16.7143 9.47707V20.25C16.7143 20.8998 17.2431 21.4286 17.8929 21.4286C18.5426 21.4286 19.0714 20.8998 19.0714 20.25V9.47707C19.0714 9.33247 19.1113 9.19067 19.1867 9.06728C19.2622 8.9439 19.3702 8.84373 19.4988 8.77779C20.0799 8.48311 20.5679 8.03307 20.9086 7.47768C21.2493 6.9223 21.4293 6.28333 21.4286 5.63179C21.43 4.8228 21.1525 4.03804 20.6429 3.40979V5.71429C20.6429 6.03564 20.4472 6.324 20.1494 6.44421L18.1851 7.22993C17.9979 7.30539 17.7886 7.30539 17.6014 7.22993L15.6371 6.44421C15.4913 6.38574 15.3663 6.28498 15.2782 6.1549C15.1902 6.02483 15.143 5.87137 15.1429 5.71429V3.409Z" fill="#01AFD2"/>
<path d="M12.8439 23H11.1569C10.7615 22.9985 10.3811 22.8487 10.091 22.58C9.80082 22.3114 9.62211 21.9437 9.59021 21.5496L9.49121 20.2649C8.95129 20.101 8.42887 19.8841 7.93157 19.6175L6.95257 20.4559C6.65152 20.7121 6.26524 20.8459 5.8702 20.831C5.47515 20.816 5.10013 20.6532 4.81936 20.3749L3.62507 19.1799C3.34677 18.899 3.18397 18.5239 3.16884 18.1288C3.15371 17.7336 3.28735 17.3472 3.54336 17.0459L4.38171 16.0676C4.1151 15.5703 3.89824 15.0479 3.73428 14.508L2.45043 14.4098C2.05639 14.3781 1.68864 14.1995 1.42001 13.9095C1.15139 13.6195 1.00148 13.2392 1 12.8439V11.1561C1 10.3398 1.63721 9.6515 2.45121 9.58943L3.73507 9.49121C3.8985 8.95143 4.11536 8.42971 4.3825 7.93157L3.54336 6.95179C3.28728 6.65041 3.15367 6.2639 3.16894 5.86872C3.18422 5.47354 3.34728 5.09849 3.62586 4.81779L4.81857 3.62429C5.09938 3.34582 5.47448 3.18291 5.86965 3.16778C6.26483 3.15264 6.65129 3.2864 6.95257 3.54257L7.93157 4.38093C8.42887 4.11431 8.95129 3.89745 9.49121 3.7335L9.59021 2.44886C9.62247 2.05517 9.80123 1.6879 10.0912 1.41964C10.3811 1.15138 10.7611 1.00163 11.1561 1H12C12.2084 1 12.4082 1.08278 12.5556 1.23013C12.7029 1.37748 12.7857 1.57733 12.7857 1.78571C12.7857 1.9941 12.7029 2.19395 12.5556 2.3413C12.4082 2.48865 12.2084 2.57143 12 2.57143H11.1561L11.0147 4.41079C11.0018 4.57752 10.936 4.73578 10.8269 4.86254C10.7178 4.9893 10.5711 5.07794 10.4081 5.11557C9.64733 5.29083 8.92124 5.59226 8.26 6.00736C8.11825 6.09667 7.95156 6.13808 7.7845 6.12549C7.61743 6.1129 7.45883 6.04697 7.33207 5.93743L5.92957 4.73607L4.73686 5.93036L5.93821 7.33207C6.16214 7.59293 6.18964 7.96929 6.00736 8.26C5.59286 8.92156 5.29148 9.64754 5.11557 10.4081C5.07801 10.5713 4.98929 10.7181 4.86235 10.8272C4.73541 10.9364 4.57692 11.0021 4.41 11.0147L2.57143 11.1561V12.8439L4.41 12.9853C4.57688 12.9981 4.73531 13.0638 4.86223 13.1729C4.98914 13.282 5.0779 13.4288 5.11557 13.5919C5.29083 14.3527 5.59226 15.0788 6.00736 15.74C6.09617 15.8819 6.13736 16.0484 6.12492 16.2153C6.11248 16.3822 6.04707 16.5408 5.93821 16.6679L4.73686 18.0696L5.93036 19.2639L7.33207 18.0626C7.45901 17.9534 7.61757 17.8877 7.78454 17.8751C7.95151 17.8625 8.11813 17.9037 8.26 17.9926C8.92628 18.4091 9.64914 18.7092 10.4081 18.8844C10.5711 18.9221 10.7178 19.0107 10.8269 19.1375C10.936 19.2642 11.0018 19.4225 11.0147 19.5892L11.1561 21.4286H12.8431C12.8502 21.3251 12.8778 21.2241 12.9242 21.1314C12.9706 21.0386 13.0349 20.956 13.1134 20.8882C13.1919 20.8204 13.283 20.7689 13.3815 20.7365C13.4801 20.7041 13.584 20.6915 13.6874 20.6995C13.7908 20.7075 13.8916 20.7359 13.984 20.783C14.0763 20.8301 14.1585 20.8951 14.2256 20.9741C14.2928 21.0531 14.3436 21.1447 14.3752 21.2434C14.4068 21.3422 14.4186 21.4462 14.4098 21.5496C14.3779 21.9435 14.1993 22.3112 13.9093 22.5798C13.6193 22.8484 13.2391 22.9983 12.8439 23Z" fill="#01AFD2"/>
<path d="M6.5 12C6.49577 10.6988 6.95473 9.43859 7.79472 8.44485C8.63471 7.45111 9.80092 6.78872 11.0846 6.57621C11.1864 6.55868 11.2907 6.5615 11.3914 6.58449C11.4921 6.60749 11.5872 6.65021 11.6713 6.71019C11.7554 6.77017 11.8268 6.84622 11.8813 6.93395C11.9358 7.02167 11.9724 7.11933 11.989 7.22129C12.0233 7.42675 11.9746 7.63742 11.8537 7.80701C11.7327 7.97659 11.5494 8.0912 11.3439 8.12564C10.4274 8.278 9.59494 8.7514 8.9954 9.4612C8.39587 10.171 8.06836 11.0709 8.07143 12C8.07143 14.7131 10.7664 16.6051 13.3098 15.7054C13.5041 15.6436 13.7148 15.6598 13.8975 15.7505C14.0801 15.8413 14.2203 15.9994 14.2884 16.1916C14.3566 16.3838 14.3473 16.595 14.2626 16.7805C14.178 16.966 14.0245 17.1113 13.8346 17.1857C10.2573 18.4515 6.5 15.784 6.5 12Z" fill="#01AFD2"/>
</svg>
