<svg width="80" height="80" viewBox="0 0 80 80" fill="none" xmlns="http://www.w3.org/2000/svg">
<rect width="80" height="80" rx="40" fill="white"/>
<g clip-path="url(#clip0_2055_2343)">
<path fill-rule="evenodd" clip-rule="evenodd" d="M58.8906 25.0199V19.078H43.7579C45.0102 23.7517 40.7747 26.3762 41.612 29.2678C42.6283 32.778 46.8109 31.6195 47.7231 35.0235C48.4737 37.8249 44.5826 40.7363 45.9587 43.0117C47.9151 46.2464 54.745 39.1876 58.8906 39.1876V27.7621L60.6679 26.391L58.8906 25.0199Z" fill="#DEF7FC"/>
<path fill-rule="evenodd" clip-rule="evenodd" d="M37.903 44.2297C36.8174 43.6029 35.4735 43.42 33.9574 43.5474C32.601 45.4532 30.9734 47.2285 29.8436 48.5243C29.0917 47.6618 28.1193 46.587 27.153 45.4027C19.29 48.4973 21.6571 45.383 15.0155 45.383V60.9064C15.0238 58.6699 16.8394 56.8593 19.078 56.8593L47.0078 56.8594C47.0078 51.1475 43.027 52.9585 40.4108 50.7096C38.8964 49.4076 41.2874 46.1837 37.903 44.2297Z" fill="#DEF7FC"/>
<path d="M15.0155 60.9218V23.1527C14.9997 20.9077 16.8389 19.0779 19.078 19.0779H23.2933L25.5277 22.1248L27.8128 19.0779L29.3363 20.8553L30.9105 19.0779L58.3827 19.078" stroke="#01AFD2" stroke-width="2" stroke-miterlimit="22.926" stroke-linecap="round" stroke-linejoin="round"/>
<path d="M64.9842 52.7969V19.0782C64.9842 16.8344 63.1654 15.0156 60.9217 15.0156L58.8906 15.0157V25.02L60.6679 26.391L58.8906 27.7621V48.7344H60.9217C63.1654 48.7344 64.9842 50.5532 64.9842 52.7969ZM64.9842 52.7969C64.9842 55.0405 63.1654 56.8594 60.9217 56.8594H55.2354L53.5342 53.6348L51.8838 56.8594H19.078C16.8343 56.8594 15.0155 58.6782 15.0155 60.9219C15.0155 63.1655 16.8343 64.9844 19.078 64.9844H21.1091V57.3672" stroke="#01AFD2" stroke-width="2" stroke-miterlimit="22.926" stroke-linecap="round" stroke-linejoin="round"/>
<path d="M29.8436 31.0694C26.1977 31.0694 23.2421 34.025 23.2421 37.6709C23.2421 41.3268 27.5601 45.905 29.8436 48.5243C32.1271 45.905 36.4452 41.3268 36.4452 37.6709C36.4452 34.025 33.4895 31.0694 29.8436 31.0694Z" stroke="#01AFD2" stroke-width="2" stroke-miterlimit="22.926" stroke-linecap="round" stroke-linejoin="round"/>
<path d="M29.8436 40.0286C31.1422 40.0286 32.2014 38.9694 32.2014 37.6709C32.2014 36.3723 31.1422 35.3131 29.8436 35.3131C28.5451 35.3131 27.486 36.3723 27.486 37.6709C27.486 38.9694 28.5451 40.0286 29.8436 40.0286Z" stroke="#01AFD2" stroke-width="2" stroke-miterlimit="22.926" stroke-linecap="round" stroke-linejoin="round"/>
</g>
<defs>
<clipPath id="clip0_2055_2343">
<rect width="52" height="52" fill="white" transform="translate(14 14)"/>
</clipPath>
</defs>
</svg>
