<svg width="24" height="24" viewBox="0 0 24 24" fill="none" xmlns="http://www.w3.org/2000/svg">
<path fill-rule="evenodd" clip-rule="evenodd" d="M21.8886 6.58999C21.954 6.69578 21.991 6.81606 21.9963 6.93965C21.9963 6.95065 22 6.96899 22 6.96899V17.031C21.9999 17.1596 21.9652 17.2859 21.8996 17.3973C21.8339 17.5086 21.7395 17.6011 21.6259 17.6654L12.3741 22.9017C12.2604 22.9661 12.1313 23 12 23C11.8687 23 11.7396 22.9661 11.6259 22.9017L2.37411 17.6654C2.26048 17.6011 2.1661 17.5086 2.10043 17.3973C2.03477 17.2859 2.00013 17.1596 2 17.031V6.96899C2.00013 6.84038 2.03477 6.71407 2.10043 6.60272C2.1661 6.49138 2.26048 6.39892 2.37411 6.33461L11.6259 1.09825C11.7396 1.03389 11.8687 1 12 1C12.1313 1 12.2604 1.03389 12.3741 1.09825L21.6221 6.33461C21.7315 6.39635 21.8232 6.48421 21.8886 6.58999ZM11.2518 12.627L3.49645 8.23774V16.5983L11.2518 20.9986V12.627ZM12.7482 12.627V20.9986L20.5036 16.6093V8.22674L12.7482 12.627ZM19.7369 7.09121L12 2.7884L4.26304 7.06969L12 11.3725L19.7369 7.09121Z" fill="#01AFD2"/>
</svg>
