<svg width="308" height="61" viewBox="0 0 308 61" fill="none" xmlns="http://www.w3.org/2000/svg">
<path d="M210.969 0.702282C210.756 0.744959 210.137 0.830263 210.137 0.830263C208.985 1.02223 208.217 1.32084 208.217 1.32084C208.025 1.40617 207.667 1.59814 207.33 1.71331C205.982 2.17404 203.883 3.55623 202.535 4.87016C200.931 6.44005 199.719 8.48773 198.883 11.1327C198.354 12.7708 198.337 12.9585 198.32 15.6546C198.32 18.146 198.371 18.6238 198.713 19.75C200.112 24.1525 203.183 27.48 207.176 28.9134C209.361 29.6813 213.149 29.9713 215.555 29.5277C217.824 29.1181 220.572 27.5994 222.227 25.876C223.848 24.1696 225.077 22.3096 224.599 22.3096C224.548 22.3096 223.728 23.0945 222.773 24.0672C220.009 26.8145 218.439 27.5653 215.128 27.7189C211.05 27.9066 208.524 27.0022 206.118 24.4767C203.576 21.7977 202.535 17.2074 203.337 12.1565C203.866 8.77782 204.651 6.83252 206.153 5.09199C208.132 2.80541 210.384 1.83276 213.763 1.83276C216.749 1.83276 218.643 2.58357 220.589 4.54594C221.63 5.58684 222.039 6.16702 222.67 7.46389C223.097 8.35122 223.507 9.3068 223.558 9.56276C223.626 9.83579 223.711 9.99789 223.831 9.9467C223.831 9.53716 223.831 7.06714 223.831 3.4837C223.831 2.08873 223.831 2.23373 223.831 0.732122C223.831 0.317398 223.421 0.416444 222.961 0.911301C222.739 1.1502 222.261 1.49148 221.92 1.67918L221.305 2.0034L219.445 1.47441C216.988 0.757724 216.135 0.621213 213.405 0.518828C211.929 0.518828 211.481 0.638292 210.969 0.702282Z" fill="black"/>
<path d="M105.978 1.99066C105.808 2.28075 104.528 5.06219 103.146 8.18491C101.763 11.3076 100.552 13.8672 100.484 13.9014C100.398 13.9355 100.33 14.1061 100.33 14.2597C100.33 14.4303 99.818 15.676 99.2037 17.0241C97.5485 20.6246 97.3608 21.0512 96.6612 22.6381C96.3199 23.4401 95.808 24.5664 95.535 25.1636C95.2619 25.7609 95.0401 26.2728 95.0401 26.3069C95.0401 26.3581 94.7671 26.9895 94.4258 27.7061C94.0845 28.4399 93.6238 29.4979 93.3849 30.061C93.146 30.6241 92.7365 31.5456 92.4805 32.1087C92.0539 33.0131 90.9789 35.3679 89.8356 37.9104C89.6308 38.3712 89.0848 39.5998 88.6411 40.6407C88.1974 41.6645 87.6002 43.0126 87.3101 43.6269C87.0371 44.2412 86.6446 45.1115 86.4228 45.5892C84.8188 49.2068 82.6687 53.524 82.0544 54.4113C81.8667 54.6502 81.7302 54.9233 81.7302 55.0257C81.7302 55.111 81.1159 55.7594 80.3821 56.4761C79.2388 57.5511 78.8122 57.8242 77.7201 58.2166C76.5939 58.6262 76.2697 58.6774 75.1093 58.592C73.7101 58.4897 73.2152 58.3019 72.2938 57.517C71.287 56.6467 70.8604 55.7935 70.7239 54.4113C70.5532 52.5855 70.502 12.8775 70.6727 10.1814C70.7409 8.91866 70.9287 7.51941 71.0822 7.07574C71.3723 6.20548 72.2596 5.26696 73.2152 4.84036C74.0002 4.48201 75.7748 4.20899 77.2765 4.20899C78.4539 4.20899 78.5051 4.19192 78.6757 3.74826C79.017 2.8268 79.2559 2.84387 66.8162 2.84387H55.3663L55.1615 3.30459C55.0591 3.57762 54.4277 5.13045 53.7622 6.76859C53.1138 8.40674 52.1753 10.7104 51.6804 11.8878C50.5542 14.618 50.1617 15.5566 49.428 17.3483C48.3018 20.0615 46.7148 23.9179 45.981 25.7097C45.5886 26.6994 44.8207 28.5423 44.2746 29.805C42.9607 32.9277 41.0154 37.6545 40.4523 39.0708C40.1622 39.8557 39.9233 40.2141 39.7527 40.18C39.4967 40.1288 39.1042 39.2926 36.7665 33.7298C36.2204 32.467 35.6573 31.119 35.4867 30.7435C35.316 30.3681 34.8894 29.3614 34.5481 28.5252C34.2069 27.672 33.8315 26.7506 33.6949 26.4775C33.5755 26.1875 32.8417 24.4981 32.0909 22.7235C30.1286 18.1674 29.9238 17.7066 29.5313 16.8022C29.3266 16.3586 29.173 15.949 29.173 15.8978C29.173 15.8467 28.8658 15.0958 28.4734 14.2426C27.3983 11.8195 27.1082 11.154 26.9547 10.7786C26.767 10.3691 24.5145 4.97687 24.0026 3.7312L23.6272 2.8268L12.0919 2.87799C-0.108883 2.92919 -0.00649829 2.92919 -0.00649829 3.69707C-0.00649829 4.07248 0.45423 4.20899 1.7511 4.20899C3.69639 4.20899 5.07858 4.55027 6.20481 5.30109C7.67231 6.2908 7.97946 6.97336 8.18423 9.58416C8.40607 12.3144 8.389 51.1862 8.18423 52.8244C7.99653 54.2407 7.39929 55.657 6.52902 56.715C5.86353 57.5511 4.34483 58.3361 2.86026 58.6262C-0.14301 59.2063 -0.00649829 59.1551 -0.00649829 59.5817C-0.00649829 59.8377 0.11295 60.0084 0.385974 60.0766C0.880831 60.2131 18.3203 60.2131 19.1393 60.0766C19.583 59.9913 19.8219 59.8548 19.8902 59.6159C20.0608 59.0869 19.4806 58.7797 18.2008 58.7115C16.8528 58.6262 14.8221 58.1142 14.7198 57.8412C14.6686 57.7218 14.515 57.6194 14.3785 57.6194C13.9007 57.6194 12.3308 55.7935 11.9042 54.7697L11.5117 53.78L11.4605 31.2896C11.4264 15.0105 11.4605 8.79921 11.597 8.8504C11.6994 8.88453 12.0066 9.41352 12.2625 10.0108C12.5185 10.6251 13.4058 12.6898 14.2249 14.618C15.044 16.5463 15.8289 18.338 15.9484 18.6281C16.0849 18.9011 16.6992 20.3345 17.3135 21.7849C17.9449 23.2354 18.6615 24.9247 18.9346 25.539C19.1905 26.1533 19.6171 27.143 19.8731 27.7573C20.1461 28.3716 20.5386 29.276 20.7434 29.788C20.9652 30.2828 21.1529 30.8459 21.1529 31.0166C21.1529 31.2043 21.2211 31.3408 21.3065 31.3408C21.3918 31.3408 21.5454 31.5456 21.6307 31.8015C21.7331 32.0745 22.0743 32.8936 22.3986 33.6444C22.7228 34.3952 23.303 35.7774 23.6954 36.716C24.105 37.6545 24.6851 39.0025 24.9923 39.7022C25.2994 40.4018 25.8626 41.7157 26.255 42.603C26.6304 43.4904 27.6884 45.9476 28.5928 48.0635C29.4972 50.1795 30.8111 53.251 31.5108 54.8891C33.7803 60.2472 33.9168 60.4861 34.5311 60.2472C34.8041 60.1449 34.8553 60.0254 36.2887 56.5273C36.8859 55.0257 37.5514 53.4558 37.7391 53.0292C38.6947 50.8791 39.7186 48.4901 40.2817 47.0397C40.5718 46.3401 40.896 45.5722 41.0325 45.3333C41.1519 45.0944 41.7662 43.6439 42.3976 42.0911C43.029 40.5383 43.6945 38.9343 43.8822 38.5077C44.3429 37.5009 47.8069 29.276 48.5748 27.4161C48.899 26.6141 49.2403 25.9315 49.3256 25.9144C49.4109 25.8803 49.4792 25.7438 49.4792 25.5902C49.4792 25.4537 49.701 24.8223 49.974 24.208C50.2471 23.5767 50.8614 22.1092 51.3562 20.9317C51.8511 19.7543 52.363 18.5598 52.4824 18.2868C53.0797 16.9388 54.0353 14.6351 55.0079 12.2291C56.2365 9.20875 56.4242 8.81627 56.6631 8.81627C56.7655 8.81627 56.8167 16.734 56.7826 31.9722L56.7314 55.1451L56.373 55.93C56.1683 56.3737 55.7246 57.0392 55.3833 57.4146C54.8543 57.9948 54.5643 58.1484 53.438 58.4385C52.7213 58.6262 51.3733 58.8309 50.4689 58.8992C49.0014 59.0016 48.7966 59.0528 48.6942 59.3599C48.4212 60.2131 47.4144 60.179 71.6112 60.179C84.0168 60.179 94.2893 60.1278 94.4258 60.0766C94.5965 60.0084 94.6988 59.7695 94.6988 59.4111C94.6988 58.8821 94.6647 58.848 93.9821 58.7627C89.8015 58.3019 89.2554 58.1484 88.2828 57.1587C87.3101 56.186 87.1395 55.6229 87.2419 53.6435C87.3442 51.5958 87.4637 51.2204 89.2895 46.9885L90.6888 43.7975L100.757 43.8317L110.807 43.8828L111.592 45.4527C112.019 46.3059 112.548 47.4663 112.77 48.0123C113.009 48.5584 113.452 49.5822 113.776 50.2819C115.517 54.1213 115.875 55.9812 115.142 57.2952C114.834 57.8412 114.613 58.0119 113.742 58.3019C113.179 58.4897 112.394 58.6432 111.985 58.6432C110.705 58.6432 108.725 59.0016 108.623 59.2575C108.504 59.5817 108.657 59.9572 108.964 60.0766C109.408 60.2472 154.645 60.1961 154.815 60.0254C154.901 59.9401 154.935 59.6671 154.901 59.394C154.85 58.8992 154.85 58.8992 153.314 58.7627C150.157 58.4897 148.689 57.8583 147.7 56.3396C146.864 55.0768 147.188 53.5411 148.809 51.1009C149.167 50.5549 149.543 50.0259 149.645 49.9064C149.73 49.787 150.225 49.1386 150.703 48.4901C151.198 47.8246 151.676 47.2103 151.778 47.125C151.897 47.0226 152.597 46.1694 153.365 45.2309C154.133 44.2753 154.85 43.388 154.986 43.2685C155.105 43.132 156.044 41.9887 157.068 40.726C159.286 37.9958 159.73 37.4838 159.883 37.4838C159.952 37.4838 160.225 37.8081 160.498 38.2005C160.771 38.6101 161.027 38.9684 161.078 39.0196C161.129 39.0708 162.341 40.8454 163.757 42.9785C166.863 47.6028 167.443 48.456 167.562 48.5755C167.613 48.6266 167.869 49.0021 168.142 49.4287C168.415 49.8553 168.927 50.6231 169.269 51.1351C170.821 53.4387 171.555 54.9915 171.521 55.8789C171.453 57.6194 170.685 58.1825 167.699 58.6432C166.504 58.8309 166.385 58.8992 166.317 59.2917C166.129 60.2302 165.344 60.179 180.104 60.179C187.647 60.179 193.926 60.1278 194.08 60.0766C194.438 59.9401 194.421 59.1551 194.063 58.8821C193.892 58.7627 193.585 58.6432 193.363 58.6432C193.158 58.6432 192.851 58.575 192.68 58.4897C192.527 58.4043 191.964 58.1313 191.435 57.8924C190.565 57.4829 189.728 56.7662 188.38 55.2475C188.107 54.9233 187.868 54.5991 187.868 54.5308C187.868 54.4625 187.766 54.2919 187.647 54.1725C187.527 54.053 186.93 53.2169 186.316 52.3295C185.718 51.4422 185.189 50.6743 185.138 50.6231C185.087 50.5719 183.739 48.5755 182.152 46.1865C180.565 43.7975 179.217 41.801 179.166 41.7498C179.08 41.6645 173.637 33.5762 170.958 29.532C170.241 28.457 169.525 27.4331 169.371 27.2795C168.961 26.8188 169.047 26.2045 169.576 25.6073C170.327 24.737 170.685 24.3104 171.316 23.4913C171.641 23.0818 172.118 22.5016 172.374 22.2115C172.63 21.9385 173.296 21.1194 173.876 20.4198C174.456 19.7202 175.241 18.7646 175.634 18.3039C176.026 17.8261 176.879 16.8022 177.528 16.0002C179.097 14.0549 180.036 12.9458 180.446 12.485C180.633 12.2803 180.906 11.9561 181.043 11.7684C181.179 11.5806 181.725 10.9322 182.237 10.335C182.749 9.73773 183.637 8.71389 184.217 8.04839C186.316 5.60824 188.602 4.37963 191.025 4.37963C192.169 4.37963 192.476 4.19192 192.476 3.50936C192.476 3.18515 192.373 3.03157 192.1 2.94625C191.878 2.89506 187.203 2.84387 181.708 2.84387C171.146 2.84387 171.026 2.86093 171.163 3.61175C171.231 3.97009 171.521 4.05541 173.535 4.39669C175.77 4.7721 176.999 5.6253 177.476 7.10987C177.852 8.30435 177.749 9.25994 177.118 10.608C176.555 11.7854 175.292 13.8502 174.866 14.2938C174.729 14.4303 174.047 15.3006 173.33 16.2391C172.596 17.1776 171.811 18.1674 171.555 18.4574C171.316 18.7305 170.907 19.2424 170.651 19.5666C170.412 19.8908 170.173 20.198 170.122 20.2492C170.054 20.3004 169.61 20.8293 169.115 21.4437C168.603 22.058 168.142 22.5869 168.074 22.6381C168.006 22.6893 167.869 22.8941 167.75 23.0989C167.375 23.8156 166.982 23.5596 165.856 21.9044C163.245 18.0991 162.955 17.6725 162.955 17.6042C162.955 17.5531 162.562 16.9729 162.085 16.2903C161.607 15.6078 160.412 13.816 159.423 12.3144C158.433 10.8128 157.494 9.37939 157.324 9.14049C156.454 7.87775 156.573 6.01777 157.58 5.13045C158.177 4.60146 158.877 4.41376 161.504 4.12367C162.904 3.97009 163.228 3.15102 161.965 2.94625C161.624 2.89506 155.276 2.84387 147.853 2.84387C135.192 2.8268 134.373 2.84387 134.168 3.11689C133.69 3.76532 134.134 4.27724 135.311 4.46495C136.164 4.60146 137.154 5.06219 138.007 5.69356C138.758 6.25667 140.703 8.88453 143.041 12.485C143.707 13.5089 144.287 14.3962 144.338 14.4474C144.509 14.601 145.191 15.5907 147.87 19.5666C149.287 21.6826 151.095 24.3616 151.897 25.539C152.699 26.7164 153.757 28.2863 154.269 29.0371C156.351 32.0916 157.563 33.8321 157.785 34.0881C157.904 34.2246 158.006 34.4464 158.006 34.5659C158.006 34.7536 156.181 37.1255 155.105 38.337C154.901 38.5759 154.525 39.0367 154.269 39.3609C154.03 39.6851 153.757 40.0434 153.655 40.1458C153.57 40.2482 153.211 40.6577 152.887 41.0673C152.239 41.8864 151.317 42.9785 151.181 43.115C151.13 43.1662 150.822 43.5416 150.498 43.9682C150.174 44.3948 149.799 44.8555 149.645 44.992C149.508 45.1285 148.86 45.8964 148.212 46.6984C147.58 47.5004 146.812 48.4219 146.505 48.7461C146.215 49.0703 145.635 49.7699 145.208 50.2819C143.843 51.9541 143.451 52.3807 141.625 54.2236C139.833 56.0324 138.451 57.0733 137.018 57.7388C134.748 58.7797 133.878 58.6262 132.154 56.8515C131.113 55.7765 130.772 55.2475 129.561 52.8244C128.793 51.2886 127.854 49.3263 127.479 48.4901C126.865 47.0568 126.557 46.3913 125.516 44.0876C125.295 43.6098 124.919 42.7396 124.68 42.1764C123.622 39.651 121.165 34.0369 119.527 30.4023C119.322 29.9245 118.93 29.0542 118.674 28.4399C117.821 26.4605 117.019 24.6346 116.438 23.3036C116.114 22.5869 115.858 21.9556 115.858 21.9044C115.858 21.8532 115.5 21.0682 115.073 20.1468C114.169 18.1844 114.34 18.5598 112.787 14.9593C112.121 13.4065 111.422 11.8366 111.268 11.4612C111.097 11.0858 110.244 9.15756 109.391 7.19519C106.644 0.915631 106.644 0.915631 105.978 1.99066ZM101.456 21.7337C101.593 22.0921 101.78 22.5358 101.866 22.7235C101.951 22.9112 102.258 23.6449 102.548 24.3445C102.838 25.0442 103.18 25.8462 103.299 26.1363C103.436 26.4093 103.862 27.4161 104.255 28.3546C104.664 29.2931 105.279 30.7435 105.637 31.5797C106.012 32.4158 106.302 33.2178 106.302 33.3373C106.302 33.4567 106.388 33.5591 106.473 33.5591C106.575 33.5591 106.644 33.6444 106.644 33.7298C106.644 33.9516 108.026 37.1767 108.589 38.3029C108.811 38.7466 109.05 39.4121 109.118 39.7534L109.237 40.3847H100.859C91.4567 40.3847 92.1904 40.5042 92.8389 39.0537C93.0266 38.6101 93.4873 37.6033 93.8456 36.8013C94.204 35.9993 95.0401 34.1052 95.7056 32.5694C96.3882 31.0336 97.1561 29.3102 97.412 28.73C97.8898 27.7061 100.091 22.7917 100.586 21.6484C100.91 20.9317 101.149 20.9488 101.456 21.7337Z" fill="#00AFD2"/>
<path d="M273.223 7.29767C273.086 7.50244 272.574 8.59454 272.079 9.73783C269.127 16.444 265.254 24.9078 264.622 25.9998C263.855 27.3308 263.377 27.7916 262.524 27.9963C261.909 28.1499 261.551 28.4229 261.687 28.6277C261.807 28.8325 268.752 28.8325 268.752 28.6277C268.752 28.5424 268.138 28.2694 267.37 28.0134C266.619 27.7574 265.953 27.4503 265.919 27.3308C265.8 27.0408 266.192 25.761 266.926 24.0716C267.95 21.6997 267.301 21.9557 272.438 21.9557C275.799 21.9557 276.943 22.0069 277.079 22.1604C277.164 22.2799 277.591 23.2013 278.035 24.1911C279.246 27.0066 279.127 27.638 277.267 28.1158C276.806 28.2352 276.431 28.44 276.431 28.5595C276.431 28.7472 277.966 28.7813 284.519 28.7813C292.283 28.7813 293.802 28.6789 292.181 28.3035C291.822 28.2182 291.157 28.0646 290.679 27.9451C289.229 27.5868 289.314 28.167 289.263 19.7203C289.229 14.9936 289.28 12.2121 289.382 12.2633C289.468 12.2804 290.491 13.3895 291.652 14.7205C296.208 19.9251 298.085 22.0922 299.058 23.2355C300.576 25.0613 304.279 29.2079 304.45 29.2591C304.518 29.2932 304.586 24.9419 304.586 19.5667C304.586 11.2053 304.62 9.75489 304.842 9.32829C305.167 8.69692 305.474 8.54335 306.651 8.38977C307.18 8.32152 307.709 8.20207 307.846 8.11675C308.426 7.74134 307.436 7.62189 303.767 7.62189C300.235 7.62189 299.962 7.63895 300.013 7.91198C300.047 8.13381 300.303 8.25326 300.918 8.33858C302.743 8.59454 302.829 8.62867 303.068 9.20885C303.255 9.63545 303.307 11.2395 303.307 16.4952C303.307 22.5529 303.272 23.2355 303.034 23.2867C302.863 23.3208 302.129 22.587 300.986 21.239C300.013 20.0786 298.682 18.5258 298.017 17.775C297.351 17.0242 296.327 15.8297 295.747 15.1301C295.167 14.4304 293.529 12.4681 292.095 10.7787L289.468 7.70721L287.01 7.65602C284.417 7.60483 283.017 7.70721 283.171 7.96317C283.222 8.04849 283.802 8.2362 284.468 8.38977C285.918 8.71399 286.362 8.93582 287.232 9.73783L287.898 10.3351L287.829 18.5941C287.778 27.8086 287.812 27.5185 286.567 27.9281C285.799 28.184 284.348 28.0646 283.615 27.6721C282.523 27.109 282.215 26.4947 277.642 15.7273C276.124 12.1609 274.673 8.74812 274.4 8.13381C273.888 6.93933 273.581 6.7175 273.223 7.29767ZM272.933 12.2292C273.223 12.7752 276.772 21.0854 276.772 21.2049C276.772 21.239 274.861 21.2731 272.506 21.2731C270.049 21.2731 268.24 21.2049 268.24 21.1195C268.24 21.0342 268.615 20.164 269.076 19.1913C270.015 17.1948 271.653 13.4919 271.653 13.3725C271.653 13.1165 272.369 11.7173 272.506 11.7173C272.591 11.7173 272.779 11.9391 272.933 12.2292Z" fill="black"/>
<path d="M224.283 7.89488C224.334 8.04846 224.385 8.20204 224.385 8.23616C224.385 8.27029 224.744 8.30442 225.204 8.32148C226.314 8.32148 227.15 8.6457 227.406 9.15762C227.576 9.48184 227.628 11.6319 227.628 18.3039V27.0407L227.03 27.5697C226.57 27.9622 226.245 28.0987 225.699 28.1158C225.307 28.1328 224.914 28.1499 224.812 28.184C224.727 28.2011 224.539 28.2352 224.437 28.2352C224.317 28.2523 224.215 28.3888 224.215 28.5253C224.215 28.7471 225.324 28.7812 233.173 28.7812H242.132L242.234 28.3035C242.286 28.0475 242.644 26.9042 243.036 25.7609C243.412 24.6176 243.685 23.6279 243.617 23.5597C243.378 23.3208 243.002 23.6962 242.593 24.5835C242.337 25.1466 241.722 25.9827 241.074 26.6312C240.05 27.655 239.931 27.7233 238.873 27.911C237.405 28.1499 232.218 28.1499 231.672 27.911C230.784 27.5014 230.784 27.4844 230.784 18.3893C230.784 13.7308 230.836 9.72073 230.921 9.46477C231.092 8.85047 231.484 8.66276 233.225 8.37268C234.777 8.11671 234.897 8.08259 234.709 7.80956C234.641 7.67305 232.9 7.62186 229.385 7.62186C224.71 7.62186 224.181 7.65599 224.283 7.89488Z" fill="black"/>
<path d="M243.531 7.91195C243.582 8.15084 243.821 8.23616 244.726 8.32148C245.34 8.37268 246.057 8.54332 246.296 8.69689L246.739 8.98698V17.9627C246.739 24.0545 246.688 27.0407 246.552 27.2796C246.313 27.7403 245.391 28.0987 244.47 28.0987C243.753 28.0987 243.19 28.4229 243.446 28.6618C243.497 28.7301 247.49 28.7812 252.319 28.7812C259.179 28.7812 261.09 28.7301 261.141 28.5594C261.227 28.3035 262.711 24.191 262.865 23.7815C262.95 23.5597 262.899 23.4914 262.643 23.4914C262.387 23.4914 262.131 23.7815 261.721 24.5494C261.414 25.1295 260.715 26.0851 260.169 26.6653C259.247 27.655 259.128 27.7403 258.104 27.911C257.524 28.0134 255.613 28.0987 253.855 28.0987C249.572 28.0987 249.811 28.4058 249.811 22.9795C249.811 21.1195 249.862 19.3619 249.913 19.0718L250.033 18.5428H253.258C256.09 18.5428 256.551 18.577 257.114 18.8671C257.78 19.2083 258.172 19.8056 258.172 20.4711C258.172 20.8806 258.445 21.3925 258.582 21.256C258.718 21.1366 258.804 15.1471 258.667 15.2153C258.616 15.2665 258.394 15.7443 258.206 16.2904C257.865 17.2118 257.78 17.2972 257.012 17.5702C256.329 17.8261 255.681 17.8603 253.053 17.8261L249.896 17.775L249.845 13.7649C249.811 11.5636 249.845 9.43064 249.896 9.02111L249.999 8.30442H253.804C256.739 8.30442 257.797 8.37268 258.496 8.57744C259.35 8.81634 259.418 8.8846 259.896 9.89137C260.203 10.5398 260.391 11.2224 260.391 11.666C260.391 12.3486 260.425 12.3998 260.834 12.3998C261.227 12.3998 261.261 12.3486 261.175 11.922C261.124 11.666 261.039 10.591 260.971 9.53303L260.851 7.62186H252.166C243.975 7.62186 243.48 7.63892 243.531 7.91195Z" fill="black"/>
<path d="M197.032 35.0436C196.776 35.2996 197.339 35.6068 198.09 35.6068C198.516 35.6238 199.25 35.7603 199.711 35.9139C201.127 36.4088 201.076 35.9992 201.076 47.6369C201.093 56.8856 201.059 57.7559 200.786 58.2507C200.393 58.9845 199.626 59.3599 198.277 59.4793C197.407 59.5647 197.168 59.65 197.117 59.8718C197.066 60.1619 197.424 60.179 202.953 60.179C206.929 60.179 208.874 60.1278 208.943 59.9913C209.13 59.7182 208.994 59.667 207.765 59.5476C206.451 59.4281 205.734 59.0357 205.205 58.1483C204.898 57.6364 204.864 57.1586 204.796 53.8482C204.745 51.8176 204.779 49.787 204.83 49.3604L204.95 48.5754H206.519H208.089L209.659 50.5719C211.485 52.9267 214.727 56.9709 216.297 58.848L217.389 60.179H220.973C223.037 60.179 224.573 60.1107 224.641 60.0254C224.778 59.7865 224.198 59.5135 223.106 59.3087C222.594 59.2234 221.809 58.9845 221.365 58.7797C220.444 58.3872 218.447 56.5273 217.355 55.0597C216.963 54.5478 216.246 53.6605 215.768 53.0974C215.29 52.5343 214.488 51.5275 213.976 50.8791C213.464 50.2136 212.714 49.3092 212.321 48.8314C211.912 48.3706 211.587 47.8929 211.587 47.7905C211.587 47.6881 212.031 47.5345 212.577 47.4321C213.84 47.1932 215.666 46.3059 216.621 45.4698C217.031 45.1114 217.611 44.3777 217.918 43.8487C218.413 42.9784 218.464 42.7566 218.481 41.4256C218.481 39.668 218.174 38.883 216.894 37.5179C215.819 36.3746 213.891 35.4191 212.475 35.3508C211.946 35.3167 211.229 35.2143 210.905 35.1119C210.256 34.9071 197.22 34.8389 197.032 35.0436ZM211.058 36.7671C212.304 37.4155 213.106 38.1834 213.584 39.1731C213.993 39.9922 214.062 40.3164 214.045 41.6645C214.045 43.405 213.857 43.8828 212.731 45.1285C211.451 46.5107 208.96 47.2956 206.212 47.1762L204.847 47.125V42.1423C204.847 38.5247 204.898 37.1084 205.052 36.9548C205.461 36.5453 206.895 36.2893 208.601 36.3405C209.983 36.3746 210.444 36.46 211.058 36.7671Z" fill="black"/>
<path d="M231.996 38.593C231.621 38.7295 231.262 38.7978 231.177 38.7466C230.972 38.6271 228.651 39.7363 227.525 40.5042C224.795 42.3642 223.174 45.3504 222.901 49.0191C222.662 52.4319 224.505 56.6638 227.082 58.5579C228.873 59.8889 231.723 60.8616 233.822 60.8616C236.057 60.8616 238.668 59.9913 240.426 58.6432C241.569 57.773 243.122 55.9642 243.685 54.855C244.146 53.9506 244.299 53.4046 244.896 50.6402C245.272 48.8485 244.555 45.6575 243.292 43.5757C241.876 41.2038 239.948 39.7704 237.013 38.849C235.187 38.2688 233.173 38.1664 231.996 38.593ZM236.808 39.6169C238.719 40.4871 239.897 42.1253 240.733 45.1285C241.142 46.6302 241.176 47.0397 241.176 49.77C241.176 52.3466 241.125 52.9609 240.784 54.2066C240.05 56.9368 238.736 58.6774 236.706 59.633C235.835 60.0425 235.528 60.0937 233.856 60.0937C232.15 60.0937 231.894 60.0425 231.023 59.633C229.249 58.7627 227.969 57.0051 227.15 54.309C226.791 53.1486 226.723 52.4831 226.655 50.0259C226.587 47.4663 226.621 46.9373 226.928 45.5893C227.576 42.859 228.669 41.0161 230.204 40.0264C231.433 39.2415 232.388 39.0196 234.197 39.0708C235.46 39.122 235.938 39.2073 236.808 39.6169Z" fill="black"/>
<path d="M254.845 38.4565C254.657 38.5077 254.418 38.6272 254.299 38.7125C254.179 38.7978 253.957 38.8319 253.77 38.7807C253.343 38.6442 250.647 39.9752 249.401 40.9649C246.876 42.9444 245.545 45.9135 245.545 49.6335C245.545 55.1281 248.668 59.2064 253.855 60.5203C258.701 61.7489 263.906 59.3088 266.278 54.7185C266.875 53.5582 267.387 51.1522 267.387 49.4116C267.387 44.1388 264.247 40.0605 259.128 38.6784C257.916 38.3541 255.732 38.2347 254.845 38.4565ZM259.418 39.5998C260.527 40.1288 261.722 41.3574 262.336 42.586C262.592 43.0638 263.001 44.2071 263.257 45.1286C263.667 46.6302 263.701 47.0397 263.701 49.77C263.701 52.3466 263.65 52.961 263.309 54.2066C262.575 56.9369 261.261 58.6774 259.23 59.633C258.36 60.0425 258.053 60.0937 256.295 60.0937C254.401 60.0937 254.299 60.0767 253.394 59.5477C251.62 58.5238 250.374 56.7492 249.623 54.2066C249.094 52.3808 248.958 47.8076 249.384 45.8964C249.947 43.3198 251.193 41.1015 252.626 40.0605C253.701 39.2927 254.879 39.0026 256.841 39.0708C258.206 39.122 258.65 39.2073 259.418 39.5998Z" fill="black"/>
<path d="M267.404 39.1731C267.011 39.4291 267.336 39.6509 268.223 39.7704C269.622 39.9581 270.083 40.1799 270.271 40.7772C270.39 41.1355 270.475 44.3947 270.492 49.6846C270.509 57.1245 270.475 58.0971 270.236 58.5749C269.929 59.1722 269.23 59.4964 268.257 59.4964C267.506 59.4964 267.063 59.7524 267.319 60.0083C267.574 60.2643 275.1 60.1619 275.185 59.9059C275.219 59.7865 274.741 59.6329 273.956 59.5135C272.54 59.2746 272.096 58.9845 271.926 58.0971C271.738 57.1757 271.806 42.5689 271.994 42.6371C272.131 42.6713 278.274 54.9915 280.475 59.6329C280.628 59.9401 280.833 60.1619 280.936 60.1448C281.226 60.0595 288.905 44.5312 289.468 42.8931C289.519 42.7225 289.638 42.6371 289.741 42.6883C289.98 42.8248 289.962 57.6535 289.741 58.5067C289.536 59.1892 289.468 59.2404 287.881 59.4793C286.703 59.667 286.584 59.7182 286.754 59.9913C286.823 60.1107 288.427 60.179 291.635 60.179C295.577 60.179 296.396 60.1448 296.396 59.9401C296.396 59.667 295.884 59.4964 295.065 59.4964C294.194 59.4964 293.375 59.0357 293.171 58.4384C292.897 57.6705 292.915 41.528 293.188 40.7942C293.409 40.1458 293.785 39.941 295.065 39.7874C296.088 39.6509 296.549 39.4632 296.327 39.2414C296.259 39.1731 294.86 39.0878 293.222 39.0537L290.253 38.9854L287.164 45.2821C285.458 48.729 283.615 52.5001 283.069 53.6434C282.523 54.8038 282.011 55.7423 281.942 55.7423C281.857 55.7423 280.048 52.1418 277.898 47.7563C275.748 43.3709 273.888 39.6168 273.752 39.395C273.53 39.0366 273.445 39.0196 270.578 39.0196C268.974 39.0196 267.54 39.0878 267.404 39.1731Z" fill="black"/>
</svg>
