<svg width="40" height="40" viewBox="0 0 40 40" fill="none" xmlns="http://www.w3.org/2000/svg">
<g clip-path="url(#clip0_157_4988)">
<path d="M37.7401 23.4241C36.3991 24.2179 34.3625 23.2618 34.3625 23.2618C34.3625 23.2618 34.5001 21.0186 35.8411 20.2248C37.1822 19.431 39.2187 20.3872 39.2187 20.3872C39.2187 20.3872 39.0811 22.6303 37.7401 23.4241Z" stroke="#01AFD2" stroke-width="2" stroke-miterlimit="10" stroke-linecap="round" stroke-linejoin="round"/>
<path d="M35.9536 29.6593C34.3314 30.0814 32.511 28.4887 32.511 28.4887C32.511 28.4887 33.3205 26.2118 34.9426 25.7897C36.5647 25.3676 38.3852 26.9602 38.3852 26.9602C38.3852 26.9602 37.5757 29.2372 35.9536 29.6593Z" stroke="#01AFD2" stroke-width="2" stroke-miterlimit="10" stroke-linecap="round" stroke-linejoin="round"/>
<path d="M31.2721 35.0486C29.6041 34.4192 29.0032 31.9203 29.0032 31.9203C29.0032 31.9203 31.1064 30.4417 32.7743 31.071C34.4423 31.7004 35.0433 34.1993 35.0433 34.1993C35.0433 34.1993 32.94 35.678 31.2721 35.0486Z" stroke="#01AFD2" stroke-width="2" stroke-miterlimit="10" stroke-linecap="round" stroke-linejoin="round"/>
<path d="M34.36 20.3623C34.4964 21.6555 34.4257 22.9925 34.1211 24.3309C32.935 29.5447 28.5577 33.2057 23.5137 33.7275" stroke="#01AFD2" stroke-width="2" stroke-miterlimit="10" stroke-linecap="round" stroke-linejoin="round"/>
<path d="M2.25984 23.4241C3.60085 24.2179 5.63741 23.2618 5.63741 23.2618C5.63741 23.2618 5.49983 21.0186 4.15882 20.2248C2.81781 19.431 0.78125 20.3872 0.78125 20.3872C0.78125 20.3872 0.918828 22.6303 2.25984 23.4241Z" stroke="#01AFD2" stroke-width="2" stroke-miterlimit="10" stroke-linecap="round" stroke-linejoin="round"/>
<path d="M4.04614 29.6593C5.66824 30.0814 7.4887 28.4887 7.4887 28.4887C7.4887 28.4887 6.67917 26.2118 5.05707 25.7897C3.43497 25.3676 1.6145 26.9602 1.6145 26.9602C1.6145 26.9602 2.42403 29.2372 4.04614 29.6593Z" stroke="#01AFD2" stroke-width="2" stroke-miterlimit="10" stroke-linecap="round" stroke-linejoin="round"/>
<path d="M8.72778 35.0486C10.3957 34.4192 10.9967 31.9203 10.9967 31.9203C10.9967 31.9203 8.89341 30.4417 7.22552 31.071C5.55756 31.7004 4.95654 34.1993 4.95654 34.1993C4.95654 34.1993 7.05982 35.678 8.72778 35.0486Z" stroke="#01AFD2" stroke-width="2" stroke-miterlimit="10" stroke-linecap="round" stroke-linejoin="round"/>
<path d="M5.63989 20.3623C5.50356 21.6555 5.57426 22.9925 5.87879 24.3309C7.06496 29.5447 11.4422 33.2057 16.4863 33.7275" stroke="#01AFD2" stroke-width="2" stroke-miterlimit="10" stroke-linecap="round" stroke-linejoin="round"/>
<path d="M29.0545 8.78228C26.7707 8.78228 24.8749 6.9801 24.5098 4.61532H15.4902C15.1251 6.9801 13.2293 8.78228 10.9455 8.78228C10.6215 8.78228 10.3052 8.74601 10 8.6769V23.4014C10 24.0733 10.176 24.7313 10.5076 25.2988C10.8391 25.8663 11.3126 26.3199 11.8727 26.6067L20 30.7692L28.1273 26.6067C28.6874 26.3199 29.1609 25.8663 29.4924 25.2988C29.824 24.7313 30 24.0733 30 23.4014V8.6769C29.689 8.74717 29.3722 8.78248 29.0545 8.78228Z" stroke="#01AFD2" stroke-width="2" stroke-miterlimit="10" stroke-linecap="round" stroke-linejoin="round"/>
<path d="M18.2218 9.46156C17.2014 11.0077 15.7599 12.2101 14.0769 12.9117V22.8985L20 25.8089L25.9231 22.8985V12.9117C24.24 12.2101 22.7986 11.0076 21.7782 9.46156H18.2218Z" fill="#DEF7FC" stroke="#01AFD2" stroke-width="2"/>
</g>
<defs>
<clipPath id="clip0_157_4988">
<rect width="40" height="40" fill="white"/>
</clipPath>
</defs>
</svg>
