<svg width="40" height="40" viewBox="0 0 40 40" fill="none" xmlns="http://www.w3.org/2000/svg">
<g clip-path="url(#clip0_157_5000)">
<path fill-rule="evenodd" clip-rule="evenodd" d="M34.5312 8.4769V3.90621H22.8907C23.8541 7.50135 20.596 9.52017 21.24 11.7445C22.0218 14.4446 25.2392 13.5534 25.9409 16.172C26.5183 18.3269 23.5251 20.5664 24.5837 22.3167C26.0886 24.805 31.3424 19.3751 34.5312 19.3751V10.5863L35.8984 9.53158L34.5312 8.4769Z" fill="#DEF7FC"/>
<path fill-rule="evenodd" clip-rule="evenodd" d="M18.3867 23.2535C17.5517 22.7714 16.5179 22.6307 15.3517 22.7287C14.3083 24.1947 13.0563 25.5603 12.1872 26.5571C11.6089 25.8937 10.8608 25.0669 10.1175 24.1559C4.06904 26.5363 5.8899 24.1407 0.781006 24.1407V36.0818C0.787412 34.3614 2.18397 32.9687 3.906 32.9687L25.3905 32.9688C25.3905 28.5749 22.3283 29.9681 20.3159 28.2381C19.151 27.2366 20.9902 24.7567 18.3867 23.2535Z" fill="#DEF7FC"/>
<path d="M0.781083 36.0938V7.04063C0.768974 5.31368 2.18374 3.90619 3.90607 3.90619H7.14864L8.86739 6.24993L10.6252 3.90619L11.7971 5.27337L13.008 3.90619L34.1405 3.90627" stroke="#01AFD2" stroke-width="2" stroke-miterlimit="22.926" stroke-linecap="round" stroke-linejoin="round"/>
<path d="M39.2185 29.8438V3.90627C39.2185 2.18034 37.8194 0.781203 36.0935 0.781203L34.5311 0.781281V8.47688L35.8982 9.53157L34.5311 10.5863V26.7188H36.0935C37.8194 26.7188 39.2185 28.1178 39.2185 29.8438ZM39.2185 29.8438C39.2185 31.5696 37.8194 32.9688 36.0935 32.9688H31.7194L30.4108 30.4883L29.1412 32.9688H3.906C2.18006 32.9688 0.781006 34.3678 0.781006 36.0938C0.781006 37.8196 2.18006 39.2188 3.906 39.2188H5.46841V33.3594" stroke="#01AFD2" stroke-width="2" stroke-miterlimit="22.926" stroke-linecap="round" stroke-linejoin="round"/>
<path d="M12.1875 13.1303C9.38296 13.1303 7.10938 15.4038 7.10938 18.2084C7.10938 21.0206 10.4309 24.5423 12.1875 26.5571C13.944 24.5423 17.2656 21.0206 17.2656 18.2084C17.2656 15.4038 14.992 13.1303 12.1875 13.1303Z" stroke="#01AFD2" stroke-width="2" stroke-miterlimit="22.926" stroke-linecap="round" stroke-linejoin="round"/>
<path d="M12.1874 20.022C13.1863 20.022 14.001 19.2072 14.001 18.2084C14.001 17.2095 13.1863 16.3947 12.1874 16.3947C11.1885 16.3947 10.3738 17.2095 10.3738 18.2084C10.3738 19.2072 11.1885 20.022 12.1874 20.022Z" stroke="#01AFD2" stroke-width="2" stroke-miterlimit="22.926" stroke-linecap="round" stroke-linejoin="round"/>
</g>
<defs>
<clipPath id="clip0_157_5000">
<rect width="40" height="40" fill="white"/>
</clipPath>
</defs>
</svg>
