<svg width="80" height="80" viewBox="0 0 80 80" fill="none" xmlns="http://www.w3.org/2000/svg">
<rect width="80" height="80" rx="40" fill="white"/>
<g clip-path="url(#clip0_2055_2172)">
<path d="M33.8823 58.8628C32.1957 58.8628 30.8235 57.4906 30.8235 55.804V52.7452H36.9412V55.804C36.9412 57.4906 35.569 58.8628 33.8823 58.8628ZM46.1176 58.8628C44.431 58.8628 43.0588 57.4906 43.0588 55.804V52.7452H49.1765V55.804C49.1765 57.4906 47.8043 58.8628 46.1176 58.8628ZM40 46.6275C38.3133 46.6275 36.9412 45.2554 36.9412 43.5687V40.5099H43.0588V43.5687C43.0588 45.2554 41.6866 46.6275 40 46.6275ZM56.8235 35.4119V36.4315H23.1765V35.4119C23.1765 33.7224 24.5458 32.353 26.2353 32.353H53.7647C55.4542 32.353 56.8235 33.7224 56.8235 35.4119Z" fill="#DEF7FC"/>
<path d="M15.0196 64.9804H64.9804M23.1765 36.4314V64.9804H19.098V30.3138L40 15.0197L60.9019 30.3138V64.9804H56.8235V35.4118C56.8235 33.7223 55.4542 32.353 53.7647 32.353H26.2353C24.5458 32.353 23.1765 33.7223 23.1765 35.4118V36.4314Z" stroke="#01AFD2" stroke-width="2" stroke-miterlimit="10" stroke-linecap="round" stroke-linejoin="round"/>
<path d="M44.5882 28.2745H35.4117V24.1961L40 20.1177L44.5882 24.1961V28.2745Z" fill="#DEF7FC"/>
<path d="M40 64.9805H27.7647V54.7844C27.7647 53.6581 28.6776 52.7452 29.8039 52.7452H40M40 64.9805V52.7452M40 64.9805H52.2353V54.7844C52.2353 53.6581 51.3222 52.7452 50.1961 52.7452H40M33.8823 52.7452V42.5491C33.8823 41.4228 34.7953 40.5099 35.9215 40.5099H44.0784C45.2046 40.5099 46.1176 41.4228 46.1176 42.5491V52.7452" stroke="#01AFD2" stroke-width="2" stroke-miterlimit="10" stroke-linecap="round" stroke-linejoin="round"/>
</g>
<defs>
<clipPath id="clip0_2055_2172">
<rect width="52" height="52" fill="white" transform="translate(14 14)"/>
</clipPath>
</defs>
</svg>
