<svg width="80" height="80" viewBox="0 0 80 80" fill="none" xmlns="http://www.w3.org/2000/svg">
<rect width="80" height="80" rx="40" fill="white"/>
<g clip-path="url(#clip0_2055_1809)">
<path d="M19.332 15.0157H52.0229C54.268 14.9999 56.0977 16.8392 56.0977 19.0782V22.6333M56.0977 48.4791V58.3829" stroke="#01AFD2" stroke-width="2" stroke-miterlimit="22.9256" stroke-linecap="round" stroke-linejoin="round"/>
<path d="M27.457 64.9844H57.1132C59.3569 64.9844 61.1757 63.1656 61.1757 60.9219V58.8908H31.5195V60.9219C31.5195 63.1656 29.7007 64.9844 27.457 64.9844ZM27.457 64.9844C25.2133 64.9844 23.3945 63.1656 23.3945 60.9219V19.0781C23.3945 16.8345 21.5756 15.0156 19.332 15.0156C17.0884 15.0156 15.2695 16.8345 15.2695 19.0781V21.1094H22.8867" stroke="#01AFD2" stroke-width="2" stroke-miterlimit="22.9256" stroke-linecap="round" stroke-linejoin="round"/>
<path d="M60.8458 38.2955V50.7662L56.0977 47.9714L51.3496 50.7662V38.2955M27.9649 21.1095H44.9526M27.9649 25.8104H39.7461M27.9649 35.2122H39.7461M27.9649 39.913H44.9526M27.9649 44.6139H44.9526M27.9649 49.3148H39.7461M27.9649 54.0157H44.9526" stroke="#01AFD2" stroke-width="2" stroke-miterlimit="22.9256" stroke-linecap="round" stroke-linejoin="round"/>
<path fill-rule="evenodd" clip-rule="evenodd" d="M56.0977 22.1255C57.5508 22.1255 58.7729 23.1132 59.1298 24.4538C60.3301 23.7582 61.8927 23.924 62.9202 24.9515C63.9476 25.9789 64.1133 27.5415 63.4178 28.7419C64.7585 29.0989 65.7462 30.321 65.7462 31.7739C65.7462 33.227 64.7585 34.4491 63.4178 34.8061C64.1134 36.0064 63.9477 37.569 62.9202 38.5965C61.8928 39.6239 60.3301 39.7896 59.1298 39.0941C58.7728 40.4348 57.5507 41.4225 56.0977 41.4225C54.6447 41.4225 53.4226 40.4348 53.0657 39.0941C51.8653 39.7896 50.3028 39.624 49.2753 38.5965C48.2478 37.5691 48.0821 36.0064 48.7776 34.8061C47.437 34.4491 46.4493 33.227 46.4493 31.7739C46.4493 30.3209 47.437 29.0988 48.7776 28.7419C48.082 27.5415 48.2477 25.979 49.2753 24.9515C50.3027 23.9241 51.8653 23.7583 53.0657 24.4538C53.4226 23.1132 54.6447 22.1255 56.0977 22.1255Z" fill="#DEF7FC"/>
<path d="M56.6231 34.9801C58.3943 34.6895 59.5946 33.018 59.3039 31.2467C59.0132 29.4755 57.3417 28.2753 55.5704 28.566C53.7992 28.8566 52.599 30.5282 52.8897 32.2994C53.1804 34.0706 54.8519 35.2708 56.6231 34.9801Z" stroke="#01AFD2" stroke-width="2" stroke-miterlimit="22.9256" stroke-linecap="round" stroke-linejoin="round"/>
</g>
<defs>
<clipPath id="clip0_2055_1809">
<rect width="52" height="52" fill="white" transform="translate(14 14)"/>
</clipPath>
</defs>
</svg>
