<svg width="80" height="80" viewBox="0 0 80 80" fill="none" xmlns="http://www.w3.org/2000/svg">
<rect width="80" height="80" rx="40" fill="white"/>
<g clip-path="url(#clip0_2055_2372)">
<path d="M40 49.7857C34.6042 49.7857 30.2144 45.3958 30.2144 40C30.2144 34.6042 34.6042 30.2144 40 30.2144C45.3958 30.2144 49.7857 34.6042 49.7857 40C49.7857 45.3958 45.3958 49.7857 40 49.7857Z" fill="#DEF7FC"/>
<path d="M15.8128 53.2276L19.6726 54.5471L20.9922 50.6874" stroke="#01AFD2" stroke-width="2" stroke-miterlimit="10" stroke-linecap="round" stroke-linejoin="round"/>
<path d="M19.6852 54.547C16.7461 50.4496 15.0156 45.4272 15.0156 40C15.0156 26.2015 26.2015 15.0156 40 15.0156C45.4272 15.0156 50.4496 16.7461 54.547 19.6852M64.1872 26.7725L60.3274 25.453L59.0078 29.3127" stroke="#01AFD2" stroke-width="2" stroke-miterlimit="10" stroke-linecap="round" stroke-linejoin="round"/>
<path d="M60.3148 25.453C63.2539 29.5504 64.9844 34.5728 64.9844 40C64.9844 53.7985 53.7985 64.9844 40 64.9844C34.5728 64.9844 29.5504 63.2539 25.453 60.3148" stroke="#01AFD2" stroke-width="2" stroke-miterlimit="10" stroke-linecap="round" stroke-linejoin="round"/>
<path d="M57.3361 43.5868V36.4133H52.6563C52.3775 35.429 51.9841 34.4808 51.4843 33.5882L54.7947 30.2778L49.7223 25.2053L46.4118 28.5158C45.5193 28.0159 44.5711 27.6225 43.5869 27.3437V22.6639H36.4133V27.3437C35.429 27.6225 34.4809 28.0159 33.5883 28.5158L30.2779 25.2053L25.2055 30.2778L28.5159 33.5882C28.016 34.4808 27.6226 35.429 27.3439 36.4133H22.6639V43.5868H27.3437C27.6224 44.5711 28.0158 45.5193 28.5157 46.4118L25.2053 49.7222L30.2777 54.7947L33.5881 51.4842C34.4807 51.9841 35.4289 52.3775 36.4132 52.6563V57.3361H43.5868V52.6563C44.5711 52.3775 45.5192 51.9841 46.4117 51.4842L49.7222 54.7947L54.7946 49.7222L51.4842 46.4118C51.9841 45.5192 52.3774 44.5711 52.6562 43.5868H57.3361Z" stroke="#01AFD2" stroke-width="2" stroke-miterlimit="10" stroke-linecap="round" stroke-linejoin="round"/>
<path d="M40 35.411V40H43.5692" stroke="#01AFD2" stroke-width="2" stroke-miterlimit="10" stroke-linecap="round" stroke-linejoin="round"/>
</g>
<defs>
<clipPath id="clip0_2055_2372">
<rect width="52" height="52" fill="white" transform="translate(14 14)"/>
</clipPath>
</defs>
</svg>
