<svg width="24" height="24" viewBox="0 0 24 24" fill="none" xmlns="http://www.w3.org/2000/svg">
<path d="M9.5 2H3.66675C2.75025 2 2 2.75 2 3.66675V9.5C2 10.4168 2.75025 11.1667 3.66675 11.1667H9.5C10.4162 11.1667 11.1667 10.4168 11.1667 9.5V3.66675C11.1667 2.75 10.4162 2 9.5 2ZM9.5 9.5H3.66675V3.66675H9.5V9.5ZM9.5 12.8335H3.66675C2.75025 12.8335 2 13.5838 2 14.5V20.3333C2 21.2498 2.75025 22 3.66675 22H9.5C10.4162 22 11.1667 21.2498 11.1667 20.3333V14.5C11.1667 13.5838 10.4162 12.8335 9.5 12.8335ZM9.5 20.3333H3.66675V14.5H9.5V20.3333ZM12.8333 2H17V3.66675H12.8333V2ZM12.8333 8.66675H18.6667V10.3335H12.8333V8.66675ZM12.8333 5.33325H22V7H12.8333V5.33325ZM12.8333 12.8335H22V14.5H12.8333V12.8335ZM12.8333 19.5H18.6667V21.1667H12.8333V19.5ZM12.8333 16.1667H17V17.8333H12.8333V16.1667Z" fill="#01AFD2"/>
</svg>
