<svg width="24" height="24" viewBox="0 0 24 24"  xmlns="http://www.w3.org/2000/svg">
    <path d="M19.8037 5.69751C19.0311 4.88135 18.0038 4.4319 16.9112 4.4319C15.8185 4.4319 14.7912 4.88135 14.0186 5.69751L7.57 12.509C6.61303 13.5199 6.61303 15.1646 7.57006 16.1756C8.52708 17.1864 10.0843 17.1864 11.0412 16.1755L15.2875 11.6902C15.607 11.3527 15.607 10.8055 15.2875 10.468C14.968 10.1305 14.4499 10.1305 14.1304 10.468L9.88419 14.9533C9.56522 15.2904 9.04612 15.2903 8.7271 14.9534C8.40807 14.6164 8.40807 14.0681 8.72704 13.7311L15.1756 6.91974C15.6392 6.43008 16.2556 6.16039 16.9112 6.16039C17.5668 6.16039 18.1831 6.43008 18.6467 6.91974C19.6037 7.93064 19.6037 9.57542 18.6468 10.5863L11.6198 18.0088C10.0247 19.6935 7.42945 19.6935 5.83453 18.0088C5.06186 17.1927 4.63631 16.1076 4.63631 14.9534C4.63631 13.7992 5.06186 12.714 5.83453 11.8979L12.8614 4.47528C13.1809 4.13778 13.1809 3.59061 12.8614 3.25311C12.5419 2.91566 12.0239 2.9156 11.7044 3.25311L4.67749 10.6757C3.59573 11.8183 3 13.3375 3 14.9534C3 16.5693 3.59573 18.0885 4.67749 19.231C5.79411 20.4105 7.26036 21.0002 8.7271 21C10.1935 20.9999 11.6604 20.4102 12.7768 19.231L19.8038 11.8084C21.3988 10.1236 21.3987 7.38233 19.8037 5.69751Z" />
</svg>
