<svg width="25" height="24"   xmlns="http://www.w3.org/2000/svg"><path d="M9.833 2H4c-.916 0-1.667.75-1.667 1.667V9.5c0 .917.75 1.667 1.667 1.667h5.833c.917 0 1.667-.75 1.667-1.667V3.667C11.5 2.75 10.75 2 9.833 2zm0 7.5H4V3.667h5.833V9.5zm0 3.334H4c-.916 0-1.667.75-1.667 1.666v5.833C2.333 21.25 3.083 22 4 22h5.833c.917 0 1.667-.75 1.667-1.667V14.5c0-.916-.75-1.666-1.667-1.666zm0 7.5H4V14.5h5.833v5.833zM13.167 2h4.166v1.667h-4.166V2zm0 6.667H19v1.667h-5.833V8.667zm0-3.334h9.166V7h-9.166V5.333zm0 7.5h9.166V14.5h-9.166v-1.666zm0 6.667H19v1.667h-5.833V19.5zm0-3.333h4.166v1.666h-4.166v-1.666z" /></svg>