<svg width="20" height="20" xmlns="http://www.w3.org/2000/svg"><path fill-rule="evenodd" clip-rule="evenodd" d="M4.545 3.864a.682.682 0 00-.681.681v6.137a.682.682 0 00.681.682h.682a.682.682 0 010 1.363h-.682A2.045 2.045 0 012.5 10.682V4.545A2.045 2.045 0 014.545 2.5h6.137a2.046 2.046 0 012.045 2.045v.682a.682.682 0 01-1.363 0v-.682a.682.682 0 00-.682-.681H4.545zm4.773 4.772a.682.682 0 00-.682.682v6.136c0 .377.306.682.682.682h6.136a.682.682 0 00.682-.681V9.317a.682.682 0 00-.681-.682H9.317zm-2.045.682c0-1.13.916-2.045 2.045-2.045h6.136c1.13 0 2.046.916 2.046 2.045v6.136c0 1.13-.916 2.046-2.046 2.046H9.319a2.045 2.045 0 01-2.045-2.046V9.319z"/></svg>