<svg width="25" height="24"   xmlns="http://www.w3.org/2000/svg"><path fill-rule="evenodd" clip-rule="evenodd" d="M22.222 6.59a.723.723 0 01.108.35c0 .01.003.029.003.029v10.062a.723.723 0 01-.374.634l-9.252 5.237a.76.76 0 01-.748 0l-9.252-5.237a.723.723 0 01-.374-.634V6.969a.722.722 0 01.374-.634l9.252-5.237a.76.76 0 01.748 0l9.248 5.237c.11.061.202.15.267.255zm-10.637 6.037L3.83 8.237v8.361l7.755 4.4v-8.371zm1.497 0v8.372l7.755-4.39V8.227l-7.755 4.4zm6.988-5.536l-7.737-4.303L4.596 7.07l7.737 4.303L20.07 7.09z" /></svg>