<svg width="24" height="24" viewBox="0 0 24 24" fill="none" xmlns="http://www.w3.org/2000/svg">
<path d="M15.6 12L16.5998 12.0208C16.6001 12.0069 16.6001 11.9931 16.5998 11.9792L15.6 12ZM8.4 12L7.40022 11.9792C7.39993 11.9931 7.39993 12.0069 7.40022 12.0208L8.4 12ZM20 12C20 16.4183 16.4183 20 12 20V22C17.5228 22 22 17.5228 22 12H20ZM12 20C7.58172 20 4 16.4183 4 12H2C2 17.5228 6.47715 22 12 22V20ZM4 12C4 7.58172 7.58172 4 12 4V2C6.47715 2 2 6.47715 2 12H4ZM12 4C16.4183 4 20 7.58172 20 12H22C22 6.47715 17.5228 2 12 2V4ZM3 13H21V11H3V13ZM11.2617 3.67442C13.3493 5.95996 14.5357 8.92601 14.6002 12.0208L16.5998 11.9792C16.5252 8.39965 15.153 4.96907 12.7383 2.32558L11.2617 3.67442ZM14.6002 11.9792C14.5357 15.074 13.3493 18.04 11.2617 20.3256L12.7383 21.6744C15.153 19.0309 16.5252 15.6003 16.5998 12.0208L14.6002 11.9792ZM12.7383 20.3256C10.6507 18.04 9.46426 15.074 9.39978 11.9792L7.40022 12.0208C7.47479 15.6003 8.84702 19.0309 11.2617 21.6744L12.7383 20.3256ZM9.39978 12.0208C9.46426 8.92601 10.6507 5.95996 12.7383 3.67442L11.2617 2.32558C8.84702 4.96907 7.47479 8.39965 7.40022 11.9792L9.39978 12.0208Z" fill="white"/>
</svg>
