<svg width="24" height="24" viewBox="0 0 24 24"   xmlns="http://www.w3.org/2000/svg">
 
<path d="M18.2043 10.4531C18.2043 9.97849 17.814 9.59375 17.3326 9.59375H8.35379C7.87233 9.59375 7.48206 9.97849 7.48206 10.4531C7.48206 10.9278 7.87233 11.3125 8.35379 11.3125H17.3326C17.814 11.3125 18.2043 10.9278 18.2043 10.4531ZM8.35379 13.0312C7.87233 13.0312 7.48206 13.416 7.48206 13.8906C7.48206 14.3653 7.87233 14.75 8.35379 14.75H13.8069C14.2884 14.75 14.6786 14.3653 14.6786 13.8906C14.6786 13.416 14.2884 13.0312 13.8069 13.0312H8.35379Z" />
<path d="M10.4023 21.2812H7.4869C6.52556 21.2812 5.74345 20.5102 5.74345 19.5625V4.4375C5.74345 3.48978 6.52556 2.71875 7.4869 2.71875H18.2043C19.1656 2.71875 19.9477 3.48978 19.9477 4.4375V9.72266C19.9477 10.1973 20.338 10.582 20.8195 10.582C21.3009 10.582 21.6912 10.1973 21.6912 9.72266V4.4375C21.6912 2.54206 20.127 1 18.2043 1H7.4869C5.56422 1 4 2.54206 4 4.4375V19.5625C4 21.4579 5.56422 23 7.4869 23H10.4023C10.8838 23 11.2741 22.6153 11.2741 22.1406C11.2741 21.666 10.8838 21.2812 10.4023 21.2812Z" />
<path d="M23.2352 13.4425C22.2156 12.4373 20.5565 12.4373 19.5375 13.4419L14.7516 18.1495C14.65 18.2495 14.575 18.3727 14.5332 18.5081L13.4909 21.8908C13.4456 22.038 13.4411 22.1946 13.4781 22.3441C13.5151 22.4936 13.5921 22.6306 13.7011 22.7407C13.8101 22.8509 13.9471 22.9301 14.0978 22.9702C14.2485 23.0104 14.4073 23.0098 14.5578 22.9688L18.0763 22.0079C18.2211 21.9684 18.3531 21.8926 18.4594 21.788L23.2353 17.0886C24.2549 16.0834 24.2549 14.4478 23.2352 13.4425ZM17.39 20.4119L15.6198 20.8953L16.1379 19.214L19.3671 16.0375L20.6002 17.2531L17.39 20.4119ZM22.0031 15.8728L21.8342 16.0389L20.6013 14.8236L20.7697 14.658C21.1096 14.3229 21.6626 14.3229 22.0025 14.658C22.3424 14.993 22.3424 15.5382 22.0031 15.8728ZM17.3326 6.15625H8.35379C7.87233 6.15625 7.48206 6.54099 7.48206 7.01562C7.48206 7.49026 7.87233 7.875 8.35379 7.875H17.3326C17.814 7.875 18.2043 7.49026 18.2043 7.01562C18.2043 6.54099 17.814 6.15625 17.3326 6.15625Z" />
 
 
</svg>
