<svg width="32" height="32" viewBox="0 0 32 32" fill="none" xmlns="http://www.w3.org/2000/svg">
<g clip-path="url(#clip0_338_1435)">
<path d="M21.8947 5.05263C21.8947 4.49969 21.7858 3.95217 21.5742 3.44133C21.3626 2.93048 21.0525 2.46632 20.6615 2.07534C20.2705 1.68435 19.8064 1.37421 19.2955 1.16261C18.7847 0.951011 18.2371 0.842102 17.6842 0.842102H5.05263C4.49969 0.842102 3.95217 0.951011 3.44133 1.16261C2.93048 1.37421 2.46632 1.68435 2.07534 2.07534C1.28571 2.86496 0.842102 3.93593 0.842102 5.05263V26.9474C0.842102 28.0641 1.28571 29.135 2.07534 29.9247C2.46632 30.3156 2.93048 30.6258 3.44133 30.8374C3.95217 31.049 4.49969 31.1579 5.05263 31.1579H17.6842C18.8009 31.1579 19.8719 30.7143 20.6615 29.9247C21.251 29.3352 21.6476 28.5889 21.8108 27.7839C21.9032 27.3281 21.5177 26.9474 21.0526 26.9474C20.5875 26.9474 20.2236 27.3345 20.0715 27.774C19.9475 28.1319 19.7435 28.4608 19.4706 28.7337C18.9968 29.2075 18.3542 29.4737 17.6842 29.4737H5.05263C4.38261 29.4737 3.74003 29.2075 3.26625 28.7337C2.79248 28.26 2.52631 27.6174 2.52631 26.9474V5.05263C2.52631 4.38261 2.79248 3.74003 3.26625 3.26625C3.74003 2.79248 4.38261 2.52631 5.05263 2.52631H17.6842C18.3542 2.52631 18.9968 2.79248 19.4706 3.26625C19.9444 3.74003 20.2105 4.38261 20.2105 5.05263V5.69684C20.2105 6.16192 20.5875 6.53894 21.0526 6.53894C21.5177 6.53894 21.8947 6.16192 21.8947 5.69684V5.05263Z" fill="#1F1F1F"/>
<path fill-rule="evenodd" clip-rule="evenodd" d="M30.8463 15.3516L22.5464 8.55861C22.125 8.21371 21.5972 8.02526 21.0526 8.02526C20.5081 8.02526 19.9803 8.21371 19.5589 8.55861L11.2589 15.3516C11.1117 15.4993 11.0244 15.6965 11.0142 15.9048C11.004 16.1132 11.0714 16.3179 11.2035 16.4794C11.3356 16.6409 11.523 16.7475 11.7292 16.7788C11.9355 16.81 12.146 16.7635 12.32 16.6484L13.4737 15.7137V22.3747C13.4759 23.1401 13.7809 23.8735 14.3221 24.4147C14.8633 24.9559 15.5967 25.2609 16.3621 25.2632H20.2105H21.8947H25.7432C26.5085 25.2609 27.2419 24.9559 27.7831 24.4147C28.3243 23.8735 28.6294 23.1401 28.6316 22.3747V15.7137L29.7853 16.6484C29.9323 16.776 30.1211 16.845 30.3158 16.8421C30.4402 16.8413 30.5628 16.8129 30.6749 16.759C30.7871 16.7052 30.8858 16.6271 30.9642 16.5305C31.1038 16.3581 31.1697 16.1376 31.1477 15.9168C31.1256 15.6961 31.0173 15.4929 30.8463 15.3516ZM26.5947 23.2262C26.8205 23.0004 26.9474 22.6941 26.9474 22.3747V14.3158L21.0526 9.49052L15.1579 14.3158V22.3747C15.1579 22.6941 15.2848 23.0004 15.5106 23.2262C15.7364 23.4521 16.0427 23.5789 16.3621 23.5789H17.6842H24.421H25.7432C26.0625 23.5789 26.3688 23.4521 26.5947 23.2262Z" fill="#1F1F1F"/>
<path d="M14.3158 4.84192C14.3158 4.61858 14.2271 4.40439 14.0691 4.24646C13.9112 4.08854 13.697 3.99982 13.4737 3.99982H9.26316C9.03982 3.99982 8.82562 4.08854 8.6677 4.24646C8.50977 4.40439 8.42105 4.61858 8.42105 4.84192C8.42105 5.06526 8.50977 5.27945 8.6677 5.43738C8.82562 5.59531 9.03982 5.68403 9.26316 5.68403H13.4737C13.697 5.68403 13.9112 5.59531 14.0691 5.43738C14.2271 5.27945 14.3158 5.06526 14.3158 4.84192Z" fill="#1F1F1F"/>
</g>
<defs>
<clipPath id="clip0_338_1435">
<rect width="32" height="32" fill="white"/>
</clipPath>
</defs>
</svg>
