<svg width="24" height="24" viewBox="0 0 24 24"  xmlns="http://www.w3.org/2000/svg">
<path fill-rule="evenodd" clip-rule="evenodd" d="M6.53033 4.46967C6.82322 4.76256 6.82322 5.23744 6.53033 5.53033L4.81066 7.25H8.05573C8.79314 7.25 9.52043 7.42169 10.18 7.75147L10.3354 7.82918C10.7059 8.01442 10.8561 8.46493 10.6708 8.83541C10.4856 9.20589 10.0351 9.35606 9.66459 9.17082L9.50917 9.09311C9.05789 8.86747 8.56027 8.75 8.05573 8.75H4.81066L6.53033 10.4697C6.82322 10.7626 6.82322 11.2374 6.53033 11.5303C6.23744 11.8232 5.76256 11.8232 5.46967 11.5303L2.46967 8.53033C2.17678 8.23744 2.17678 7.76256 2.46967 7.46967L5.46967 4.46967C5.76256 4.17678 6.23744 4.17678 6.53033 4.46967ZM17.4697 4.46967C17.7626 4.17678 18.2374 4.17678 18.5303 4.46967L21.5303 7.46967C21.8232 7.76256 21.8232 8.23744 21.5303 8.53033L18.5303 11.5303C18.2374 11.8232 17.7626 11.8232 17.4697 11.5303C17.1768 11.2374 17.1768 10.7626 17.4697 10.4697L19.1893 8.75H16C14.2051 8.75 12.75 10.2051 12.75 12V19C12.75 19.4142 12.4142 19.75 12 19.75C11.5858 19.75 11.25 19.4142 11.25 19V12C11.25 9.37665 13.3766 7.25 16 7.25H19.1893L17.4697 5.53033C17.1768 5.23744 17.1768 4.76256 17.4697 4.46967Z"  />
</svg>
