<svg width="24" height="24" viewBox="0 0 24 24" xmlns="http://www.w3.org/2000/svg">
<path fill-rule="evenodd" clip-rule="evenodd" d="M8.09634 5.44706L8.1048 5.44711H15.8933L15.9018 5.44706H8.09634Z" />
<path fill-rule="evenodd" clip-rule="evenodd" d="M10.5948 12.8587C10.5948 12.4445 10.259 12.1087 9.8448 12.1087C9.43058 12.1087 9.0948 12.4445 9.0948 12.8587V18.0768C9.0948 18.491 9.43058 18.8268 9.8448 18.8268C10.259 18.8268 10.5948 18.491 10.5948 18.0768V12.8587ZM14.9033 12.8587C14.9033 12.4445 14.5675 12.1087 14.1533 12.1087C13.7391 12.1087 13.4033 12.4445 13.4033 12.8587V18.0768C13.4033 18.491 13.7391 18.8268 14.1533 18.8268C14.5675 18.8268 14.9033 18.491 14.9033 18.0768V12.8587Z" />
<path fill-rule="evenodd" clip-rule="evenodd" d="M5.10095 3.94706C3.53501 3.94706 2.26562 5.21652 2.26562 6.78239V8.57081C2.26562 8.98503 2.60141 9.32081 3.01562 9.32081H3.57375L4.29881 20.481C4.42054 22.3549 5.97599 23.8125 7.85383 23.8125H16.1442C18.0072 23.8125 19.5528 22.3779 19.696 20.5252C19.7279 20.1122 19.419 19.7516 19.0061 19.7196C18.5931 19.6877 18.2324 19.9966 18.2005 20.4096C18.1176 21.4819 17.2227 22.3125 16.1442 22.3125H7.85383C6.76664 22.3125 5.86612 21.4686 5.79566 20.3837L5.07692 9.32081H18.9211L18.5047 15.7313C18.4778 16.1446 18.7911 16.5015 19.2045 16.5283C19.6178 16.5552 19.9746 16.2419 20.0015 15.8285L20.4699 9.32081H20.9825C21.3967 9.32081 21.7325 8.98503 21.7325 8.57081V6.78239C21.7325 5.21645 20.463 3.94706 18.8972 3.94706H16.6433V3.31148C16.6433 1.58619 15.2447 0.1875 13.5193 0.1875H10.4788C8.75348 0.1875 7.3548 1.58612 7.3548 3.31148V3.94706H5.10095ZM3.76562 6.78239C3.76562 6.04492 4.36346 5.44706 5.10095 5.44706H8.09634H15.9018H18.8972C19.6346 5.44706 20.2325 6.0449 20.2325 6.78239V7.82081H19.7215H4.27661H3.76562V6.78239ZM10.4788 1.6875C9.58189 1.6875 8.8548 2.41457 8.8548 3.31148V3.94711H15.1433V3.31148C15.1433 2.41459 14.4162 1.6875 13.5193 1.6875H10.4788Z" />
</svg>
