<svg width="24" height="24" viewBox="0 0 24 24" fill="none" xmlns="http://www.w3.org/2000/svg">
<path d="M14.5385 20.3333H1.84615C1.62174 20.3333 1.40652 20.2455 1.24783 20.0893C1.08915 19.933 1 19.721 1 19.5V2.83333C1 2.61232 1.08915 2.40036 1.24783 2.24408C1.40652 2.0878 1.62174 2 1.84615 2H20.4615C20.686 2 20.9012 2.0878 21.0599 2.24408C21.2185 2.40036 21.3077 2.61232 21.3077 2.83333V13.6667C21.3077 13.8877 21.2185 14.0996 21.0599 14.2559C20.9012 14.4122 20.686 14.5 20.4615 14.5C20.2371 14.5 20.0219 14.4122 19.8632 14.2559C19.7045 14.0996 19.6154 13.8877 19.6154 13.6667V3.66667H2.69231V18.6667H14.5385C14.7629 18.6667 14.9781 18.7545 15.1368 18.9107C15.2955 19.067 15.3846 19.279 15.3846 19.5C15.3846 19.721 15.2955 19.933 15.1368 20.0893C14.9781 20.2455 14.7629 20.3333 14.5385 20.3333Z" fill="#00B87A"/>
<path d="M8.61538 14.5H5.23077C5.00636 14.5 4.79113 14.4122 4.63245 14.2559C4.47376 14.0996 4.38462 13.8877 4.38462 13.6667C4.38462 13.4457 4.47376 13.2337 4.63245 13.0774C4.79113 12.9211 5.00636 12.8333 5.23077 12.8333H8.61538C8.8398 12.8333 9.05502 12.9211 9.21371 13.0774C9.37239 13.2337 9.46154 13.4457 9.46154 13.6667C9.46154 13.8877 9.37239 14.0996 9.21371 14.2559C9.05502 14.4122 8.8398 14.5 8.61538 14.5ZM11.1538 17H5.23077C5.00636 17 4.79113 16.9122 4.63245 16.7559C4.47376 16.5996 4.38462 16.3877 4.38462 16.1667C4.38462 15.9457 4.47376 15.7337 4.63245 15.5774C4.79113 15.4211 5.00636 15.3333 5.23077 15.3333H11.1538C11.3783 15.3333 11.5935 15.4211 11.7522 15.5774C11.9109 15.7337 12 15.9457 12 16.1667C12 16.3877 11.9109 16.5996 11.7522 16.7559C11.5935 16.9122 11.3783 17 11.1538 17ZM17.9231 22C16.919 22 15.9374 21.7068 15.1025 21.1573C14.2676 20.6079 13.6169 19.827 13.2326 18.9134C12.8484 17.9998 12.7478 16.9945 12.9437 16.0245C13.1396 15.0546 13.6231 14.1637 14.3331 13.4645C15.0432 12.7652 15.9478 12.289 16.9326 12.0961C17.9174 11.9031 18.9382 12.0022 19.8659 12.3806C20.7936 12.759 21.5865 13.3999 22.1444 14.2221C22.7022 15.0444 23 16.0111 23 17C22.9987 18.3257 22.4633 19.5967 21.5115 20.5341C20.5597 21.4715 19.2691 21.9987 17.9231 22ZM17.9231 13.6667C17.2537 13.6667 16.5993 13.8622 16.0427 14.2284C15.4861 14.5947 15.0523 15.1153 14.7961 15.7244C14.5399 16.3335 14.4729 17.0037 14.6035 17.6503C14.7341 18.2969 15.0564 18.8908 15.5298 19.357C16.0031 19.8232 16.6062 20.1407 17.2628 20.2693C17.9193 20.3979 18.5999 20.3319 19.2183 20.0796C19.8368 19.8273 20.3654 19.4001 20.7373 18.8519C21.1092 18.3037 21.3077 17.6593 21.3077 17C21.3077 16.1159 20.9511 15.2681 20.3164 14.643C19.6816 14.0179 18.8207 13.6667 17.9231 13.6667Z" fill="#00B87A"/>
<path d="M17.0769 19.5C17.0316 19.5001 16.9863 19.4965 16.9415 19.4892C16.8091 19.4681 16.6836 19.4163 16.5755 19.3381C16.4673 19.2598 16.3796 19.1574 16.3196 19.0392L15.4735 17.3725C15.3731 17.1747 15.3567 16.9457 15.4278 16.736C15.4989 16.5263 15.6517 16.353 15.8525 16.2542C16.0534 16.1554 16.2859 16.1392 16.4988 16.2092C16.7118 16.2792 16.8878 16.4297 16.9881 16.6275L17.3088 17.26L19.0172 15.5775C19.1767 15.4257 19.3905 15.3417 19.6123 15.3436C19.8342 15.3455 20.0464 15.4331 20.2033 15.5877C20.3602 15.7422 20.4492 15.9512 20.4511 16.1697C20.453 16.3882 20.3677 16.5987 20.2136 16.7558L17.6752 19.2558C17.5165 19.4121 17.3013 19.5 17.0769 19.5ZM14.5385 10.3333C14.4244 10.3335 14.3116 10.3108 14.2068 10.2667L11.1538 8.98833L8.10092 10.2667C7.97224 10.3207 7.83197 10.3424 7.69267 10.3299C7.55337 10.3175 7.41937 10.2712 7.30268 10.1952C7.18599 10.1193 7.09024 10.016 7.02399 9.8947C6.95774 9.77337 6.92307 9.63776 6.92308 9.5V2.83333C6.92308 2.61232 7.01223 2.40036 7.17091 2.24408C7.32959 2.0878 7.54482 2 7.76923 2H14.5385C14.7629 2 14.9781 2.0878 15.1368 2.24408C15.2955 2.40036 15.3846 2.61232 15.3846 2.83333V9.5C15.3846 9.72101 15.2955 9.93298 15.1368 10.0893C14.9781 10.2455 14.7629 10.3333 14.5385 10.3333ZM11.1538 7.25C11.2678 7.24986 11.3806 7.27225 11.4855 7.31583L13.6923 8.24V3.66667H8.61538V8.24L10.8222 7.31583C10.9271 7.27225 11.0399 7.24986 11.1538 7.25Z" fill="#00B87A"/>
<path d="M14.5385 10.3333C14.4244 10.3335 14.3116 10.3108 14.2068 10.2667L11.1538 8.98833L8.10092 10.2667C7.97224 10.3207 7.83197 10.3424 7.69267 10.3299C7.55337 10.3175 7.41937 10.2712 7.30268 10.1952C7.18599 10.1193 7.09024 10.016 7.02399 9.8947C6.95774 9.77337 6.92307 9.63776 6.92308 9.5V2.83333C6.92308 2.61232 7.01223 2.40036 7.17091 2.24408C7.32959 2.0878 7.54482 2 7.76923 2H14.5385C14.7629 2 14.9781 2.0878 15.1368 2.24408C15.2955 2.40036 15.3846 2.61232 15.3846 2.83333V9.5C15.3846 9.72101 15.2955 9.93298 15.1368 10.0893C14.9781 10.2455 14.7629 10.3333 14.5385 10.3333ZM11.1538 7.25C11.2678 7.24986 11.3806 7.27225 11.4855 7.31583L13.6923 8.24V3.66667H8.61538V8.24L10.8222 7.31583C10.9271 7.27225 11.0399 7.24986 11.1538 7.25Z" fill="#00B87A"/>
</svg>
