<?xml version="1.0" encoding="utf-8"?><svg width="40" height="40" fill="none" xmlns="http://www.w3.org/2000/svg" viewBox="0 0 40 40"><g clip-path="url(#aaclip0_157_4970)"><path fill-rule="evenodd" clip-rule="evenodd" d="M30.156 2.813a6.64 6.64 0 11-3.467 12.305l-2.133.572a.517.517 0 01-.639-.63l.574-2.14a6.64 6.64 0 015.665-10.107zM4.296 26.875h16.798v3.438H4.297v-3.438z" fill="#DEF7FC"/><path d="M4.297 19.61l.781-16.797h3.906l.782 16.796M5.078 6.72h3.906m4.688 12.89l.781-16.797h3.907l.78 16.797M14.454 6.72h3.907M4.296 33.75h16.797m3.515-3.438h11.093m-10.312.391v6.094m9.531-6.094v6.094m-4.765-6.094v6.094m-5.547-13.36h11.093M24.61 26.876h11.093M32.5 7.891l-3.125 3.125-1.563-1.563M.782 20h38.437v17.188H.78V20z" stroke="#01AFD2" stroke-width="2" stroke-miterlimit="22.926" stroke-linecap="round" stroke-linejoin="round"/></g><defs><clipPath id="aaclip0_157_4970"><path fill="#fff" d="M0 0h40v40H0z"/></clipPath></defs></svg>