<?xml version="1.0" encoding="utf-8"?><svg width="52" height="52" fill="none" xmlns="http://www.w3.org/2000/svg" viewBox="0 0 52 52"><path fill-rule="evenodd" clip-rule="evenodd" d="M39.203 3.656a8.633 8.633 0 11-4.507 15.997l-2.773.744a.672.672 0 01-.83-.82l.745-2.782a8.633 8.633 0 017.364-13.14zM5.586 34.938h21.836v4.468H5.586v-4.468z" fill="#DEF7FC"/><path d="M5.586 25.492L6.602 3.656h5.078l1.015 21.836M6.602 8.734h5.078m6.093 16.758L18.79 3.656h5.078l1.016 21.836M18.789 8.734h5.078M5.586 43.875h21.836m4.57-4.469h14.421m-13.405.508v7.922m12.39-7.922v7.922m-6.195-7.922v7.922m-7.211-17.367h14.421m-14.421 4.468h14.421m-4.163-24.68l-4.063 4.063-2.031-2.03M1.016 26h49.968v22.344H1.016V26z" stroke="#01AFD2" stroke-width="2" stroke-miterlimit="22.926" stroke-linecap="round" stroke-linejoin="round"/></svg>