<?xml version="1.0" encoding="utf-8"?><svg width="40" height="40" fill="none" xmlns="http://www.w3.org/2000/svg" viewBox="0 0 40 40"><g clip-path="url(#aaclip0_2060_5657)"><mask id="aaa" style="mask-type:luminance" maskUnits="userSpaceOnUse" x="0" y="0" width="40" height="40"><path d="M40 0H0v40h40V0z" fill="#fff"/></mask><g mask="url(#aaa)"><path d="M20 27.527c-4.15 0-7.527-3.377-7.527-7.527S15.85 12.472 20 12.472 27.527 15.85 27.527 20c0 4.15-3.376 7.527-7.527 7.527z" fill="#DEF7FC"/><path fill-rule="evenodd" clip-rule="evenodd" d="M5.702 27.275a1 1 0 01.623 1.27L5.31 31.514a1 1 0 01-1.27.622l-2.969-1.015a1 1 0 01.647-1.892l2.023.692.691-2.023a1 1 0 011.27-.623z" fill="#01AFD2"/><path fill-rule="evenodd" clip-rule="evenodd" d="M20 1.781C9.938 1.781 1.781 9.938 1.781 20c0 3.959 1.262 7.62 3.405 10.607a1 1 0 11-1.625 1.166A20.132 20.132 0 01-.22 20C-.219 8.834 8.834-.219 20-.219c4.39 0 8.457 1.401 11.773 3.78a1 1 0 11-1.166 1.625A18.132 18.132 0 0020 1.78zm14.69 6.705a1 1 0 011.27-.622l2.969 1.015a1 1 0 11-.647 1.892l-2.023-.691-.691 2.022a1 1 0 11-1.893-.646l1.015-2.97z" fill="#01AFD2"/><path fill-rule="evenodd" clip-rule="evenodd" d="M35.044 7.998a1 1 0 011.396.23A20.133 20.133 0 0140.219 20c0 11.167-9.052 20.219-20.219 20.219-4.39 0-8.457-1.401-11.773-3.78a1 1 0 011.166-1.625A18.133 18.133 0 0020 38.22c10.062 0 18.219-8.157 18.219-18.219 0-3.959-1.262-7.62-3.405-10.607a1 1 0 01.23-1.395z" fill="#01AFD2"/><path fill-rule="evenodd" clip-rule="evenodd" d="M16.241 6.665a1 1 0 011-1h5.518a1 1 0 011 1v2.87c.334.12.661.257.982.408l2.03-2.03a1 1 0 011.415 0l3.902 3.901a1 1 0 010 1.414l-2.031 2.031c.152.32.287.648.407.982h2.872a1 1 0 011 1v5.518a1 1 0 01-1 1h-2.872c-.12.334-.256.661-.407.982l2.03 2.03a1 1 0 010 1.415l-3.901 3.902a1 1 0 01-1.415 0l-2.03-2.031c-.32.151-.648.287-.982.407v2.871a1 1 0 01-1 1h-5.518a1 1 0 01-1-1v-2.87a11.03 11.03 0 01-.982-.408l-2.03 2.03a1 1 0 01-1.415 0l-3.902-3.901a1 1 0 010-1.415l2.031-2.03c-.151-.32-.287-.648-.407-.982H6.665a1 1 0 01-1-1v-5.518a1 1 0 011-1h2.87c.12-.334.257-.661.408-.982l-2.03-2.03a1 1 0 010-1.415l3.901-3.902a1 1 0 011.415 0l2.03 2.031c.32-.151.648-.287.982-.407V6.665zm2 1v2.6a1 1 0 01-.727.962 9.042 9.042 0 00-1.957.812 1 1 0 01-1.196-.166l-1.84-1.84-2.487 2.488 1.84 1.84a1 1 0 01.165 1.195 9.049 9.049 0 00-.812 1.957 1 1 0 01-.962.728h-2.6v3.518h2.6a1 1 0 01.962.728c.193.681.465 1.338.811 1.956a1 1 0 01-.165 1.196l-1.84 1.84 2.488 2.487 1.84-1.84a1 1 0 011.195-.165 9.057 9.057 0 001.958.813 1 1 0 01.727.962v2.6h3.518v-2.6a1 1 0 01.727-.963 9.052 9.052 0 001.957-.811 1 1 0 011.196.165l1.84 1.84 2.487-2.488-1.84-1.84a1 1 0 01-.165-1.196 9.052 9.052 0 00.813-1.957 1 1 0 01.962-.727h2.6v-3.518h-2.6a1 1 0 01-.963-.728 9.049 9.049 0 00-.811-1.957 1 1 0 01.165-1.195l1.84-1.84-2.488-2.487-1.84 1.84a1 1 0 01-1.195.165 9.042 9.042 0 00-1.957-.812 1 1 0 01-.728-.963v-2.6h-3.518z" fill="#01AFD2"/><path fill-rule="evenodd" clip-rule="evenodd" d="M20 15.47a1 1 0 011 1V19h1.745a1 1 0 110 2H20a1 1 0 01-1-1v-3.53a1 1 0 011-1z" fill="#01AFD2"/></g></g><defs><clipPath id="aaclip0_2060_5657"><path fill="#fff" d="M0 0h40v40H0z"/></clipPath></defs></svg>