<?xml version="1.0" encoding="utf-8"?><svg width="52" height="52" fill="none" xmlns="http://www.w3.org/2000/svg" viewBox="0 0 52 52"><g clip-path="url(#abclip0_3025_11921)"><path d="M26 35.785c-5.396 0-9.786-4.39-9.786-9.785 0-5.396 4.39-9.786 9.786-9.786s9.786 4.39 9.786 9.786c0 5.395-4.39 9.785-9.786 9.785z" fill="#DEF7FC"/><path d="M1.813 39.228l3.86 1.32 1.32-3.86" stroke="#01AFD2" stroke-width="2" stroke-miterlimit="10" stroke-linecap="round" stroke-linejoin="round"/><path d="M5.685 40.547A24.871 24.871 0 011.015 26C1.016 12.201 12.202 1.016 26 1.016c5.427 0 10.45 1.73 14.547 4.67m9.64 7.087l-3.86-1.32-1.32 3.86" stroke="#01AFD2" stroke-width="2" stroke-miterlimit="10" stroke-linecap="round" stroke-linejoin="round"/><path d="M46.315 11.453A24.872 24.872 0 0150.985 26C50.984 39.8 39.798 50.984 26 50.984c-5.427 0-10.45-1.73-14.547-4.669" stroke="#01AFD2" stroke-width="2" stroke-miterlimit="10" stroke-linecap="round" stroke-linejoin="round"/><path d="M43.336 29.587v-7.174h-4.68a13.077 13.077 0 00-1.172-2.825l3.31-3.31-5.072-5.072-3.31 3.31c-.892-.5-1.84-.893-2.825-1.172v-4.68h-7.174v4.68c-.984.279-1.932.672-2.825 1.172l-3.31-3.31-5.072 5.072 3.31 3.31c-.5.893-.893 1.841-1.172 2.825h-4.68v7.174h4.68c.279.984.672 1.932 1.172 2.825l-3.31 3.31 5.072 5.073 3.31-3.31c.893.5 1.841.893 2.825 1.171v4.68h7.174v-4.68a13.07 13.07 0 002.825-1.172l3.31 3.31 5.073-5.072-3.31-3.31c.5-.893.893-1.84 1.171-2.825h4.68z" stroke="#01AFD2" stroke-width="2" stroke-miterlimit="10" stroke-linecap="round" stroke-linejoin="round"/><path d="M26 21.411v4.59h3.57" stroke="#01AFD2" stroke-width="2" stroke-miterlimit="10" stroke-linecap="round" stroke-linejoin="round"/></g><defs><clipPath id="abclip0_3025_11921"><path fill="#fff" d="M0 0h52v52H0z"/></clipPath></defs></svg>