<?xml version="1.0" encoding="utf-8"?><svg width="40" height="40" fill="none" xmlns="http://www.w3.org/2000/svg" viewBox="0 0 40 40"><g clip-path="url(#abclip0_2060_5668)"><mask id="aba" style="mask-type:luminance" maskUnits="userSpaceOnUse" x="0" y="0" width="40" height="40"><path d="M40 0H0v40h40V0z" fill="#fff"/></mask><g mask="url(#aba)"><path fill-rule="evenodd" clip-rule="evenodd" d="M36.35 21.085c.343-.203.877-.222 1.48-.097zm1.48-.097c.094.019.184.04.269.063zm.269.063c-.021.085-.045.174-.073.264-.18.589-.453 1.046-.795 1.248-.343.203-.876.223-1.48.098a4.86 4.86 0 01-.268-.063c.02-.085.045-.174.072-.264.18-.59.453-1.046.795-1.249m-1.987 2.177l-.425.905a1 1 0 01-.574-.966l.999.06zm4.433-1.968zm.423-.907l.425-.905a1 1 0 01.573.966l-.998-.06zm.425-.905l-.425.905.998.061v.006l-.001.01-.002.029a6.327 6.327 0 01-.049.408c-.04.256-.108.611-.227 1-.223.731-.69 1.792-1.688 2.384-.999.59-2.154.49-2.904.335a7.137 7.137 0 01-1.368-.435l-.026-.011-.009-.004-.003-.002h-.001s-.001-.001.424-.906l-.999-.061v-.007l.002-.01.002-.028a5.061 5.061 0 01.048-.407c.04-.258.108-.613.227-1 .224-.732.69-1.794 1.689-2.385.998-.59 2.154-.49 2.903-.335a7.141 7.141 0 011.368.435l.027.011.008.004.003.002h.002v.001z" fill="#01AFD2"/><path fill-rule="evenodd" clip-rule="evenodd" d="M36.807 27.102c-.592-.31-1.17-.46-1.613-.345-.442.115-.873.527-1.238 1.086-.07.109-.134.217-.19.319.099.061.207.124.323.185.592.31 1.17.46 1.613.345m-3.191-.203l-.658.752a1 1 0 01-.284-1.087l.942.335zm4.296-1.387c.116.06.224.124.324.185zm.921.612s.001 0 0 0zm.657-.754l.659-.753a1 1 0 01.284 1.088l-.943-.335zm-1.254.327c-.056.102-.12.21-.191.319-.365.56-.796.97-1.238 1.085m3.342-2.483l-.659.752.943.335-.001.003-.002.003-.003.01-.01.027-.037.093a7.574 7.574 0 01-.66 1.266c-.445.685-1.23 1.623-2.41 1.93-1.18.307-2.322-.13-3.046-.51a7.575 7.575 0 01-1.271-.846l-.023-.02-.008-.006-.002-.002h-.002c0-.001 0-.002.658-.754l-.942-.335v-.003l.002-.003.003-.01.01-.028.037-.092a7.554 7.554 0 01.66-1.266c.446-.685 1.23-1.623 2.41-1.93 1.18-.307 2.322.13 3.046.51a7.582 7.582 0 011.271.845l.023.02.008.006.003.003.002.002z" fill="#01AFD2"/><path fill-rule="evenodd" clip-rule="evenodd" d="M29.003 31.92l-.972.234v.003l.001.003.003.01.008.03a7.11 7.11 0 00.133.44c.093.277.238.657.445 1.063.393.77 1.108 1.832 2.298 2.281 1.19.45 2.429.124 3.232-.195a8.002 8.002 0 001.428-.745l.026-.017.008-.006.003-.002.001-.001-.574-.819.575.818a1 1 0 00.398-1.052l-.973.234.973-.234-.001-.002-.001-.004-.003-.01-.007-.03a7.229 7.229 0 00-.133-.44 7.996 7.996 0 00-.446-1.062c-.393-.77-1.107-1.833-2.298-2.282-1.19-.449-2.429-.124-3.232.195a7.97 7.97 0 00-1.427.745l-.026.018-.009.005-.003.003h-.001s-.001.001.574.82zm1.208.456c.054.132.118.273.192.418.325.637.744 1.139 1.222 1.319.478.18 1.125.08 1.79-.183.15-.06.292-.124.42-.187a5.72 5.72 0 00-.192-.418c-.325-.637-.744-1.138-1.222-1.319m-2.21.37a5.69 5.69 0 01.42-.187c.666-.263 1.313-.363 1.79-.182m-3.418-.087l-.575-.818a1 1 0 00-.397 1.052l.972-.234z" fill="#01AFD2"/><path fill-rule="evenodd" clip-rule="evenodd" d="M34.255 19.368a1 1 0 011.1.89 13.123 13.123 0 01-.259 4.295c-1.284 5.645-6.023 9.604-11.48 10.169a1 1 0 11-.205-1.99c4.631-.478 8.647-3.84 9.735-8.623.28-1.23.345-2.457.22-3.642a1 1 0 01.89-1.1zM1.765 19.029c.75-.155 1.905-.256 2.903.335.999.591 1.465 1.653 1.69 2.384a7.105 7.105 0 01.274 1.408l.003.029V23.199s0 .002-.998.063l.425.905-.002.001-.003.002-.009.003-.026.012a4.823 4.823 0 01-.381.153c-.245.09-.59.2-.987.282-.75.155-1.905.255-2.904-.335C.752 23.693.285 22.632.061 21.9a7.108 7.108 0 01-.275-1.408l-.002-.029V20.45s0-.002.997-.063l-.424-.905.002-.001.003-.002.008-.004.027-.011a4.748 4.748 0 01.38-.153c.246-.09.59-.2.988-.282zM.78 20.387l-.424-.905a1 1 0 00-.574.966l.998-.06zm1.12.664a4.76 4.76 0 01.269-.063c.604-.125 1.137-.106 1.48.097.342.203.615.66.795 1.249.027.09.051.179.072.264a4.758 4.758 0 01-.268.063c-.604.125-1.137.105-1.48-.098-.342-.202-.615-.66-.795-1.248a4.756 4.756 0 01-.073-.264zm3.736 2.21l.425.906a1 1 0 00.574-.966l-.999.06z" fill="#01AFD2"/><path fill-rule="evenodd" clip-rule="evenodd" d="M2.263 25.331c.723-.38 1.866-.816 3.046-.51 1.18.308 1.964 1.246 2.41 1.93a7.561 7.561 0 01.696 1.36l.01.027.004.01.001.003v.002l-.941.336.658.753-.002.001-.003.002-.007.007-.023.02a6.742 6.742 0 01-.344.268 7.576 7.576 0 01-.927.578c-.724.38-1.867.816-3.047.509-1.18-.307-1.964-1.245-2.41-1.93a7.569 7.569 0 01-.696-1.358l-.01-.029-.004-.009v-.003l-.001-.002.941-.336-.658-.753.002-.001.003-.003.007-.006.023-.02.077-.063a7.588 7.588 0 011.195-.783zm-.649 1.63l-.658-.754a1 1 0 00-.284 1.088l.942-.335zm1.255.326c.056.102.12.21.19.319.365.56.797.97 1.239 1.085.442.116 1.02-.033 1.613-.344.115-.06.224-.124.324-.185a5.303 5.303 0 00-.192-.319c-.364-.56-.796-.97-1.238-1.086-.442-.115-1.02.034-1.613.345-.115.06-.224.124-.323.185zm4.62 1.202l.658.753a1 1 0 00.284-1.088l-.942.335z" fill="#01AFD2"/><path fill-rule="evenodd" clip-rule="evenodd" d="M11.571 31.102l-.574.818.972.235v.002l-.002.003-.002.01-.008.03a7.11 7.11 0 01-.133.44 7.975 7.975 0 01-.445 1.063c-.393.77-1.108 1.832-2.298 2.281-1.19.45-2.43.124-3.233-.195a8.004 8.004 0 01-1.427-.745l-.026-.017-.008-.006-.003-.002-.002-.001.574-.819-.972-.234v-.002l.002-.004.002-.01.008-.03a7.205 7.205 0 01.133-.44c.094-.277.239-.657.446-1.062.392-.77 1.107-1.833 2.297-2.282 1.19-.449 2.43-.124 3.233.195a7.976 7.976 0 011.427.745l.026.018.008.005.003.003h.002zm-6.615 3.097l-.972-.234a1 1 0 00.397 1.052l.575-.818zm1.209-.456c.054-.132.118-.273.191-.418.325-.637.745-1.138 1.222-1.319m-1.413 1.737c.127.063.269.127.42.187.665.264 1.312.363 1.79.183.477-.18.897-.682 1.222-1.32.074-.144.137-.285.192-.417a5.733 5.733 0 00-.42-.187c-.666-.263-1.313-.363-1.79-.182m3.418-.087l.972.235a1.002 1.002 0 00-.398-1.053l-.574.818zm-.972-.236z" fill="#01AFD2"/><path fill-rule="evenodd" clip-rule="evenodd" d="M5.745 19.368a1 1 0 01.89 1.099 11.127 11.127 0 00.219 3.642c1.088 4.783 5.104 8.145 9.735 8.624a1 1 0 01-.206 1.989c-5.456-.565-10.195-4.524-11.48-10.17a13.128 13.128 0 01-.258-4.295 1 1 0 011.1-.89z" fill="#01AFD2"/><path fill-rule="evenodd" clip-rule="evenodd" d="M14.502 4.463a1 1 0 01.988-.848h9.02a1 1 0 01.988.848c.3 1.945 1.832 3.32 3.556 3.32.244 0 .487-.028.726-.082a1 1 0 011.22.976V23.4c0 .845-.221 1.678-.644 2.402M16.286 5.615C15.579 7.974 13.524 9.757 11 9.782v13.62c0 .498.13.981.371 1.392.24.41.575.727.957.922L20 29.646l7.671-3.93a2.37 2.37 0 00.958-.922c.24-.41.371-.894.371-1.393V9.781c-2.523-.024-4.578-1.807-5.287-4.166h-7.426zm-1.784-1.152c-.3 1.945-1.832 3.32-3.557 3.32zM9.376 7.896a1 1 0 01.845-.194c.233.052.475.08.724.08m-1.57.114a1 1 0 00-.375.78zM9 8.676v14.725zm0 14.725c0 .845.221 1.678.644 2.402zm.644 2.402a4.37 4.37 0 001.773 1.694l8.127 4.162a1 1 0 00.912 0l8.127-4.162a4.37 4.37 0 001.773-1.694" fill="#01AFD2"/><path d="M18.222 9.461a9.236 9.236 0 01-4.145 3.45v9.987L20 25.808l5.923-2.91v-9.986a9.236 9.236 0 01-4.145-3.45h-3.556z" fill="#DEF7FC"/><path fill-rule="evenodd" clip-rule="evenodd" d="M17.684 8.461h4.632l.297.45a8.236 8.236 0 003.695 3.078l.615.256v11.276L20 26.923l-6.923-3.402V12.245l.615-.256a8.236 8.236 0 003.695-3.078l.297-.45zm1.059 2a10.242 10.242 0 01-3.666 3.092v8.723L20 24.695l4.923-2.42v-8.722a10.241 10.241 0 01-3.666-3.092h-2.514z" fill="#01AFD2"/></g></g><defs><clipPath id="abclip0_2060_5668"><path fill="#fff" d="M0 0h40v40H0z"/></clipPath></defs></svg>