<?xml version="1.0" encoding="utf-8"?><svg width="40" height="40" fill="none" xmlns="http://www.w3.org/2000/svg" viewBox="0 0 40 40"><g clip-path="url(#acclip0_2060_5683)"><mask id="aca" style="mask-type:luminance" maskUnits="userSpaceOnUse" x="0" y="0" width="40" height="40"><path d="M40 0H0v40h40V0z" fill="#fff"/></mask><g mask="url(#aca)"><path d="M15.294 34.51a2.356 2.356 0 01-2.353-2.353v-2.353h4.706v2.353a2.356 2.356 0 01-2.353 2.353zm9.412 0a2.356 2.356 0 01-2.353-2.353v-2.353h4.706v2.353a2.356 2.356 0 01-2.353 2.353zM20 25.098a2.356 2.356 0 01-2.353-2.353v-2.353h4.706v2.353A2.356 2.356 0 0120 25.098zm12.941-8.627v.784H7.06v-.784c0-1.3 1.053-2.353 2.353-2.353h21.176c1.3 0 2.353 1.053 2.353 2.353z" fill="#DEF7FC"/><path fill-rule="evenodd" clip-rule="evenodd" d="M19.41-.023a1 1 0 011.18 0L36.67 11.742a1 1 0 01.41.807v25.667h2.137a1 1 0 110 2H.784a1 1 0 110-2h2.138V12.549a1 1 0 01.41-.807L19.41-.023zM4.922 38.216h1.137V16.47a3.353 3.353 0 013.353-3.353h21.176a3.353 3.353 0 013.353 3.353v21.745h1.137v-25.16L20 2.024 4.922 13.056v25.16zm27.02 0V16.47c0-.748-.606-1.353-1.354-1.353H9.412c-.747 0-1.353.605-1.353 1.353v21.745H31.94z" fill="#01AFD2"/><path d="M23.53 10.98h-7.06V7.844L20 4.706l3.53 3.137v3.138z" fill="#DEF7FC"/><path fill-rule="evenodd" clip-rule="evenodd" d="M16.863 21.392a.569.569 0 00-.569.569v6.843h7.412v-6.843a.569.569 0 00-.569-.569h-6.274zm8.843 7.412v-6.843a2.569 2.569 0 00-2.569-2.569h-6.274a2.569 2.569 0 00-2.569 2.569v6.843h-2.137a2.569 2.569 0 00-2.569 2.569v7.843a1 1 0 001 1h18.824a1 1 0 001-1v-7.843a2.569 2.569 0 00-2.569-2.569h-2.137zm-4.706 2v7.412h7.412v-6.843a.569.569 0 00-.569-.569H21zm-2 7.412v-7.412h-6.843a.569.569 0 00-.569.569v6.843H19z" fill="#01AFD2"/></g></g><defs><clipPath id="acclip0_2060_5683"><path fill="#fff" d="M0 0h40v40H0z"/></clipPath></defs></svg>