<?xml version="1.0" encoding="utf-8"?><svg width="40" height="40" fill="none" xmlns="http://www.w3.org/2000/svg" viewBox="0 0 40 40"><g clip-path="url(#adclip0_2060_5692)"><mask id="ada" style="mask-type:luminance" maskUnits="userSpaceOnUse" x="0" y="0" width="40" height="40"><path d="M40 0H0v40h40V0z" fill="#fff"/></mask><g mask="url(#ada)" fill-rule="evenodd" clip-rule="evenodd"><path d="M31.383 3.906a2.127 2.127 0 00-2.127-2.125H4.102a1 1 0 010-2h25.143c2.287-.014 4.138 1.855 4.138 4.125v2.735a1 1 0 11-2 0V3.906zm1 21.616a1 1 0 011 1v7.619a1 1 0 11-2 0v-7.619a1 1 0 011-1z" fill="#01AFD2"/><path d="M-.023 3.906a4.125 4.125 0 018.25 0v32.188a2.125 2.125 0 104.25 0V34.53a1 1 0 011-1h22.812a1 1 0 011 1v1.563a4.125 4.125 0 01-4.125 4.125H10.351a4.125 4.125 0 01-4.124-4.125V6.469H.977a1 1 0 01-1-1V3.906zm6.25.563v-.563a2.125 2.125 0 00-4.25 0v.563h4.25zm7.66 33.75h19.277a2.125 2.125 0 002.125-2.125v-.563H14.476v.563c0 .777-.215 1.504-.588 2.125z" fill="#01AFD2"/><path d="M9.742 5.469a1 1 0 011-1H23.81a1 1 0 110 2H10.742a1 1 0 01-1-1zm0 3.616a1 1 0 011-1h9.063a1 1 0 110 2h-9.063a1 1 0 01-1-1zm0 7.232a1 1 0 011-1h9.063a1 1 0 110 2h-9.063a1 1 0 01-1-1zm18.988 1.372a1 1 0 011 1v7.844l2.145-1.263a1 1 0 011.015 0l2.145 1.263v-7.844a1 1 0 112 0v9.593a1 1 0 01-1.507.861l-3.145-1.85-3.145 1.85a1 1 0 01-1.508-.861v-9.593a1 1 0 011-1zM9.742 19.933a1 1 0 011-1H23.81a1 1 0 110 2H10.742a1 1 0 01-1-1zm0 3.616a1 1 0 011-1H23.81a1 1 0 110 2H10.742a1 1 0 01-1-1zm0 3.616a1 1 0 011-1h9.063a1 1 0 110 2h-9.063a1 1 0 01-1-1zm0 3.616a1 1 0 011-1H23.81a1 1 0 110 2H10.742a1 1 0 01-1-1z" fill="#01AFD2"/><path d="M32.383 6.25c1.117 0 2.058.76 2.332 1.791a2.414 2.414 0 013.299 3.299 2.415 2.415 0 010 4.665 2.415 2.415 0 01-3.299 3.298 2.415 2.415 0 01-4.665 0 2.415 2.415 0 01-3.298-3.298 2.415 2.415 0 010-4.665 2.414 2.414 0 013.299-3.299 2.414 2.414 0 012.332-1.79z" fill="#DEF7FC"/><path d="M31.815 10.218a3.5 3.5 0 111.134 6.907 3.5 3.5 0 01-1.134-6.907zm0 0l.162.986-.162-.986zm2.047 3.21a1.5 1.5 0 10-2.96.486 1.5 1.5 0 002.96-.486z" fill="#01AFD2"/></g></g><defs><clipPath id="adclip0_2060_5692"><path fill="#fff" d="M0 0h40v40H0z"/></clipPath></defs></svg>