<?xml version="1.0" encoding="utf-8"?><svg width="40" height="40" fill="none" xmlns="http://www.w3.org/2000/svg" viewBox="0 0 40 40"><g clip-path="url(#aeclip0_2060_5702)"><mask id="aea" style="mask-type:luminance" maskUnits="userSpaceOnUse" x="0" y="0" width="40" height="40"><path d="M40 0H0v40h40V0z" fill="#fff"/></mask><g mask="url(#aea)" fill-rule="evenodd" clip-rule="evenodd"><path d="M34.531 8.477v-4.57h-11.64c.963 3.594-2.295 5.613-1.651 7.838.782 2.7 4 1.808 4.7 4.427.578 2.155-2.415 4.394-1.356 6.145 1.505 2.488 6.758-2.942 9.947-2.942v-8.789l1.367-1.054-1.367-1.055zM18.387 23.254c-.835-.483-1.87-.623-3.035-.525-1.044 1.466-2.296 2.831-3.165 3.828-.578-.663-1.326-1.49-2.07-2.401-6.048 2.38-4.227-.015-9.336-.015v11.94a3.125 3.125 0 013.125-3.112h21.485c0-4.394-3.063-3-5.075-4.73-1.165-1.002.674-3.482-1.93-4.985z" fill="#DEF7FC"/><path d="M10.593 2.907a1 1 0 01.791.348l.425.496.45-.508a1 1 0 01.749-.337h21.133a1 1 0 110 2H13.458l-.912 1.03a1 1 0 01-1.508-.012l-.36-.42-1.01 1.346a1 1 0 01-1.607-.009l-1.42-1.935H3.907a2.127 2.127 0 00-2.125 2.128V36.094a1 1 0 01-2 0V7.044c-.014-2.286 1.855-4.138 4.125-4.138H7.15a1 1 0 01.806.409l.921 1.256.95-1.265a1 1 0 01.767-.4z" fill="#01AFD2"/><path d="M34.531-.219h1.563a4.125 4.125 0 014.124 4.125v25.938a4.125 4.125 0 01-4.125 4.125H31.72a1 1 0 01-.884-.534l-.41-.778-.394.768a1 1 0 01-.89.544H6.468v5.25a1 1 0 01-1 1H3.906a4.125 4.125 0 110-8.25H28.53l.99-1.936a1 1 0 011.775-.011l1.027 1.947h3.771a2.125 2.125 0 000-4.25h-1.562a1 1 0 01-1-1V10.586a1 1 0 01.39-.791l.34-.263-.34-.263a1 1 0 01-.39-.792V.78a1 1 0 011-1zm3.688 26.527V3.906a2.125 2.125 0 00-2.126-2.125h-.562v6.204l.978.755a1 1 0 010 1.583l-.978.755v14.64h.563c.777 0 1.504.216 2.124.59zm-33.75 7.66h-.563a2.125 2.125 0 100 4.25h.562v-4.25z" fill="#01AFD2"/><path d="M6.11 18.209a6.078 6.078 0 1112.156 0c0 1.742-1.002 3.55-2.064 5.05-.915 1.293-1.992 2.514-2.82 3.453l-.44.502a1 1 0 01-1.508 0l-.441-.502c-.828-.939-1.905-2.16-2.82-3.453-1.062-1.5-2.064-3.308-2.064-5.05zm6.077-4.079A4.078 4.078 0 008.11 18.21c0 1.069.66 2.429 1.697 3.895.75 1.061 1.617 2.067 2.382 2.938.764-.87 1.63-1.877 2.38-2.938 1.039-1.466 1.698-2.826 1.698-3.895a4.078 4.078 0 00-4.078-4.079z" fill="#01AFD2"/><path d="M9.374 18.209a2.817 2.817 0 012.813-2.814 2.817 2.817 0 012.814 2.814 2.817 2.817 0 01-2.814 2.813 2.817 2.817 0 01-2.813-2.813zm2.813-.814a.817.817 0 00-.813.814c0 .446.367.813.813.813a.817.817 0 00.814-.813.817.817 0 00-.814-.814z" fill="#01AFD2"/></g></g><defs><clipPath id="aeclip0_2060_5702"><path fill="#fff" d="M0 0h40v40H0z"/></clipPath></defs></svg>