<?xml version="1.0" encoding="utf-8"?><svg width="52" height="52" fill="none" xmlns="http://www.w3.org/2000/svg" viewBox="0 0 52 52"><path d="M34.668 4.075v3.06H17.332v-3.06h-6.119v42.83h29.574V4.076h-6.119z" fill="#DEF7FC"/><path d="M34.668 4.075h7.139a3.06 3.06 0 013.059 3.06v40.79a3.06 3.06 0 01-3.06 3.06H10.195a3.06 3.06 0 01-3.06-3.06V7.135a3.06 3.06 0 013.06-3.06h7.138M15.292 16.4l1.443 1.442 3.656-4.08m4.08 0h12.237m-12.238 4.08h12.238m-21.416 9.775l1.443 1.442 3.656-4.079m4.08 0h12.237M24.47 29.06h12.238m-21.416 9.775l1.443 1.442 3.656-4.08m4.08 0h12.237m-12.238 4.08h12.238M17.332 1.016h17.336v6.118H17.332V1.016z" stroke="#01AFD2" stroke-width="2" stroke-miterlimit="10" stroke-linecap="round" stroke-linejoin="round"/></svg>