<?xml version="1.0" encoding="utf-8"?><svg width="52" height="52" fill="none" xmlns="http://www.w3.org/2000/svg" viewBox="0 0 52 52"><path fill-rule="evenodd" clip-rule="evenodd" d="M16 41h8v-9h-8v9z" fill="#E6EEFF"/><path d="M6 2h34.11C42.255 1.985 44 3.766 44 5.934V44" stroke="#01AFD2" stroke-width="2" stroke-miterlimit="22.926" stroke-linecap="round" stroke-linejoin="round"/><path d="M13.707 50h32.39A3.902 3.902 0 0050 46.098v-1.952H17.61v1.952A3.902 3.902 0 0113.707 50zm0 0a3.902 3.902 0 01-3.902-3.902V5.902a3.902 3.902 0 10-7.805 0v1.952h7.317M20 36c1.812 0 1.938-2 3.75-2s1.938 2 3.75 2 1.938-2 3.75-2 1.938 2 3.75 2M23 8h8M16 13h23M16 18h23M16 22h23M16 25h11" stroke="#01AFD2" stroke-width="2" stroke-miterlimit="22.926" stroke-linecap="round" stroke-linejoin="round"/><path fill-rule="evenodd" clip-rule="evenodd" d="M49.928 9.732l-5.87 22.638L40.94 36 40 31.246 45.87 8.61c.3-1.158 1.453-1.845 2.573-1.535 1.12.31 1.785 1.5 1.485 2.658z" fill="#E6EEFF" stroke="#01AFD2" stroke-width="2"/></svg>