<?xml version="1.0" encoding="utf-8"?><svg width="52" height="52" fill="none" xmlns="http://www.w3.org/2000/svg" viewBox="0 0 52 52"><path d="M36.132 16.32l12.824.018a2.03 2.03 0 012.028 2.03V44.86a2.03 2.03 0 01-2.03 2.032H3.046a2.03 2.03 0 01-2.031-2.032V18.35a2.03 2.03 0 012.03-2.03h12.821m34.947 5.095H34.146m-33.033 0h16.74-.036M1.016 25.49h49.896M6.107 33.644h12.22m-6.11 5.095h6.11" stroke="#01AFD2" stroke-width="2" stroke-miterlimit="10" stroke-linecap="round" stroke-linejoin="round"/><path d="M31.564 30.586H46.84V36.7H31.564v-6.114zM26 26.506c-6.175 0-11.199-5.027-11.199-11.207C14.801 9.12 19.825 4.094 26 4.094S37.198 9.12 37.198 15.3c0 6.179-5.023 11.206-11.198 11.206z" fill="#DEF7FC"/><path d="M20.96 16.02l2.88 2.883 7.2-7.207" stroke="#01AFD2" stroke-width="2" stroke-miterlimit="10" stroke-linecap="round" stroke-linejoin="round"/></svg>