<?xml version="1.0" encoding="utf-8"?><svg width="52" height="52" fill="none" xmlns="http://www.w3.org/2000/svg" viewBox="0 0 52 52"><path d="M23.45 22.45a7.668 7.668 0 100-15.336 7.668 7.668 0 000 15.336z" fill="#DEF7FC" stroke="#01AFD2" stroke-width="2"/><path d="M42.316 6.115h-2.04v36.711a3.06 3.06 0 01-3.059 3.06H11.723v2.039a3.06 3.06 0 003.06 3.06h27.533a3.06 3.06 0 003.06-3.06V9.174a3.06 3.06 0 00-3.06-3.06z" stroke="#01AFD2" stroke-width="2" stroke-miterlimit="10" stroke-linecap="round" stroke-linejoin="round"/><path d="M42.316 6.115h-2.04v36.711a3.06 3.06 0 01-3.059 3.06H11.723v2.039a3.06 3.06 0 003.06 3.06h27.533a3.06 3.06 0 003.06-3.06V9.174a3.06 3.06 0 00-3.06-3.06zM19.015 14.413l2.931 2.932 5.125-5.125M11.723 30.589H24.98M11.723 35.688h23.455M11.723 40.787h23.455" stroke="#01AFD2" stroke-width="2" stroke-miterlimit="10" stroke-linecap="round" stroke-linejoin="round"/><path d="M37.218 1.016H9.684a3.06 3.06 0 00-3.06 3.06v38.75a3.06 3.06 0 003.06 3.06h27.534a3.06 3.06 0 003.059-3.06V4.076a3.06 3.06 0 00-3.06-3.06z" stroke="#01AFD2" stroke-width="2" stroke-miterlimit="10" stroke-linecap="round" stroke-linejoin="round"/></svg>