<?xml version="1.0" encoding="utf-8"?><svg width="52" height="52" fill="none" xmlns="http://www.w3.org/2000/svg" viewBox="0 0 52 52"><path d="M36.309 36.85a6.225 6.225 0 00-6.044-5.162l-5.912-.12a6.506 6.506 0 00-8.562 1.387c-.663.815-1.264 1.669-1.673 2.48h-3.064v7.654l15.18 3.333c3.055.685 6.274.181 8.923-1.49.08-.05 15.827-10.727 15.827-10.727a6.206 6.206 0 00-7.846-1.134l-6.754 4.207H22.832" stroke="#01AFD2" stroke-width="2" stroke-miterlimit="10" stroke-linecap="round" stroke-linejoin="round"/><path d="M11.054 45.651H1.016V33.655h10.038V45.65zM6.927 40.85v.747M49.228 26.629H20.836c-.97 0-1.755-.786-1.755-1.756V7.037c0-.97.786-1.756 1.755-1.756h28.392c.97 0 1.756.786 1.756 1.756v17.836c0 .97-.786 1.756-1.756 1.756z" stroke="#01AFD2" stroke-width="2" stroke-miterlimit="10" stroke-linecap="round" stroke-linejoin="round"/><path d="M45.515 18.544v-5.021a3.757 3.757 0 01-2.655-2.773H27.205a3.757 3.757 0 01-2.656 2.773v5.021a3.758 3.758 0 012.616 2.616H42.9a3.758 3.758 0 012.616-2.616z" fill="#DEF7FC" stroke="#01AFD2" stroke-width="2"/><path d="M37.21 15.956a2.178 2.178 0 11-4.355 0 2.178 2.178 0 014.356 0z" stroke="#01AFD2" stroke-width="2" stroke-miterlimit="10" stroke-linecap="round" stroke-linejoin="round"/></svg>