<?xml version="1.0" encoding="utf-8"?><svg width="52" height="52" fill="none" xmlns="http://www.w3.org/2000/svg" viewBox="0 0 52 52"><g clip-path="url(#ahclip0_3025_1869)"><path d="M39.767 18.332V28.53h11.217l-4.079-10.198h-7.138zM17.332 27.51a7.138 7.138 0 100-14.277 7.138 7.138 0 000 14.277z" fill="#DEF7FC"/><path d="M9.684 41.273a1.016 1.016 0 100-2.032 1.016 1.016 0 000 2.032zM17.332 21.387h3.06a1.016 1.016 0 000-2.03h-2.044v-2.044a1.016 1.016 0 00-2.032 0v3.059c0 .56.455 1.015 1.016 1.015z" fill="#01AFD2"/><path d="M51.927 28.153l-3.88-9.699a3.038 3.038 0 00.894-2.153v-.017a3.05 3.05 0 00-3.047-3.046h-9.19v-2.044a3.059 3.059 0 00-3.056-3.055H3.055A3.059 3.059 0 000 11.194v25.494a3.059 3.059 0 003.055 3.055h1.049c-.304 3.322 2.324 6.119 5.58 6.119 3.26 0 5.883-2.802 5.58-6.119h21.472c-.303 3.322 2.325 6.119 5.58 6.119 3.26 0 5.883-2.802 5.58-6.119h1.049A3.059 3.059 0 0052 36.688V28.53c0-.13-.025-.257-.073-.377zm-6.033-12.884c.56 0 1.016.456 1.016 1.016v.016c0 .565-.463 1.016-1.016 1.016h-9.19v-2.048h9.19zM3.055 10.17h30.593c.565 0 1.024.46 1.024 1.024v19.38H2.032v-19.38c0-.565.459-1.024 1.023-1.024zm6.629 33.66a3.577 3.577 0 01-3.574-3.573 3.577 3.577 0 013.574-3.573 3.577 3.577 0 013.573 3.573 3.578 3.578 0 01-3.573 3.574zm0-9.177a5.61 5.61 0 00-4.991 3.059H3.055c-.564 0-1.024-.46-1.024-1.024v-4.083h32.641v5.107H14.674a5.61 5.61 0 00-4.99-3.06zm32.632 9.178a3.577 3.577 0 01-3.573-3.574 3.577 3.577 0 013.573-3.573 3.577 3.577 0 013.574 3.573 3.577 3.577 0 01-3.574 3.574zm7.653-7.143c0 .565-.46 1.024-1.024 1.024h-1.638a5.61 5.61 0 00-4.99-3.06 5.61 5.61 0 00-4.991 3.06h-.622V19.348c9.684-.006 9.214.014 9.507-.017l3.758 9.395v7.962z" fill="#01AFD2"/><path d="M42.316 41.273a1.016 1.016 0 100-2.032 1.016 1.016 0 000 2.032z" fill="#01AFD2"/></g><defs><clipPath id="ahclip0_3025_1869"><path fill="#fff" d="M0 0h52v52H0z"/></clipPath></defs></svg>