<?xml version="1.0" encoding="utf-8"?><svg width="24" height="24" xmlns="http://www.w3.org/2000/svg" viewBox="0 0 24 24"><path d="M19.804 5.698c-.773-.817-1.8-1.266-2.893-1.266-1.093 0-2.12.45-2.892 1.266L7.57 12.509c-.957 1.01-.957 2.656 0 3.667a2.366 2.366 0 003.471 0l4.246-4.486a.899.899 0 000-1.222.788.788 0 00-1.157 0l-4.246 4.485a.789.789 0 01-1.157 0 .9.9 0 010-1.222l6.449-6.811c.463-.49 1.08-.76 1.735-.76.656 0 1.272.27 1.736.76.957 1.01.957 2.655 0 3.666L11.62 18.01a3.943 3.943 0 01-5.785 0 4.418 4.418 0 01-1.199-3.056c0-1.154.426-2.239 1.199-3.055l7.026-7.423a.899.899 0 000-1.222.788.788 0 00-1.157 0l-7.027 7.423C3.596 11.818 3 13.338 3 14.953c0 1.616.596 3.136 1.677 4.278 1.117 1.18 2.583 1.77 4.05 1.769 1.466 0 2.933-.59 4.05-1.769l7.027-7.423c1.595-1.684 1.595-4.426 0-6.11z"/></svg>