<?xml version="1.0" encoding="utf-8"?><svg width="25" height="24" xmlns="http://www.w3.org/2000/svg" viewBox="0 0 25 24"><path fill-rule="evenodd" clip-rule="evenodd" d="M12.333 9.692c-2.196 0-5.2.172-7.048.293a1.21 1.21 0 00-1.133 1.072c-.134 1.204-.28 2.81-.28 4.02 0 1.21.146 2.816.28 4.02a1.21 1.21 0 001.133 1.071c1.847.122 4.852.294 7.048.294 2.196 0 5.202-.172 7.048-.293a1.21 1.21 0 001.133-1.072c.134-1.204.28-2.81.28-4.02 0-1.21-.146-2.816-.28-4.02a1.21 1.21 0 00-1.133-1.072c-1.846-.121-4.852-.293-7.048-.293zM5.183 8.45c1.85-.12 4.9-.296 7.15-.296 2.251 0 5.302.175 7.15.296a2.748 2.748 0 012.56 2.438c.134 1.21.29 2.889.29 4.189 0 1.3-.156 2.98-.29 4.19a2.748 2.748 0 01-2.56 2.437c-1.849.121-4.9.296-7.15.296s-5.302-.175-7.15-.296a2.748 2.748 0 01-2.56-2.438c-.134-1.21-.29-2.889-.29-4.19 0-1.301.156-2.978.29-4.188a2.748 2.748 0 012.56-2.438z"/><path fill-rule="evenodd" clip-rule="evenodd" d="M12.333 6.615c-1.6 0-3.752.076-5.2.135-.586.024-1.038.435-1.109.954-.06.436-.1.873-.1 1.22a.77.77 0 11-1.54 0c0-.45.053-.966.116-1.427.18-1.32 1.302-2.232 2.57-2.284 1.45-.06 3.628-.136 5.263-.136 1.635 0 3.814.076 5.263.136 1.268.052 2.39.965 2.57 2.284.063.461.116.977.116 1.426a.77.77 0 11-1.539 0 9.605 9.605 0 00-.1-1.219c-.072-.52-.524-.93-1.11-.954-1.448-.06-3.6-.135-5.2-.135z"/><path fill-rule="evenodd" clip-rule="evenodd" d="M12.333 3.538c-.955 0-2.194.054-3.182.106-.597.032-1.058.474-1.11 1.029a12.9 12.9 0 00-.067 1.173.77.77 0 11-1.538 0c0-.41.032-.882.073-1.317.127-1.354 1.243-2.351 2.56-2.421A66.96 66.96 0 0112.333 2c.998 0 2.271.055 3.264.108 1.317.07 2.433 1.067 2.56 2.42.04.436.073.908.073 1.318a.771.771 0 11-1.538 0c0-.34-.028-.757-.067-1.173-.052-.555-.513-.997-1.11-1.029a65.713 65.713 0 00-3.182-.106zM15 13.59a.77.77 0 01-.154 1.077l-2.735 2.05a.77.77 0 01-.923 0L9.82 15.692a.77.77 0 11.923-1.23l.906.679 2.274-1.705A.77.77 0 0115 13.59z"/></svg>