<?xml version="1.0" encoding="utf-8"?><svg width="24" height="24" xmlns="http://www.w3.org/2000/svg" viewBox="0 0 24 24"><path fill-rule="evenodd" clip-rule="evenodd" d="M8.672 2.006a8.995 8.995 0 018.808 6.002h.518a6 6 0 015.722 4.186 5.996 5.996 0 01-2.267 6.716 1 1 0 01-1.15-1.635A3.998 3.998 0 0018 10.007h-1.26a1 1 0 01-.968-.751 6.996 6.996 0 10-12.016 6.375 1 1 0 11-1.497 1.325 8.994 8.994 0 016.413-14.95zm3.33 9a1 1 0 011 1v6.582l2.292-2.292a1 1 0 111.413 1.414l-3.998 3.997a1 1 0 01-1.413 0L7.298 17.71a1 1 0 111.413-1.414l2.292 2.292v-6.582a1 1 0 011-1z"/></svg>