<?xml version="1.0" encoding="utf-8"?><svg width="20" height="20" xmlns="http://www.w3.org/2000/svg" viewBox="0 0 20 20"><path fill-rule="evenodd" clip-rule="evenodd" d="M11.03 2.727c0-.401.33-.727.737-.727h3.496c.407 0 .737.326.737.727v14.546c0 .401-.33.727-.737.727h-3.496a.732.732 0 01-.737-.727V2.727zm1.473.728v13.09h2.023V3.456h-2.023zM4 10c0-.402.33-.727.737-.727h3.496c.407 0 .737.325.737.727v7.273c0 .401-.33.727-.737.727H4.737A.732.732 0 014 17.273V10zm1.474.727v5.819h2.023v-5.819H5.474z"/></svg>