<?xml version="1.0" encoding="utf-8"?><svg width="24" height="24" xmlns="http://www.w3.org/2000/svg" viewBox="0 0 24 24"><path d="M18.204 10.453c0-.475-.39-.86-.871-.86h-8.98a.866.866 0 00-.87.86c0 .475.39.86.87.86h8.98a.866.866 0 00.871-.86zm-9.85 2.578a.866.866 0 00-.872.86c0 .474.39.859.872.859h5.453a.866.866 0 00.872-.86c0-.474-.39-.859-.872-.859H8.354z"/><path d="M10.402 21.281H7.487c-.961 0-1.744-.77-1.744-1.718V4.438c0-.948.783-1.72 1.744-1.72h10.717c.962 0 1.744.772 1.744 1.72v5.285c0 .474.39.859.872.859a.866.866 0 00.871-.86V4.439C21.691 2.542 20.127 1 18.204 1H7.487C5.564 1 4 2.542 4 4.438v15.125C4 21.457 5.564 23 7.487 23h2.915a.866.866 0 00.872-.86c0-.474-.39-.859-.872-.859z"/><path d="M23.235 13.443a2.645 2.645 0 00-3.697-.001l-4.786 4.707a.859.859 0 00-.219.36l-1.042 3.382a.848.848 0 00.21.85.874.874 0 00.857.228l3.518-.961a.874.874 0 00.383-.22l4.776-4.7a2.555 2.555 0 000-3.646zm-5.845 6.969l-1.77.483.518-1.681 3.23-3.176 1.232 1.215-3.21 3.159zm4.613-4.54l-.169.167-1.233-1.215.169-.166a.882.882 0 011.233 0c.34.335.34.88 0 1.215zm-4.67-9.716h-8.98a.866.866 0 00-.87.86c0 .474.39.859.87.859h8.98a.866.866 0 00.871-.86c0-.474-.39-.859-.871-.859z"/></svg>