<?xml version="1.0" encoding="utf-8"?><svg width="24" height="24" fill="none" xmlns="http://www.w3.org/2000/svg" viewBox="0 0 24 24"><path d="M15.6 12l1 .02v-.04l-1 .02zm-7.2 0l-1-.02v.04l1-.02zM20 12a8 8 0 01-8 8v2c5.523 0 10-4.477 10-10h-2zm-8 8a8 8 0 01-8-8H2c0 5.523 4.477 10 10 10v-2zm-8-8a8 8 0 018-8V2C6.477 2 2 6.477 2 12h2zm8-8a8 8 0 018 8h2c0-5.523-4.477-10-10-10v2zm-9 9h18v-2H3v2zm8.262-9.326a12.77 12.77 0 013.338 8.347l2-.042a14.77 14.77 0 00-3.862-9.653l-1.476 1.348zM14.6 11.98a12.77 12.77 0 01-3.338 8.347l1.476 1.348a14.77 14.77 0 003.862-9.653l-2-.042zm-1.862 8.347A12.77 12.77 0 019.4 11.979l-2 .042a14.77 14.77 0 003.862 9.653l1.476-1.348zM9.4 12.02a12.77 12.77 0 013.338-8.347l-1.476-1.348A14.77 14.77 0 007.4 11.979l2 .042z" fill="#fff"/></svg>