<?xml version="1.0" encoding="utf-8"?><svg width="24" height="24" fill="none" xmlns="http://www.w3.org/2000/svg" viewBox="0 0 24 24"><path d="M21.983 17.344a2.235 2.235 0 00-1.078-1.656l-2.674-1.603a2.25 2.25 0 00-2.751.337c-.656.655-1.652.781-2.422.31a11.38 11.38 0 01-2.107-1.68 11.791 11.791 0 01-1.681-2.108c-.47-.77-.345-1.767.31-2.423a2.247 2.247 0 00.338-2.752L8.314 3.095c-.36-.6-.963-.993-1.655-1.078a2.229 2.229 0 00-1.867.645L2.774 4.68a2.627 2.627 0 00-.755 2.16c.425 3.426 2.325 7.045 5.21 9.93s6.507 4.785 9.932 5.212a2.63 2.63 0 002.159-.756l2.018-2.019a2.24 2.24 0 00.645-1.867v.004zm-1.689.819l-2.018 2.018a1.137 1.137 0 01-.93.334c-3.103-.386-6.41-2.134-9.065-4.79-2.655-2.659-4.403-5.963-4.789-9.067a1.13 1.13 0 01.334-.93L5.844 3.71a.777.777 0 01.64-.219c.238.03.445.163.567.367l1.604 2.674a.772.772 0 01-.115.941 3.449 3.449 0 00-.53 4.241c.504.83 1.145 1.63 1.897 2.386a12.761 12.761 0 002.384 1.896c1.36.83 3.1.611 4.24-.53a.768.768 0 01.941-.115l2.674 1.604a.776.776 0 01.148 1.207z" fill="#01AFD2"/><path d="M16.817 11.262a.742.742 0 01-.715-.544 4.586 4.586 0 00-3.185-3.186.744.744 0 01-.518-.91.744.744 0 01.91-.52 6.085 6.085 0 014.223 4.223.741.741 0 01-.715.937zm3.703 0a.74.74 0 01-.73-.622A8.178 8.178 0 0013 3.847a.741.741 0 01.233-1.463 9.652 9.652 0 018.021 8.023.741.741 0 01-.733.859v-.004z" fill="#01AFD2"/></svg>