<?xml version="1.0" encoding="utf-8"?><svg width="32" height="32" fill="none" xmlns="http://www.w3.org/2000/svg" viewBox="0 0 32 32"><g clip-path="url(#avclip0_338_1435)" fill="#1F1F1F"><path d="M21.895 5.053a4.21 4.21 0 00-4.21-4.21H5.052a4.21 4.21 0 00-4.21 4.21v21.894a4.21 4.21 0 004.21 4.21h12.631a4.21 4.21 0 004.127-3.373c.092-.456-.293-.837-.758-.837-.466 0-.83.387-.982.827a2.527 2.527 0 01-2.387 1.7H5.053a2.526 2.526 0 01-2.527-2.527V5.053a2.526 2.526 0 012.527-2.527h12.631a2.526 2.526 0 012.526 2.527v.644a.842.842 0 101.685 0v-.644z"/><path fill-rule="evenodd" clip-rule="evenodd" d="M30.846 15.352l-8.3-6.793a2.358 2.358 0 00-2.987 0l-8.3 6.793a.842.842 0 001.061 1.296l1.154-.934v6.66a2.897 2.897 0 002.888 2.89h9.381a2.897 2.897 0 002.889-2.89v-6.66l1.153.934a.791.791 0 00.53.194.841.841 0 00.531-1.49zm-4.251 7.874c.226-.226.352-.532.352-.851v-8.06l-5.894-4.824-5.895 4.825v8.059a1.204 1.204 0 001.204 1.204h9.381c.32 0 .626-.127.852-.353z"/><path d="M14.316 4.842A.842.842 0 0013.474 4h-4.21a.842.842 0 100 1.684h4.21a.842.842 0 00.842-.842z"/></g><defs><clipPath id="avclip0_338_1435"><path fill="#fff" d="M0 0h32v32H0z"/></clipPath></defs></svg>