<?xml version="1.0" encoding="utf-8"?><svg width="37" height="36" fill="none" xmlns="http://www.w3.org/2000/svg" viewBox="0 0 37 36"><path d="M9.5 0a2.257 2.257 0 00-2.25 2.25v31.5A2.257 2.257 0 009.5 36H32a2.257 2.257 0 002.25-2.25V9l-9-9H9.5z" fill="#E2E5E7"/><path d="M27.5 9h6.75l-9-9v6.75A2.257 2.257 0 0027.5 9z" fill="#B0B7BD"/><path d="M34.25 15.75L27.5 9h6.75v6.75z" fill="#CAD1D8"/><path d="M29.75 29.25c0 .619-.506 1.125-1.125 1.125H3.875A1.128 1.128 0 012.75 29.25V18c0-.619.506-1.125 1.125-1.125h24.75c.619 0 1.125.506 1.125 1.125v11.25z" fill="#F15642"/><path d="M7.654 21.315c0-.297.234-.62.611-.62h2.078c1.17 0 2.223.782 2.223 2.283 0 1.422-1.053 2.214-2.223 2.214H8.841v1.188c0 .396-.252.62-.576.62a.606.606 0 01-.61-.62v-5.065zm1.187.512v2.241h1.502c.603 0 1.08-.532 1.08-1.09 0-.629-.477-1.15-1.08-1.15H8.841zM14.328 27c-.297 0-.621-.162-.621-.557v-5.11c0-.322.324-.558.62-.558h2.06c4.111 0 4.021 6.225.082 6.225h-2.141zm.567-5.127v4.03h1.493c2.428 0 2.536-4.03 0-4.03h-1.493zm6.971.072v1.43h2.294c.324 0 .648.324.648.638 0 .297-.324.54-.648.54h-2.294v1.889c0 .315-.224.557-.538.557-.396 0-.638-.242-.638-.557v-5.11c0-.323.243-.558.637-.558h3.158c.396 0 .63.235.63.558a.622.622 0 01-.63.612h-2.619v.001z" fill="#fff"/><path d="M28.625 30.375H7.25V31.5h21.375c.619 0 1.125-.506 1.125-1.125V29.25c0 .619-.506 1.125-1.125 1.125z" fill="#CAD1D8"/></svg>