<?xml version="1.0" encoding="utf-8"?><svg width="24" height="24" xmlns="http://www.w3.org/2000/svg" viewBox="0 0 24 24"><path fill-rule="evenodd" clip-rule="evenodd" d="M6.53 4.47a.75.75 0 010 1.06L4.81 7.25h3.246a4.75 4.75 0 012.124.501l.155.078a.75.75 0 11-.67 1.342l-.156-.078a3.25 3.25 0 00-1.453-.343H4.81l1.72 1.72a.75.75 0 11-1.061 1.06l-3-3a.75.75 0 010-1.06l3-3a.75.75 0 011.06 0zm10.94 0a.75.75 0 011.06 0l3 3a.75.75 0 010 1.06l-3 3a.75.75 0 11-1.06-1.06l1.72-1.72H16A3.25 3.25 0 0012.75 12v7a.75.75 0 01-1.5 0v-7A4.75 4.75 0 0116 7.25h3.19l-1.72-1.72a.75.75 0 010-1.06z"/></svg>