<?xml version="1.0" encoding="utf-8"?><svg width="24" height="24" xmlns="http://www.w3.org/2000/svg" viewBox="0 0 24 24"><path fill-rule="evenodd" clip-rule="evenodd" d="M8.096 5.447H15.902 8.096zM10.595 12.859a.75.75 0 00-1.5 0v5.218a.75.75 0 001.5 0v-5.218zm4.308 0a.75.75 0 00-1.5 0v5.218a.75.75 0 001.5 0v-5.218z"/><path fill-rule="evenodd" clip-rule="evenodd" d="M5.101 3.947a2.835 2.835 0 00-2.835 2.835v1.789c0 .414.335.75.75.75h.558l.725 11.16a3.562 3.562 0 003.555 3.331h8.29a3.562 3.562 0 003.552-3.287.75.75 0 00-1.495-.115 2.062 2.062 0 01-2.057 1.902h-8.29a2.062 2.062 0 01-2.058-1.928L5.076 9.32h13.845l-.416 6.41a.75.75 0 101.497.098l.468-6.508h.513a.75.75 0 00.75-.75V6.782a2.835 2.835 0 00-2.836-2.835h-2.254v-.636A3.124 3.124 0 0013.52.188h-3.04A3.124 3.124 0 007.355 3.31v.636H5.1zM3.766 6.782c0-.737.597-1.335 1.335-1.335h13.796c.738 0 1.336.598 1.336 1.335v1.039H3.765V6.782zm6.713-5.095c-.897 0-1.624.728-1.624 1.624v.636h6.288v-.636c0-.896-.727-1.623-1.624-1.623h-3.04z"/></svg>