<?xml version="1.0" encoding="utf-8"?><svg width="24" height="24" fill="none" xmlns="http://www.w3.org/2000/svg" viewBox="0 0 24 24"><path d="M14.539 20.333H1.846a.853.853 0 01-.598-.244A.827.827 0 011 19.5V2.833c0-.22.09-.433.248-.589A.853.853 0 011.846 2h18.616c.224 0 .44.088.598.244a.827.827 0 01.248.59v10.833c0 .22-.09.433-.248.589a.853.853 0 01-1.197 0 .827.827 0 01-.248-.59v-10H2.692v15H14.54c.224 0 .44.088.598.245a.827.827 0 010 1.178.853.853 0 01-.598.244z" fill="#00B87A"/><path d="M8.615 14.5H5.231a.853.853 0 01-.599-.244.827.827 0 010-1.179.853.853 0 01.599-.244h3.384c.225 0 .44.088.599.244a.827.827 0 010 1.179.853.853 0 01-.599.244zm2.539 2.5H5.23a.853.853 0 01-.599-.244.827.827 0 010-1.179.853.853 0 01.599-.244h5.923c.224 0 .44.088.598.244a.827.827 0 010 1.179.853.853 0 01-.598.244zm6.77 5a5.132 5.132 0 01-2.822-.843 5.018 5.018 0 01-1.87-2.244 4.93 4.93 0 01-.288-2.889c.196-.97.68-1.86 1.39-2.56a5.102 5.102 0 012.599-1.368 5.15 5.15 0 012.933.285 5.061 5.061 0 012.278 1.841c.558.822.856 1.79.856 2.778a4.967 4.967 0 01-1.488 3.534A5.122 5.122 0 0117.923 22zm0-8.333c-.67 0-1.325.195-1.881.561-.557.367-.99.887-1.247 1.496a3.286 3.286 0 00-.192 1.926c.13.647.452 1.24.926 1.707a3.4 3.4 0 001.733.912 3.433 3.433 0 001.955-.19 3.374 3.374 0 001.52-1.227 3.298 3.298 0 00-.422-4.209 3.412 3.412 0 00-2.393-.976z" fill="#00B87A"/><path d="M17.077 19.5a.854.854 0 01-.757-.46l-.847-1.668a.822.822 0 01-.045-.636.838.838 0 01.424-.482.858.858 0 01.647-.045c.213.07.389.22.49.419l.32.632 1.708-1.683a.853.853 0 011.186.01.827.827 0 01.01 1.169l-2.538 2.5a.853.853 0 01-.598.244zm-2.539-9.167a.851.851 0 01-.331-.066l-3.053-1.279L8.1 10.267a.857.857 0 01-1.077-.372.823.823 0 01-.1-.395V2.833c0-.22.088-.433.247-.589A.853.853 0 017.769 2h6.77c.224 0 .44.088.598.244a.827.827 0 01.248.59V9.5c0 .221-.09.433-.248.59a.853.853 0 01-.598.243zM11.155 7.25c.114 0 .227.022.332.066l2.206.924V3.667H8.615V8.24l2.207-.924a.862.862 0 01.332-.066z" fill="#00B87A"/><path d="M14.539 10.333a.851.851 0 01-.332-.066l-3.053-1.279L8.1 10.267a.857.857 0 01-1.077-.372.823.823 0 01-.1-.395V2.833c0-.22.088-.433.247-.589A.853.853 0 017.769 2h6.77c.224 0 .44.088.598.244a.827.827 0 01.248.59V9.5c0 .221-.09.433-.248.59a.853.853 0 01-.598.243zM11.154 7.25c.114 0 .227.022.332.066l2.206.924V3.667H8.615V8.24l2.207-.924a.862.862 0 01.332-.066z" fill="#00B87A"/></svg>