<?xml version="1.0" encoding="utf-8"?><svg viewBox="0 0 40 40" xmlns="http://www.w3.org/2000/svg" xmlns:xlink="http://www.w3.org/1999/xlink"><style>:root>svg{display:none}:root>svg:target{display:block}</style><svg fill="none" viewBox="0 0 40 40" id="02-time" xmlns="http://www.w3.org/2000/svg"><g clip-path="url(#aaclip0_2060_5657)"><mask id="aaa" style="mask-type:luminance" maskUnits="userSpaceOnUse" x="0" y="0" width="40" height="40"><path d="M40 0H0v40h40V0z" fill="#fff"/></mask><g mask="url(#aaa)"><path d="M20 27.527c-4.15 0-7.527-3.377-7.527-7.527S15.85 12.472 20 12.472 27.527 15.85 27.527 20c0 4.15-3.376 7.527-7.527 7.527z" fill="#DEF7FC"/><path fill-rule="evenodd" clip-rule="evenodd" d="M5.702 27.275a1 1 0 01.623 1.27L5.31 31.514a1 1 0 01-1.27.622l-2.969-1.015a1 1 0 01.647-1.892l2.023.692.691-2.023a1 1 0 011.27-.623z" fill="#01AFD2"/><path fill-rule="evenodd" clip-rule="evenodd" d="M20 1.781C9.938 1.781 1.781 9.938 1.781 20c0 3.959 1.262 7.62 3.405 10.607a1 1 0 11-1.625 1.166A20.132 20.132 0 01-.22 20C-.219 8.834 8.834-.219 20-.219c4.39 0 8.457 1.401 11.773 3.78a1 1 0 11-1.166 1.625A18.132 18.132 0 0020 1.78zm14.69 6.705a1 1 0 011.27-.622l2.969 1.015a1 1 0 11-.647 1.892l-2.023-.691-.691 2.022a1 1 0 11-1.893-.646l1.015-2.97z" fill="#01AFD2"/><path fill-rule="evenodd" clip-rule="evenodd" d="M35.044 7.998a1 1 0 011.396.23A20.133 20.133 0 0140.219 20c0 11.167-9.052 20.219-20.219 20.219-4.39 0-8.457-1.401-11.773-3.78a1 1 0 011.166-1.625A18.133 18.133 0 0020 38.22c10.062 0 18.219-8.157 18.219-18.219 0-3.959-1.262-7.62-3.405-10.607a1 1 0 01.23-1.395z" fill="#01AFD2"/><path fill-rule="evenodd" clip-rule="evenodd" d="M16.241 6.665a1 1 0 011-1h5.518a1 1 0 011 1v2.87c.334.12.661.257.982.408l2.03-2.03a1 1 0 011.415 0l3.902 3.901a1 1 0 010 1.414l-2.031 2.031c.152.32.287.648.407.982h2.872a1 1 0 011 1v5.518a1 1 0 01-1 1h-2.872c-.12.334-.256.661-.407.982l2.03 2.03a1 1 0 010 1.415l-3.901 3.902a1 1 0 01-1.415 0l-2.03-2.031c-.32.151-.648.287-.982.407v2.871a1 1 0 01-1 1h-5.518a1 1 0 01-1-1v-2.87a11.03 11.03 0 01-.982-.408l-2.03 2.03a1 1 0 01-1.415 0l-3.902-3.901a1 1 0 010-1.415l2.031-2.03c-.151-.32-.287-.648-.407-.982H6.665a1 1 0 01-1-1v-5.518a1 1 0 011-1h2.87c.12-.334.257-.661.408-.982l-2.03-2.03a1 1 0 010-1.415l3.901-3.902a1 1 0 011.415 0l2.03 2.031c.32-.151.648-.287.982-.407V6.665zm2 1v2.6a1 1 0 01-.727.962 9.042 9.042 0 00-1.957.812 1 1 0 01-1.196-.166l-1.84-1.84-2.487 2.488 1.84 1.84a1 1 0 01.165 1.195 9.049 9.049 0 00-.812 1.957 1 1 0 01-.962.728h-2.6v3.518h2.6a1 1 0 01.962.728c.193.681.465 1.338.811 1.956a1 1 0 01-.165 1.196l-1.84 1.84 2.488 2.487 1.84-1.84a1 1 0 011.195-.165 9.057 9.057 0 001.958.813 1 1 0 01.727.962v2.6h3.518v-2.6a1 1 0 01.727-.963 9.052 9.052 0 001.957-.811 1 1 0 011.196.165l1.84 1.84 2.487-2.488-1.84-1.84a1 1 0 01-.165-1.196 9.052 9.052 0 00.813-1.957 1 1 0 01.962-.727h2.6v-3.518h-2.6a1 1 0 01-.963-.728 9.049 9.049 0 00-.811-1.957 1 1 0 01.165-1.195l1.84-1.84-2.488-2.487-1.84 1.84a1 1 0 01-1.195.165 9.042 9.042 0 00-1.957-.812 1 1 0 01-.728-.963v-2.6h-3.518z" fill="#01AFD2"/><path fill-rule="evenodd" clip-rule="evenodd" d="M20 15.47a1 1 0 011 1V19h1.745a1 1 0 110 2H20a1 1 0 01-1-1v-3.53a1 1 0 011-1z" fill="#01AFD2"/></g></g><defs><clipPath id="aaclip0_2060_5657"><path fill="#fff" d="M0 0h40v40H0z"/></clipPath></defs></svg><svg fill="none" viewBox="0 0 40 40" id="03-warranty" xmlns="http://www.w3.org/2000/svg"><g clip-path="url(#abclip0_2060_5668)"><mask id="aba" style="mask-type:luminance" maskUnits="userSpaceOnUse" x="0" y="0" width="40" height="40"><path d="M40 0H0v40h40V0z" fill="#fff"/></mask><g mask="url(#aba)"><path fill-rule="evenodd" clip-rule="evenodd" d="M36.35 21.085c.343-.203.877-.222 1.48-.097zm1.48-.097c.094.019.184.04.269.063zm.269.063c-.021.085-.045.174-.073.264-.18.589-.453 1.046-.795 1.248-.343.203-.876.223-1.48.098a4.86 4.86 0 01-.268-.063c.02-.085.045-.174.072-.264.18-.59.453-1.046.795-1.249m-1.987 2.177l-.425.905a1 1 0 01-.574-.966l.999.06zm4.433-1.968zm.423-.907l.425-.905a1 1 0 01.573.966l-.998-.06zm.425-.905l-.425.905.998.061v.006l-.001.01-.002.029a6.327 6.327 0 01-.049.408c-.04.256-.108.611-.227 1-.223.731-.69 1.792-1.688 2.384-.999.59-2.154.49-2.904.335a7.137 7.137 0 01-1.368-.435l-.026-.011-.009-.004-.003-.002h-.001s-.001-.001.424-.906l-.999-.061v-.007l.002-.01.002-.028a5.061 5.061 0 01.048-.407c.04-.258.108-.613.227-1 .224-.732.69-1.794 1.689-2.385.998-.59 2.154-.49 2.903-.335a7.141 7.141 0 011.368.435l.027.011.008.004.003.002h.002v.001z" fill="#01AFD2"/><path fill-rule="evenodd" clip-rule="evenodd" d="M36.807 27.102c-.592-.31-1.17-.46-1.613-.345-.442.115-.873.527-1.238 1.086-.07.109-.134.217-.19.319.099.061.207.124.323.185.592.31 1.17.46 1.613.345m-3.191-.203l-.658.752a1 1 0 01-.284-1.087l.942.335zm4.296-1.387c.116.06.224.124.324.185zm.921.612s.001 0 0 0zm.657-.754l.659-.753a1 1 0 01.284 1.088l-.943-.335zm-1.254.327c-.056.102-.12.21-.191.319-.365.56-.796.97-1.238 1.085m3.342-2.483l-.659.752.943.335-.001.003-.002.003-.003.01-.01.027-.037.093a7.574 7.574 0 01-.66 1.266c-.445.685-1.23 1.623-2.41 1.93-1.18.307-2.322-.13-3.046-.51a7.575 7.575 0 01-1.271-.846l-.023-.02-.008-.006-.002-.002h-.002c0-.001 0-.002.658-.754l-.942-.335v-.003l.002-.003.003-.01.01-.028.037-.092a7.554 7.554 0 01.66-1.266c.446-.685 1.23-1.623 2.41-1.93 1.18-.307 2.322.13 3.046.51a7.582 7.582 0 011.271.845l.023.02.008.006.003.003.002.002z" fill="#01AFD2"/><path fill-rule="evenodd" clip-rule="evenodd" d="M29.003 31.92l-.972.234v.003l.001.003.003.01.008.03a7.11 7.11 0 00.133.44c.093.277.238.657.445 1.063.393.77 1.108 1.832 2.298 2.281 1.19.45 2.429.124 3.232-.195a8.002 8.002 0 001.428-.745l.026-.017.008-.006.003-.002.001-.001-.574-.819.575.818a1 1 0 00.398-1.052l-.973.234.973-.234-.001-.002-.001-.004-.003-.01-.007-.03a7.229 7.229 0 00-.133-.44 7.996 7.996 0 00-.446-1.062c-.393-.77-1.107-1.833-2.298-2.282-1.19-.449-2.429-.124-3.232.195a7.97 7.97 0 00-1.427.745l-.026.018-.009.005-.003.003h-.001s-.001.001.574.82zm1.208.456c.054.132.118.273.192.418.325.637.744 1.139 1.222 1.319.478.18 1.125.08 1.79-.183.15-.06.292-.124.42-.187a5.72 5.72 0 00-.192-.418c-.325-.637-.744-1.138-1.222-1.319m-2.21.37a5.69 5.69 0 01.42-.187c.666-.263 1.313-.363 1.79-.182m-3.418-.087l-.575-.818a1 1 0 00-.397 1.052l.972-.234z" fill="#01AFD2"/><path fill-rule="evenodd" clip-rule="evenodd" d="M34.255 19.368a1 1 0 011.1.89 13.123 13.123 0 01-.259 4.295c-1.284 5.645-6.023 9.604-11.48 10.169a1 1 0 11-.205-1.99c4.631-.478 8.647-3.84 9.735-8.623.28-1.23.345-2.457.22-3.642a1 1 0 01.89-1.1zM1.765 19.029c.75-.155 1.905-.256 2.903.335.999.591 1.465 1.653 1.69 2.384a7.105 7.105 0 01.274 1.408l.003.029V23.199s0 .002-.998.063l.425.905-.002.001-.003.002-.009.003-.026.012a4.823 4.823 0 01-.381.153c-.245.09-.59.2-.987.282-.75.155-1.905.255-2.904-.335C.752 23.693.285 22.632.061 21.9a7.108 7.108 0 01-.275-1.408l-.002-.029V20.45s0-.002.997-.063l-.424-.905.002-.001.003-.002.008-.004.027-.011a4.748 4.748 0 01.38-.153c.246-.09.59-.2.988-.282zM.78 20.387l-.424-.905a1 1 0 00-.574.966l.998-.06zm1.12.664a4.76 4.76 0 01.269-.063c.604-.125 1.137-.106 1.48.097.342.203.615.66.795 1.249.027.09.051.179.072.264a4.758 4.758 0 01-.268.063c-.604.125-1.137.105-1.48-.098-.342-.202-.615-.66-.795-1.248a4.756 4.756 0 01-.073-.264zm3.736 2.21l.425.906a1 1 0 00.574-.966l-.999.06z" fill="#01AFD2"/><path fill-rule="evenodd" clip-rule="evenodd" d="M2.263 25.331c.723-.38 1.866-.816 3.046-.51 1.18.308 1.964 1.246 2.41 1.93a7.561 7.561 0 01.696 1.36l.01.027.004.01.001.003v.002l-.941.336.658.753-.002.001-.003.002-.007.007-.023.02a6.742 6.742 0 01-.344.268 7.576 7.576 0 01-.927.578c-.724.38-1.867.816-3.047.509-1.18-.307-1.964-1.245-2.41-1.93a7.569 7.569 0 01-.696-1.358l-.01-.029-.004-.009v-.003l-.001-.002.941-.336-.658-.753.002-.001.003-.003.007-.006.023-.02.077-.063a7.588 7.588 0 011.195-.783zm-.649 1.63l-.658-.754a1 1 0 00-.284 1.088l.942-.335zm1.255.326c.056.102.12.21.19.319.365.56.797.97 1.239 1.085.442.116 1.02-.033 1.613-.344.115-.06.224-.124.324-.185a5.303 5.303 0 00-.192-.319c-.364-.56-.796-.97-1.238-1.086-.442-.115-1.02.034-1.613.345-.115.06-.224.124-.323.185zm4.62 1.202l.658.753a1 1 0 00.284-1.088l-.942.335z" fill="#01AFD2"/><path fill-rule="evenodd" clip-rule="evenodd" d="M11.571 31.102l-.574.818.972.235v.002l-.002.003-.002.01-.008.03a7.11 7.11 0 01-.133.44 7.975 7.975 0 01-.445 1.063c-.393.77-1.108 1.832-2.298 2.281-1.19.45-2.43.124-3.233-.195a8.004 8.004 0 01-1.427-.745l-.026-.017-.008-.006-.003-.002-.002-.001.574-.819-.972-.234v-.002l.002-.004.002-.01.008-.03a7.205 7.205 0 01.133-.44c.094-.277.239-.657.446-1.062.392-.77 1.107-1.833 2.297-2.282 1.19-.449 2.43-.124 3.233.195a7.976 7.976 0 011.427.745l.026.018.008.005.003.003h.002zm-6.615 3.097l-.972-.234a1 1 0 00.397 1.052l.575-.818zm1.209-.456c.054-.132.118-.273.191-.418.325-.637.745-1.138 1.222-1.319m-1.413 1.737c.127.063.269.127.42.187.665.264 1.312.363 1.79.183.477-.18.897-.682 1.222-1.32.074-.144.137-.285.192-.417a5.733 5.733 0 00-.42-.187c-.666-.263-1.313-.363-1.79-.182m3.418-.087l.972.235a1.002 1.002 0 00-.398-1.053l-.574.818zm-.972-.236z" fill="#01AFD2"/><path fill-rule="evenodd" clip-rule="evenodd" d="M5.745 19.368a1 1 0 01.89 1.099 11.127 11.127 0 00.219 3.642c1.088 4.783 5.104 8.145 9.735 8.624a1 1 0 01-.206 1.989c-5.456-.565-10.195-4.524-11.48-10.17a13.128 13.128 0 01-.258-4.295 1 1 0 011.1-.89z" fill="#01AFD2"/><path fill-rule="evenodd" clip-rule="evenodd" d="M14.502 4.463a1 1 0 01.988-.848h9.02a1 1 0 01.988.848c.3 1.945 1.832 3.32 3.556 3.32.244 0 .487-.028.726-.082a1 1 0 011.22.976V23.4c0 .845-.221 1.678-.644 2.402M16.286 5.615C15.579 7.974 13.524 9.757 11 9.782v13.62c0 .498.13.981.371 1.392.24.41.575.727.957.922L20 29.646l7.671-3.93a2.37 2.37 0 00.958-.922c.24-.41.371-.894.371-1.393V9.781c-2.523-.024-4.578-1.807-5.287-4.166h-7.426zm-1.784-1.152c-.3 1.945-1.832 3.32-3.557 3.32zM9.376 7.896a1 1 0 01.845-.194c.233.052.475.08.724.08m-1.57.114a1 1 0 00-.375.78zM9 8.676v14.725zm0 14.725c0 .845.221 1.678.644 2.402zm.644 2.402a4.37 4.37 0 001.773 1.694l8.127 4.162a1 1 0 00.912 0l8.127-4.162a4.37 4.37 0 001.773-1.694" fill="#01AFD2"/><path d="M18.222 9.461a9.236 9.236 0 01-4.145 3.45v9.987L20 25.808l5.923-2.91v-9.986a9.236 9.236 0 01-4.145-3.45h-3.556z" fill="#DEF7FC"/><path fill-rule="evenodd" clip-rule="evenodd" d="M17.684 8.461h4.632l.297.45a8.236 8.236 0 003.695 3.078l.615.256v11.276L20 26.923l-6.923-3.402V12.245l.615-.256a8.236 8.236 0 003.695-3.078l.297-.45zm1.059 2a10.242 10.242 0 01-3.666 3.092v8.723L20 24.695l4.923-2.42v-8.722a10.241 10.241 0 01-3.666-3.092h-2.514z" fill="#01AFD2"/></g></g><defs><clipPath id="abclip0_2060_5668"><path fill="#fff" d="M0 0h40v40H0z"/></clipPath></defs></svg><svg fill="none" viewBox="0 0 40 40" id="04-stock" xmlns="http://www.w3.org/2000/svg"><g clip-path="url(#acclip0_2060_5683)"><mask id="aca" style="mask-type:luminance" maskUnits="userSpaceOnUse" x="0" y="0" width="40" height="40"><path d="M40 0H0v40h40V0z" fill="#fff"/></mask><g mask="url(#aca)"><path d="M15.294 34.51a2.356 2.356 0 01-2.353-2.353v-2.353h4.706v2.353a2.356 2.356 0 01-2.353 2.353zm9.412 0a2.356 2.356 0 01-2.353-2.353v-2.353h4.706v2.353a2.356 2.356 0 01-2.353 2.353zM20 25.098a2.356 2.356 0 01-2.353-2.353v-2.353h4.706v2.353A2.356 2.356 0 0120 25.098zm12.941-8.627v.784H7.06v-.784c0-1.3 1.053-2.353 2.353-2.353h21.176c1.3 0 2.353 1.053 2.353 2.353z" fill="#DEF7FC"/><path fill-rule="evenodd" clip-rule="evenodd" d="M19.41-.023a1 1 0 011.18 0L36.67 11.742a1 1 0 01.41.807v25.667h2.137a1 1 0 110 2H.784a1 1 0 110-2h2.138V12.549a1 1 0 01.41-.807L19.41-.023zM4.922 38.216h1.137V16.47a3.353 3.353 0 013.353-3.353h21.176a3.353 3.353 0 013.353 3.353v21.745h1.137v-25.16L20 2.024 4.922 13.056v25.16zm27.02 0V16.47c0-.748-.606-1.353-1.354-1.353H9.412c-.747 0-1.353.605-1.353 1.353v21.745H31.94z" fill="#01AFD2"/><path d="M23.53 10.98h-7.06V7.844L20 4.706l3.53 3.137v3.138z" fill="#DEF7FC"/><path fill-rule="evenodd" clip-rule="evenodd" d="M16.863 21.392a.569.569 0 00-.569.569v6.843h7.412v-6.843a.569.569 0 00-.569-.569h-6.274zm8.843 7.412v-6.843a2.569 2.569 0 00-2.569-2.569h-6.274a2.569 2.569 0 00-2.569 2.569v6.843h-2.137a2.569 2.569 0 00-2.569 2.569v7.843a1 1 0 001 1h18.824a1 1 0 001-1v-7.843a2.569 2.569 0 00-2.569-2.569h-2.137zm-4.706 2v7.412h7.412v-6.843a.569.569 0 00-.569-.569H21zm-2 7.412v-7.412h-6.843a.569.569 0 00-.569.569v6.843H19z" fill="#01AFD2"/></g></g><defs><clipPath id="acclip0_2060_5683"><path fill="#fff" d="M0 0h40v40H0z"/></clipPath></defs></svg><svg fill="none" viewBox="0 0 40 40" id="05-certificate" xmlns="http://www.w3.org/2000/svg"><g clip-path="url(#adclip0_2060_5692)"><mask id="ada" style="mask-type:luminance" maskUnits="userSpaceOnUse" x="0" y="0" width="40" height="40"><path d="M40 0H0v40h40V0z" fill="#fff"/></mask><g mask="url(#ada)" fill-rule="evenodd" clip-rule="evenodd"><path d="M31.383 3.906a2.127 2.127 0 00-2.127-2.125H4.102a1 1 0 010-2h25.143c2.287-.014 4.138 1.855 4.138 4.125v2.735a1 1 0 11-2 0V3.906zm1 21.616a1 1 0 011 1v7.619a1 1 0 11-2 0v-7.619a1 1 0 011-1z" fill="#01AFD2"/><path d="M-.023 3.906a4.125 4.125 0 018.25 0v32.188a2.125 2.125 0 104.25 0V34.53a1 1 0 011-1h22.812a1 1 0 011 1v1.563a4.125 4.125 0 01-4.125 4.125H10.351a4.125 4.125 0 01-4.124-4.125V6.469H.977a1 1 0 01-1-1V3.906zm6.25.563v-.563a2.125 2.125 0 00-4.25 0v.563h4.25zm7.66 33.75h19.277a2.125 2.125 0 002.125-2.125v-.563H14.476v.563c0 .777-.215 1.504-.588 2.125z" fill="#01AFD2"/><path d="M9.742 5.469a1 1 0 011-1H23.81a1 1 0 110 2H10.742a1 1 0 01-1-1zm0 3.616a1 1 0 011-1h9.063a1 1 0 110 2h-9.063a1 1 0 01-1-1zm0 7.232a1 1 0 011-1h9.063a1 1 0 110 2h-9.063a1 1 0 01-1-1zm18.988 1.372a1 1 0 011 1v7.844l2.145-1.263a1 1 0 011.015 0l2.145 1.263v-7.844a1 1 0 112 0v9.593a1 1 0 01-1.507.861l-3.145-1.85-3.145 1.85a1 1 0 01-1.508-.861v-9.593a1 1 0 011-1zM9.742 19.933a1 1 0 011-1H23.81a1 1 0 110 2H10.742a1 1 0 01-1-1zm0 3.616a1 1 0 011-1H23.81a1 1 0 110 2H10.742a1 1 0 01-1-1zm0 3.616a1 1 0 011-1h9.063a1 1 0 110 2h-9.063a1 1 0 01-1-1zm0 3.616a1 1 0 011-1H23.81a1 1 0 110 2H10.742a1 1 0 01-1-1z" fill="#01AFD2"/><path d="M32.383 6.25c1.117 0 2.058.76 2.332 1.791a2.414 2.414 0 013.299 3.299 2.415 2.415 0 010 4.665 2.415 2.415 0 01-3.299 3.298 2.415 2.415 0 01-4.665 0 2.415 2.415 0 01-3.298-3.298 2.415 2.415 0 010-4.665 2.414 2.414 0 013.299-3.299 2.414 2.414 0 012.332-1.79z" fill="#DEF7FC"/><path d="M31.815 10.218a3.5 3.5 0 111.134 6.907 3.5 3.5 0 01-1.134-6.907zm0 0l.162.986-.162-.986zm2.047 3.21a1.5 1.5 0 10-2.96.486 1.5 1.5 0 002.96-.486z" fill="#01AFD2"/></g></g><defs><clipPath id="adclip0_2060_5692"><path fill="#fff" d="M0 0h40v40H0z"/></clipPath></defs></svg><svg fill="none" viewBox="0 0 40 40" id="06-location" xmlns="http://www.w3.org/2000/svg"><g clip-path="url(#aeclip0_2060_5702)"><mask id="aea" style="mask-type:luminance" maskUnits="userSpaceOnUse" x="0" y="0" width="40" height="40"><path d="M40 0H0v40h40V0z" fill="#fff"/></mask><g mask="url(#aea)" fill-rule="evenodd" clip-rule="evenodd"><path d="M34.531 8.477v-4.57h-11.64c.963 3.594-2.295 5.613-1.651 7.838.782 2.7 4 1.808 4.7 4.427.578 2.155-2.415 4.394-1.356 6.145 1.505 2.488 6.758-2.942 9.947-2.942v-8.789l1.367-1.054-1.367-1.055zM18.387 23.254c-.835-.483-1.87-.623-3.035-.525-1.044 1.466-2.296 2.831-3.165 3.828-.578-.663-1.326-1.49-2.07-2.401-6.048 2.38-4.227-.015-9.336-.015v11.94a3.125 3.125 0 013.125-3.112h21.485c0-4.394-3.063-3-5.075-4.73-1.165-1.002.674-3.482-1.93-4.985z" fill="#DEF7FC"/><path d="M10.593 2.907a1 1 0 01.791.348l.425.496.45-.508a1 1 0 01.749-.337h21.133a1 1 0 110 2H13.458l-.912 1.03a1 1 0 01-1.508-.012l-.36-.42-1.01 1.346a1 1 0 01-1.607-.009l-1.42-1.935H3.907a2.127 2.127 0 00-2.125 2.128V36.094a1 1 0 01-2 0V7.044c-.014-2.286 1.855-4.138 4.125-4.138H7.15a1 1 0 01.806.409l.921 1.256.95-1.265a1 1 0 01.767-.4z" fill="#01AFD2"/><path d="M34.531-.219h1.563a4.125 4.125 0 014.124 4.125v25.938a4.125 4.125 0 01-4.125 4.125H31.72a1 1 0 01-.884-.534l-.41-.778-.394.768a1 1 0 01-.89.544H6.468v5.25a1 1 0 01-1 1H3.906a4.125 4.125 0 110-8.25H28.53l.99-1.936a1 1 0 011.775-.011l1.027 1.947h3.771a2.125 2.125 0 000-4.25h-1.562a1 1 0 01-1-1V10.586a1 1 0 01.39-.791l.34-.263-.34-.263a1 1 0 01-.39-.792V.78a1 1 0 011-1zm3.688 26.527V3.906a2.125 2.125 0 00-2.126-2.125h-.562v6.204l.978.755a1 1 0 010 1.583l-.978.755v14.64h.563c.777 0 1.504.216 2.124.59zm-33.75 7.66h-.563a2.125 2.125 0 100 4.25h.562v-4.25z" fill="#01AFD2"/><path d="M6.11 18.209a6.078 6.078 0 1112.156 0c0 1.742-1.002 3.55-2.064 5.05-.915 1.293-1.992 2.514-2.82 3.453l-.44.502a1 1 0 01-1.508 0l-.441-.502c-.828-.939-1.905-2.16-2.82-3.453-1.062-1.5-2.064-3.308-2.064-5.05zm6.077-4.079A4.078 4.078 0 008.11 18.21c0 1.069.66 2.429 1.697 3.895.75 1.061 1.617 2.067 2.382 2.938.764-.87 1.63-1.877 2.38-2.938 1.039-1.466 1.698-2.826 1.698-3.895a4.078 4.078 0 00-4.078-4.079z" fill="#01AFD2"/><path d="M9.374 18.209a2.817 2.817 0 012.813-2.814 2.817 2.817 0 012.814 2.814 2.817 2.817 0 01-2.814 2.813 2.817 2.817 0 01-2.813-2.813zm2.813-.814a.817.817 0 00-.813.814c0 .446.367.813.813.813a.817.817 0 00.814-.813.817.817 0 00-.814-.814z" fill="#01AFD2"/></g></g><defs><clipPath id="aeclip0_2060_5702"><path fill="#fff" d="M0 0h40v40H0z"/></clipPath></defs></svg><svg fill="none" viewBox="0 0 14 8" id="ic_arrow-down" xmlns="http://www.w3.org/2000/svg"><path d="M1 1l6 6 6-6" stroke="#000" stroke-width="2" stroke-linecap="round" stroke-linejoin="round"/></svg><svg viewBox="0 0 24 24" id="ic_arrow-next" xmlns="http://www.w3.org/2000/svg"><path fill-rule="evenodd" clip-rule="evenodd" d="M8.293 5.293a1 1 0 011.414 0l6 6a1 1 0 010 1.414l-6 6a1 1 0 01-1.414-1.414L13.586 12 8.293 6.707a1 1 0 010-1.414z"/></svg><svg viewBox="0 0 24 24" id="ic_arrow-prev" xmlns="http://www.w3.org/2000/svg"><path fill-rule="evenodd" clip-rule="evenodd" d="M15.707 18.707a1 1 0 01-1.414 0l-6-6a1 1 0 010-1.414l6-6a1 1 0 111.414 1.414L10.414 12l5.293 5.293a1 1 0 010 1.414z"/></svg><svg fill="none" viewBox="0 0 24 24" id="ic_arrows-top" xmlns="http://www.w3.org/2000/svg"><path d="M17 11l-5-5-5 5M17 18l-5-5-5 5" stroke="#fff" stroke-width="2" stroke-linecap="round" stroke-linejoin="round"/></svg><svg viewBox="0 0 25 24" id="ic_cases" xmlns="http://www.w3.org/2000/svg"><path fill-rule="evenodd" clip-rule="evenodd" d="M12.333 9.692c-2.196 0-5.2.172-7.048.293a1.21 1.21 0 00-1.133 1.072c-.134 1.204-.28 2.81-.28 4.02 0 1.21.146 2.816.28 4.02a1.21 1.21 0 001.133 1.071c1.847.122 4.852.294 7.048.294 2.196 0 5.202-.172 7.048-.293a1.21 1.21 0 001.133-1.072c.134-1.204.28-2.81.28-4.02 0-1.21-.146-2.816-.28-4.02a1.21 1.21 0 00-1.133-1.072c-1.846-.121-4.852-.293-7.048-.293zM5.183 8.45c1.85-.12 4.9-.296 7.15-.296 2.251 0 5.302.175 7.15.296a2.748 2.748 0 012.56 2.438c.134 1.21.29 2.889.29 4.189 0 1.3-.156 2.98-.29 4.19a2.748 2.748 0 01-2.56 2.437c-1.849.121-4.9.296-7.15.296s-5.302-.175-7.15-.296a2.748 2.748 0 01-2.56-2.438c-.134-1.21-.29-2.889-.29-4.19 0-1.301.156-2.978.29-4.188a2.748 2.748 0 012.56-2.438z"/><path fill-rule="evenodd" clip-rule="evenodd" d="M12.333 6.615c-1.6 0-3.752.076-5.2.135-.586.024-1.038.435-1.109.954-.06.436-.1.873-.1 1.22a.77.77 0 11-1.54 0c0-.45.053-.966.116-1.427.18-1.32 1.302-2.232 2.57-2.284 1.45-.06 3.628-.136 5.263-.136 1.635 0 3.814.076 5.263.136 1.268.052 2.39.965 2.57 2.284.063.461.116.977.116 1.426a.77.77 0 11-1.539 0 9.605 9.605 0 00-.1-1.219c-.072-.52-.524-.93-1.11-.954-1.448-.06-3.6-.135-5.2-.135z"/><path fill-rule="evenodd" clip-rule="evenodd" d="M12.333 3.538c-.955 0-2.194.054-3.182.106-.597.032-1.058.474-1.11 1.029a12.9 12.9 0 00-.067 1.173.77.77 0 11-1.538 0c0-.41.032-.882.073-1.317.127-1.354 1.243-2.351 2.56-2.421A66.96 66.96 0 0112.333 2c.998 0 2.271.055 3.264.108 1.317.07 2.433 1.067 2.56 2.42.04.436.073.908.073 1.318a.771.771 0 11-1.538 0c0-.34-.028-.757-.067-1.173-.052-.555-.513-.997-1.11-1.029a65.713 65.713 0 00-3.182-.106zM15 13.59a.77.77 0 01-.154 1.077l-2.735 2.05a.77.77 0 01-.923 0L9.82 15.692a.77.77 0 11.923-1.23l.906.679 2.274-1.705A.77.77 0 0115 13.59z"/></svg><svg viewBox="0 0 25 24" id="ic_catalog" xmlns="http://www.w3.org/2000/svg"><path d="M9.833 2H4c-.916 0-1.667.75-1.667 1.667V9.5c0 .917.75 1.667 1.667 1.667h5.833c.917 0 1.667-.75 1.667-1.667V3.667C11.5 2.75 10.75 2 9.833 2zm0 7.5H4V3.667h5.833V9.5zm0 3.334H4c-.916 0-1.667.75-1.667 1.666v5.833C2.333 21.25 3.083 22 4 22h5.833c.917 0 1.667-.75 1.667-1.667V14.5c0-.916-.75-1.666-1.667-1.666zm0 7.5H4V14.5h5.833v5.833zM13.167 2h4.166v1.667h-4.166V2zm0 6.667H19v1.667h-5.833V8.667zm0-3.334h9.166V7h-9.166V5.333zm0 7.5h9.166V14.5h-9.166v-1.666zm0 6.667H19v1.667h-5.833V19.5zm0-3.333h4.166v1.666h-4.166v-1.666z"/></svg><svg viewBox="0 0 20 20" id="ic_check-small" xmlns="http://www.w3.org/2000/svg"><path fill-rule="evenodd" clip-rule="evenodd" d="M15.7 6.287a1 1 0 01.013 1.414l-6.875 7a1 1 0 01-1.426 0l-3.125-3.182a1 1 0 011.426-1.402l2.412 2.456 6.162-6.274a1 1 0 011.414-.012z"/></svg><svg viewBox="0 0 25 24" id="ic_clean-room" xmlns="http://www.w3.org/2000/svg"><path fill-rule="evenodd" clip-rule="evenodd" d="M22.222 6.59a.723.723 0 01.108.35c0 .01.003.029.003.029v10.062a.723.723 0 01-.374.634l-9.252 5.237a.76.76 0 01-.748 0l-9.252-5.237a.723.723 0 01-.374-.634V6.969a.722.722 0 01.374-.634l9.252-5.237a.76.76 0 01.748 0l9.248 5.237c.11.061.202.15.267.255zm-10.637 6.037L3.83 8.237v8.361l7.755 4.4v-8.371zm1.497 0v8.372l7.755-4.39V8.227l-7.755 4.4zm6.988-5.536l-7.737-4.303L4.596 7.07l7.737 4.303L20.07 7.09z"/></svg><svg viewBox="0 0 20 20" id="ic_compare" xmlns="http://www.w3.org/2000/svg"><path fill-rule="evenodd" clip-rule="evenodd" d="M11.03 2.727c0-.401.33-.727.737-.727h3.496c.407 0 .737.326.737.727v14.546c0 .401-.33.727-.737.727h-3.496a.732.732 0 01-.737-.727V2.727zm1.473.728v13.09h2.023V3.456h-2.023zM4 10c0-.402.33-.727.737-.727h3.496c.407 0 .737.325.737.727v7.273c0 .401-.33.727-.737.727H4.737A.732.732 0 014 17.273V10zm1.474.727v5.819h2.023v-5.819H5.474z"/></svg><svg viewBox="0 0 26 26" id="ic_cross" xmlns="http://www.w3.org/2000/svg"><path fill-rule="evenodd" clip-rule="evenodd" d="M.94.94a1.5 1.5 0 012.12 0L13 10.878l9.94-9.94a1.5 1.5 0 012.12 2.122L15.122 13l9.94 9.94a1.5 1.5 0 01-2.122 2.12L13 15.122l-9.94 9.94A1.5 1.5 0 01.94 22.94L10.878 13 .939 3.06a1.5 1.5 0 010-2.12z"/></svg><svg viewBox="0 0 24 24" id="ic_dislike" xmlns="http://www.w3.org/2000/svg"><path fill-rule="evenodd" clip-rule="evenodd" d="M20.564 3.316A1.31 1.31 0 0019.688 3H18v9h1.688A1.31 1.31 0 0021 10.923V4.077a1.31 1.31 0 00-.436-.761zM16 12.788V3H5.709a1 1 0 00-1 .85l-1.38 9a1.003 1.003 0 00.579 1.063c.132.059.276.089.42.087H10a1 1 0 011 1v4a2 2 0 001.392 1.905L16 12.788zM17.65 14l-3.736 8.406A1 1 0 0113 23a4 4 0 01-4-4v-3H4.345a3 3 0 01-2.994-3.45l1.38-9A3.002 3.002 0 015.725 1h13.937a3.31 3.31 0 013.329 2.866c.006.044.009.09.009.134v7c0 .045-.003.09-.009.134A3.31 3.31 0 0119.662 14H17.65z"/></svg><svg viewBox="0 0 24 24" id="ic_dl" xmlns="http://www.w3.org/2000/svg"><path fill-rule="evenodd" clip-rule="evenodd" d="M3 14a1 1 0 011 1v4a1 1 0 001 1h14a1 1 0 001-1v-4a1 1 0 112 0v4a3 3 0 01-3 3H5a3 3 0 01-3-3v-4a1 1 0 011-1z"/><path fill-rule="evenodd" clip-rule="evenodd" d="M6.293 9.293a1 1 0 011.414 0L12 13.586l4.293-4.293a1 1 0 111.414 1.414l-5 5a1 1 0 01-1.414 0l-5-5a1 1 0 010-1.414z"/><path fill-rule="evenodd" clip-rule="evenodd" d="M12 2a1 1 0 011 1v12a1 1 0 11-2 0V3a1 1 0 011-1z"/></svg><svg fill="none" viewBox="0 0 24 24" id="ic_earth" xmlns="http://www.w3.org/2000/svg"><path d="M15.6 12l1 .02v-.04l-1 .02zm-7.2 0l-1-.02v.04l1-.02zM20 12a8 8 0 01-8 8v2c5.523 0 10-4.477 10-10h-2zm-8 8a8 8 0 01-8-8H2c0 5.523 4.477 10 10 10v-2zm-8-8a8 8 0 018-8V2C6.477 2 2 6.477 2 12h2zm8-8a8 8 0 018 8h2c0-5.523-4.477-10-10-10v2zm-9 9h18v-2H3v2zm8.262-9.326a12.77 12.77 0 013.338 8.347l2-.042a14.77 14.77 0 00-3.862-9.653l-1.476 1.348zM14.6 11.98a12.77 12.77 0 01-3.338 8.347l1.476 1.348a14.77 14.77 0 003.862-9.653l-2-.042zm-1.862 8.347A12.77 12.77 0 019.4 11.979l-2 .042a14.77 14.77 0 003.862 9.653l1.476-1.348zM9.4 12.02a12.77 12.77 0 013.338-8.347l-1.476-1.348A14.77 14.77 0 007.4 11.979l2 .042z" fill="#fff"/></svg><svg fill="none" viewBox="0 0 25 24" id="ic_filter" xmlns="http://www.w3.org/2000/svg"><path d="M4.5 21v-7m0-4V3m8 18v-9m0-4V3m8 18v-5m0-4V3m-19 11h6m2-6h6m2 8h6" stroke="#fff" stroke-width="2" stroke-linecap="round" stroke-linejoin="round"/></svg><svg fill="none" viewBox="0 0 20 22" id="ic_home" xmlns="http://www.w3.org/2000/svg"><path d="M7 21V11h6v10M1 8l9-7 9 7v11a2 2 0 01-2 2H3a2 2 0 01-2-2V8z" stroke="#0B6D7A" stroke-width="2" stroke-linecap="round" stroke-linejoin="round"/></svg><svg viewBox="0 0 24 24" id="ic_like" xmlns="http://www.w3.org/2000/svg"><path fill-rule="evenodd" clip-rule="evenodd" d="M10.086 1.594A1 1 0 0111 1a4 4 0 014 4v3h4.655a3 3 0 012.994 3.45l-1.38 9A3.002 3.002 0 0118.275 23H4a3 3 0 01-3-3v-7a3 3 0 013-3h2.35l3.736-8.406zM6 12H4a1 1 0 00-1 1v7a1 1 0 001 1h2v-9zm2 9h10.291a1 1 0 001-.85l1.38-9a1 1 0 00-1-1.15H14a1 1 0 01-1-1V5a2 2 0 00-1.392-1.905L8 11.212V21z"/></svg><svg viewBox="0 0 24 24" id="ic_load" xmlns="http://www.w3.org/2000/svg"><path fill-rule="evenodd" clip-rule="evenodd" d="M13.996 5.277a7.36 7.36 0 00-3.59-.103 7.249 7.249 0 00-3.19 1.602 6.995 6.995 0 00-1.994 2.897 1 1 0 11-1.88-.68 8.995 8.995 0 012.561-3.727 9.249 9.249 0 014.07-2.045 9.36 9.36 0 014.568.132 9.222 9.222 0 013.929 2.266L21 7.945V4.887a1 1 0 112 0v5.335a1 1 0 01-1 1h-5.454a1 1 0 010-2h2.888l-2.329-2.14a7.222 7.222 0 00-3.11-1.804zM1 13.778a1 1 0 011-1h5.455a1 1 0 010 2H4.566l2.329 2.14.023.022a7.223 7.223 0 003.086 1.783 7.36 7.36 0 003.59.103 7.248 7.248 0 003.19-1.602 6.995 6.995 0 001.994-2.897 1 1 0 011.88.68 8.995 8.995 0 01-2.562 3.727 9.248 9.248 0 01-4.07 2.045 9.359 9.359 0 01-4.567-.132 9.223 9.223 0 01-3.929-2.266L3 16.055v3.058a1 1 0 11-2 0v-5.335z"/></svg><svg viewBox="0 0 25 24" id="ic_loupe" xmlns="http://www.w3.org/2000/svg"><path fill-rule="evenodd" clip-rule="evenodd" d="M13.225 4.949a6.16 6.16 0 00-4.44 10.428.986.986 0 01.171.171 6.16 6.16 0 104.269-10.6zm-5.003 12.54a8.108 8.108 0 10-1.378-1.378l-3.225 3.225a.975.975 0 001.378 1.379l3.225-3.226z"/></svg><svg fill="none" viewBox="0 0 40 40" id="ic_next-slider" xmlns="http://www.w3.org/2000/svg"><g clip-path="url(#axclip0_734_1178)"><path d="M0 20c0 11.046 8.954 20 20 20s20-8.954 20-20S31.046 0 20 0 0 8.954 0 20z" fill="#1EBC61"/><path d="M12.5 20h15m0 0L20 12.5m7.5 7.5L20 27.5" stroke="#fff" stroke-width="2" stroke-linecap="round" stroke-linejoin="round"/></g><defs><clipPath id="axclip0_734_1178"><path fill="#fff" d="M0 0h40v40H0z"/></clipPath></defs></svg><svg fill="none" viewBox="0 0 37 36" id="ic_pdf" xmlns="http://www.w3.org/2000/svg"><path d="M9.5 0a2.257 2.257 0 00-2.25 2.25v31.5A2.257 2.257 0 009.5 36H32a2.257 2.257 0 002.25-2.25V9l-9-9H9.5z" fill="#E2E5E7"/><path d="M27.5 9h6.75l-9-9v6.75A2.257 2.257 0 0027.5 9z" fill="#B0B7BD"/><path d="M34.25 15.75L27.5 9h6.75v6.75z" fill="#CAD1D8"/><path d="M29.75 29.25c0 .619-.506 1.125-1.125 1.125H3.875A1.128 1.128 0 012.75 29.25V18c0-.619.506-1.125 1.125-1.125h24.75c.619 0 1.125.506 1.125 1.125v11.25z" fill="#F15642"/><path d="M7.654 21.315c0-.297.234-.62.611-.62h2.078c1.17 0 2.223.782 2.223 2.283 0 1.422-1.053 2.214-2.223 2.214H8.841v1.188c0 .396-.252.62-.576.62a.606.606 0 01-.61-.62v-5.065zm1.187.512v2.241h1.502c.603 0 1.08-.532 1.08-1.09 0-.629-.477-1.15-1.08-1.15H8.841zM14.328 27c-.297 0-.621-.162-.621-.557v-5.11c0-.322.324-.558.62-.558h2.06c4.111 0 4.021 6.225.082 6.225h-2.141zm.567-5.127v4.03h1.493c2.428 0 2.536-4.03 0-4.03h-1.493zm6.971.072v1.43h2.294c.324 0 .648.324.648.638 0 .297-.324.54-.648.54h-2.294v1.889c0 .315-.224.557-.538.557-.396 0-.638-.242-.638-.557v-5.11c0-.323.243-.558.637-.558h3.158c.396 0 .63.235.63.558a.622.622 0 01-.63.612h-2.619v.001z" fill="#fff"/><path d="M28.625 30.375H7.25V31.5h21.375c.619 0 1.125-.506 1.125-1.125V29.25c0 .619-.506 1.125-1.125 1.125z" fill="#CAD1D8"/></svg><svg fill="none" viewBox="0 0 24 24" id="ic_phone" xmlns="http://www.w3.org/2000/svg"><path d="M21.983 17.344a2.235 2.235 0 00-1.078-1.656l-2.674-1.603a2.25 2.25 0 00-2.751.337c-.656.655-1.652.781-2.422.31a11.38 11.38 0 01-2.107-1.68 11.791 11.791 0 01-1.681-2.108c-.47-.77-.345-1.767.31-2.423a2.247 2.247 0 00.338-2.752L8.314 3.095c-.36-.6-.963-.993-1.655-1.078a2.229 2.229 0 00-1.867.645L2.774 4.68a2.627 2.627 0 00-.755 2.16c.425 3.426 2.325 7.045 5.21 9.93s6.507 4.785 9.932 5.212a2.63 2.63 0 002.159-.756l2.018-2.019a2.24 2.24 0 00.645-1.867v.004zm-1.689.819l-2.018 2.018a1.137 1.137 0 01-.93.334c-3.103-.386-6.41-2.134-9.065-4.79-2.655-2.659-4.403-5.963-4.789-9.067a1.13 1.13 0 01.334-.93L5.844 3.71a.777.777 0 01.64-.219c.238.03.445.163.567.367l1.604 2.674a.772.772 0 01-.115.941 3.449 3.449 0 00-.53 4.241c.504.83 1.145 1.63 1.897 2.386a12.761 12.761 0 002.384 1.896c1.36.83 3.1.611 4.24-.53a.768.768 0 01.941-.115l2.674 1.604a.776.776 0 01.148 1.207z" fill="#01AFD2"/><path d="M16.817 11.262a.742.742 0 01-.715-.544 4.586 4.586 0 00-3.185-3.186.744.744 0 01-.518-.91.744.744 0 01.91-.52 6.085 6.085 0 014.223 4.223.741.741 0 01-.715.937zm3.703 0a.74.74 0 01-.73-.622A8.178 8.178 0 0013 3.847a.741.741 0 01.233-1.463 9.652 9.652 0 018.021 8.023.741.741 0 01-.733.859v-.004z" fill="#01AFD2"/></svg><svg fill="none" viewBox="0 0 32 32" id="ic_phone-house" xmlns="http://www.w3.org/2000/svg"><g clip-path="url(#baclip0_338_1435)" fill="#1F1F1F"><path d="M21.895 5.053a4.21 4.21 0 00-4.21-4.21H5.052a4.21 4.21 0 00-4.21 4.21v21.894a4.21 4.21 0 004.21 4.21h12.631a4.21 4.21 0 004.127-3.373c.092-.456-.293-.837-.758-.837-.466 0-.83.387-.982.827a2.527 2.527 0 01-2.387 1.7H5.053a2.526 2.526 0 01-2.527-2.527V5.053a2.526 2.526 0 012.527-2.527h12.631a2.526 2.526 0 012.526 2.527v.644a.842.842 0 101.685 0v-.644z"/><path fill-rule="evenodd" clip-rule="evenodd" d="M30.846 15.352l-8.3-6.793a2.358 2.358 0 00-2.987 0l-8.3 6.793a.842.842 0 001.061 1.296l1.154-.934v6.66a2.897 2.897 0 002.888 2.89h9.381a2.897 2.897 0 002.889-2.89v-6.66l1.153.934a.791.791 0 00.53.194.841.841 0 00.531-1.49zm-4.251 7.874c.226-.226.352-.532.352-.851v-8.06l-5.894-4.824-5.895 4.825v8.059a1.204 1.204 0 001.204 1.204h9.381c.32 0 .626-.127.852-.353z"/><path d="M14.316 4.842A.842.842 0 0013.474 4h-4.21a.842.842 0 100 1.684h4.21a.842.842 0 00.842-.842z"/></g><defs><clipPath id="baclip0_338_1435"><path fill="#fff" d="M0 0h32v32H0z"/></clipPath></defs></svg><svg fill="none" viewBox="0 0 32 32" id="ic_play" xmlns="http://www.w3.org/2000/svg"><path d="M10 9.608c0-1.57 1.728-2.528 3.06-1.696l10.226 6.392a2 2 0 010 3.392L13.06 24.087c-1.332.833-3.06-.125-3.06-1.695V9.607z" stroke="#fff" stroke-width="2" stroke-linecap="round" stroke-linejoin="round"/></svg><svg fill="none" viewBox="0 0 40 40" id="ic_prev-slider" xmlns="http://www.w3.org/2000/svg"><g clip-path="url(#bcclip0_734_1175)"><path d="M40 20C40 8.954 31.046 0 20 0S0 8.954 0 20s8.954 20 20 20 20-8.954 20-20z" fill="#1EBC61"/><path d="M27.5 20h-15m0 0l7.5 7.5M12.5 20l7.5-7.5" stroke="#fff" stroke-width="2" stroke-linecap="round" stroke-linejoin="round"/></g><defs><clipPath id="bcclip0_734_1175"><path fill="#fff" d="M0 0h40v40H0z"/></clipPath></defs></svg><svg viewBox="0 0 16 14" id="ic_tg" xmlns="http://www.w3.org/2000/svg"><path d="M6.279 9.096l-.265 3.723c.379 0 .543-.163.74-.358l1.775-1.697 3.679 2.695c.674.376 1.15.178 1.332-.621l2.415-11.316c.214-.997-.36-1.388-1.018-1.143L.743 5.813c-.969.376-.954.916-.165 1.161l3.629 1.129 8.43-5.274c.396-.263.757-.118.46.145L6.279 9.096z"/></svg><svg viewBox="0 0 38 34" id="ic_to-catalog" xmlns="http://www.w3.org/2000/svg"><path fill-rule="evenodd" clip-rule="evenodd" d="M15 2a5 5 0 00-5 5v2.828a1 1 0 11-2 0V7a7 7 0 017-7h16a7 7 0 017 7v20a7 7 0 01-7 7H15a7 7 0 01-7-7v-3.931a1 1 0 112 0V27a5 5 0 005 5h16a5 5 0 005-5V7a5 5 0 00-5-5H15z"/><path fill-rule="evenodd" clip-rule="evenodd" d="M14.293 10.293a1 1 0 011.414 0l6 6a1 1 0 010 1.414l-6 6a1 1 0 01-1.414-1.414L18.586 18H1a1 1 0 110-2h17.586l-4.293-4.293a1 1 0 010-1.414z"/></svg><svg viewBox="0 0 22 22" id="ic_tooltip" xmlns="http://www.w3.org/2000/svg"><path fill-rule="evenodd" clip-rule="evenodd" d="M11 2a9 9 0 100 18 9 9 0 000-18zM0 11C0 4.925 4.925 0 11 0s11 4.925 11 11-4.925 11-11 11S0 17.075 0 11z"/><path fill-rule="evenodd" clip-rule="evenodd" d="M11.258 7.024a2 2 0 00-2.225 1.308 1 1 0 11-1.886-.664 4 4 0 017.773 1.333c0 1.53-1.135 2.54-1.945 3.081a8.044 8.044 0 01-1.686.848l-.035.013-.011.003-.004.002h-.002L10.92 12l.316.949a1 1 0 01-.633-1.897H10.6h.002l.016-.006.074-.027a6.051 6.051 0 001.172-.6c.69-.46 1.055-.95 1.055-1.419v-.001a2 2 0 00-1.662-1.975zM10 16a1 1 0 011-1h.01a1 1 0 110 2H11a1 1 0 01-1-1z"/></svg><svg viewBox="0 0 24 24" id="ic_trash" xmlns="http://www.w3.org/2000/svg"><path fill-rule="evenodd" clip-rule="evenodd" d="M2 6a1 1 0 011-1h18a1 1 0 110 2H3a1 1 0 01-1-1z"/><path fill-rule="evenodd" clip-rule="evenodd" d="M10 3a1 1 0 00-1 1v2a1 1 0 01-2 0V4a3 3 0 013-3h4a3 3 0 013 3v2a1 1 0 11-2 0V4a1 1 0 00-1-1h-4zM5 5a1 1 0 011 1v14a1 1 0 001 1h10a1 1 0 001-1V6a1 1 0 112 0v14a3 3 0 01-3 3H7a3 3 0 01-3-3V6a1 1 0 011-1z"/><path fill-rule="evenodd" clip-rule="evenodd" d="M10 10a1 1 0 011 1v6a1 1 0 11-2 0v-6a1 1 0 011-1zM14 10a1 1 0 011 1v6a1 1 0 11-2 0v-6a1 1 0 011-1z"/></svg><svg viewBox="0 0 16 13" id="ic_tw" xmlns="http://www.w3.org/2000/svg"><path d="M16 1.543a6.872 6.872 0 01-1.645 1.696 9.368 9.368 0 01-.376 3.066 9.453 9.453 0 01-1.177 2.517 9.91 9.91 0 01-1.868 2.143c-.724.615-1.597 1.11-2.62 1.482a9.666 9.666 0 01-3.278.548A9.106 9.106 0 010 11.523c.237.027.5.04.792.04a6.42 6.42 0 004.07-1.4 3.214 3.214 0 01-1.908-.65 3.235 3.235 0 01-1.157-1.625c.223.034.43.051.62.051.29 0 .578-.037.862-.112a3.259 3.259 0 01-1.888-1.126A3.201 3.201 0 01.65 4.609v-.04c.46.257.954.395 1.482.416a3.275 3.275 0 01-1.066-1.168A3.195 3.195 0 01.67 2.254c0-.596.149-1.147.447-1.655a9.373 9.373 0 002.985 2.426A9.22 9.22 0 007.878 4.03a3.643 3.643 0 01-.081-.75c0-.908.318-1.68.954-2.316A3.169 3.169 0 0111.076 0c.948 0 1.746.345 2.396 1.036a6.43 6.43 0 002.081-.792 3.184 3.184 0 01-1.441 1.807A6.534 6.534 0 0016 1.543z"/></svg><svg viewBox="0 0 24 24" id="ic_upload" xmlns="http://www.w3.org/2000/svg"><path fill-rule="evenodd" clip-rule="evenodd" d="M11.293 3.293a1 1 0 011.414 0l4.445 4.444a1 1 0 01-1.415 1.415L13 6.414v8.253a1 1 0 11-2 0V6.414L8.263 9.152a1 1 0 11-1.415-1.415l4.445-4.444zM4 13.667a1 1 0 011 1v3.555a.778.778 0 00.778.778h12.444a.778.778 0 00.778-.778v-3.555a1 1 0 112 0v3.555A2.778 2.778 0 0118.222 21H5.778A2.778 2.778 0 013 18.222v-3.555a1 1 0 011-1z"/></svg><svg viewBox="0 0 20 20" id="ic_user" xmlns="http://www.w3.org/2000/svg"><path fill-rule="evenodd" clip-rule="evenodd" d="M1 10a9 9 0 1118 0 9 9 0 01-18 0zm9-7.552a7.552 7.552 0 100 15.104 7.552 7.552 0 000-15.104zm-.035 2.91a1.941 1.941 0 100 3.883 1.941 1.941 0 000-3.882zM6.575 7.3a3.39 3.39 0 116.78 0 3.39 3.39 0 01-6.78 0zm-.959 6.45a5.208 5.208 0 014.038-1.914h.832c1.628 0 3.083.746 4.038 1.913a.724.724 0 01-1.12.918 3.76 3.76 0 00-2.918-1.383h-.832a3.76 3.76 0 00-2.917 1.383.724.724 0 11-1.12-.918z"/></svg><svg viewBox="0 0 20 20" id="ic_vb" xmlns="http://www.w3.org/2000/svg"><path d="M17.745 1.948c-.524-.457-2.64-1.914-7.36-1.934 0 0-5.565-.316-8.276 2.043C.602 3.487.07 5.584.013 8.18c-.058 2.597-.128 7.464 4.819 8.784h.004l-.004 2.015s-.033.817.535.98c.684.204 1.088-.417 1.743-1.085.358-.367.852-.906 1.227-1.316 3.386.27 5.985-.348 6.281-.438.684-.21 4.552-.68 5.178-5.546.65-5.023-.313-8.194-2.051-9.627zm.572 9.26c-.531 4.062-3.666 4.32-4.242 4.496-.247.074-2.534.613-5.404.437 0 0-2.142 2.449-2.81 3.086-.218.207-.457.187-.452-.223 0-.27.016-3.347.016-3.347-.004 0-.004 0 0 0-4.193-1.102-3.946-5.246-3.9-7.413.045-2.168.477-3.945 1.754-5.14 2.294-1.973 7.019-1.68 7.019-1.68 3.99.016 5.902 1.156 6.347 1.539 1.47 1.195 2.22 4.054 1.672 8.245zm-5.725-3.156c.016.336-.515.36-.532.024-.045-.86-.469-1.278-1.342-1.324-.354-.02-.322-.524.029-.504 1.149.058 1.787.683 1.845 1.804zm.836.442c.041-1.656-1.05-2.953-3.122-3.098-.35-.023-.313-.527.037-.504 2.389.164 3.662 1.723 3.616 3.613-.004.336-.54.32-.531-.011zm1.936.523c.004.336-.532.34-.532.004-.024-3.183-2.26-4.918-4.975-4.937-.35-.004-.35-.504 0-.504 3.036.02 5.478 2.008 5.507 5.437zm-.466 3.832v.007c-.444.742-1.276 1.563-2.133 1.3l-.008-.01c-.87-.231-2.917-1.231-4.21-2.208-.667-.5-1.277-1.09-1.746-1.656a12.643 12.643 0 01-1.269-1.82c-.877-1.503-1.07-2.175-1.07-2.175-.277-.813.584-1.602 1.37-2.023h.009c.379-.188.741-.125.984.152 0 0 .511.578.73.863.205.266.481.691.626.93.25.425.094.859-.153 1.039l-.494.375c-.251.19-.218.546-.218.546s.733 2.629 3.472 3.293c0 0 .375.031.576-.207l.396-.469c.19-.234.646-.383 1.095-.144.606.324 1.376.828 1.887 1.285.288.222.354.562.156.921z"/></svg><svg viewBox="0 0 19 11" id="ic_vk" xmlns="http://www.w3.org/2000/svg"><path d="M17.57 8.059c-.393-.414-.84-.785-1.27-1.143-.154-.128-.313-.26-.466-.39-.438-.377-.454-.519-.107-.947.24-.295.495-.59.742-.876.224-.26.455-.527.677-.796l.045-.055c.424-.515.862-1.047 1.095-1.689.06-.17.124-.418-.021-.627-.145-.208-.427-.272-.627-.301a1.946 1.946 0 00-.287-.017l-2.774-.002h-.023c-.42 0-.702.174-.864.53a13.74 13.74 0 01-.519 1.05c-.385.688-.875 1.48-1.584 2.141l-.03.028c-.084.08-.179.169-.248.169a.133.133 0 01-.035-.006c-.147-.05-.246-.362-.241-.507v-.006L11.03 1.8l-.003-.03c-.07-.457-.226-.742-.817-.843a.278.278 0 00-.048-.004H7.278c-.47 0-.729.168-.972.419-.066.067-.202.206-.135.376.07.172.292.208.365.22.361.06.564.254.622.593.1.588.113 1.216.039 1.975a1.49 1.49 0 01-.129.514c-.015.032-.07.138-.127.138-.018 0-.07-.006-.165-.063-.224-.135-.387-.327-.578-.564A12.863 12.863 0 014.53 1.817a.986.986 0 00-.92-.592c-.46-.006-.878-.01-1.276-.01-.435 0-.839.004-1.232.012-.337.005-.57.093-.693.263s-.115.394.024.664C1.544 4.32 2.55 5.896 3.697 7.261c.804.956 1.61 1.618 2.536 2.082.977.49 2.071.729 3.345.729.145 0 .294-.003.445-.01.74-.031 1.015-.266 1.05-.9.016-.323.057-.662.238-.951.114-.183.22-.183.256-.183.067 0 .151.028.241.079.161.092.3.216.413.324l.317.31c.228.224.464.456.71.675.538.481 1.132.693 1.813.647h2.56a.755.755 0 00.602-.34c.16-.248.157-.564-.008-.847a4.587 4.587 0 00-.645-.817z"/></svg><svg viewBox="0 0 16 17" id="ic_wa" xmlns="http://www.w3.org/2000/svg"><path d="M9.719 9.385c.27-.34.451-.51.541-.51.09 0 .428.153 1.01.458.591.306.904.49.938.552.014.035.021.087.021.157 0 .229-.059.493-.177.791-.111.271-.358.5-.74.688-.381.18-.736.27-1.062.27-.396 0-1.056-.215-1.98-.645a5.945 5.945 0 01-1.77-1.23C6 9.41 5.486 8.768 4.958 7.99c-.5-.743-.746-1.417-.74-2.021v-.084c.022-.632.279-1.18.772-1.645a.788.788 0 01.541-.23c.042 0 .104.007.188.021.083.007.15.01.198.01.132 0 .222.025.27.074.056.041.112.135.167.28.056.14.17.445.344.918.174.472.26.732.26.78 0 .147-.121.348-.364.605-.236.25-.354.41-.354.48 0 .048.017.1.052.155.236.507.59.983 1.062 1.427.39.368.913.72 1.573 1.053.083.048.16.072.23.072.103 0 .29-.166.562-.5zm-1.573 5.01a6.33 6.33 0 002.531-.52 6.581 6.581 0 002.094-1.396 6.613 6.613 0 001.396-2.083c.347-.813.52-1.66.52-2.542a6.33 6.33 0 00-.52-2.531 6.582 6.582 0 00-1.396-2.094 6.581 6.581 0 00-2.094-1.396 6.329 6.329 0 00-2.531-.52c-.882 0-1.73.173-2.542.52-.805.348-1.5.813-2.083 1.396a6.582 6.582 0 00-1.396 2.094 6.329 6.329 0 00-.52 2.531c0 1.41.416 2.688 1.25 3.833l-.824 2.428 2.521-.803a6.406 6.406 0 003.594 1.084zM5.094.626A7.669 7.669 0 018.146 0c1.062 0 2.076.208 3.041.625a7.918 7.918 0 012.51 1.677 7.918 7.918 0 011.678 2.51c.417.966.625 1.98.625 3.042 0 1.063-.208 2.08-.625 3.052a7.947 7.947 0 01-1.677 2.5 7.916 7.916 0 01-2.51 1.677 7.594 7.594 0 01-3.042.625 7.735 7.735 0 01-3.802-.979L0 16.125l1.417-4.219A7.666 7.666 0 01.292 7.854c0-1.062.208-2.076.625-3.042a7.917 7.917 0 011.677-2.51 7.948 7.948 0 012.5-1.677z"/></svg><svg fill="none" viewBox="0 0 21 20" id="ic_zoom" xmlns="http://www.w3.org/2000/svg"><path d="M19.666 19l-4.35-4.35M9.666 6v6m-3-3h6m5 0a8 8 0 11-16 0 8 8 0 0116 0z" stroke="#fff" stroke-width="2" stroke-linecap="round" stroke-linejoin="round"/></svg></svg>